NotoAmalgamated-Bold.ufo
<glyph name="exclam.mono" format="2">
  <advance width="600"/>
  <unicode hex="0021"/>
  <outline>
    <contour>
      <point x="224" y="252" type="line"/>
      <point x="385" y="252" type="line"/>
      <point x="410" y="714" type="line"/>
      <point x="199" y="714" type="line"/>
    </contour>
    <contour>
      <point x="304" y="-12" type="curve" smooth="yes"/>
      <point x="359" y="-12"/>
      <point x="405" y="15"/>
      <point x="405" y="81" type="curve" smooth="yes"/>
      <point x="405" y="150"/>
      <point x="359" y="175"/>
      <point x="304" y="175" type="curve" smooth="yes"/>
      <point x="248" y="175"/>
      <point x="201" y="150"/>
      <point x="201" y="81" type="curve" smooth="yes"/>
      <point x="201" y="15"/>
      <point x="248" y="-12"/>
    </contour>
  </outline>
</glyph>
<glyph name="exclam.orya" format="2">
  <advance width="313"/>
  <unicode hex="0021"/>
  <outline>
    <contour>
      <point x="119" y="228" type="line"/>
      <point x="180" y="228" type="line"/>
      <point x="226" y="657" type="line"/>
      <point x="72" y="657" type="line"/>
    </contour>
    <component base="period.orya" xOffset="17" yOffset="-6"/>
  </outline>
</glyph>
<glyph name="quotedbl.guru" format="2">
  <advance width="582"/>
  <unicode hex="0022"/>
  <outline>
    <contour>
      <point x="130" y="410" type="line"/>
      <point x="211" y="410" type="line"/>
      <point x="267" y="714" type="line"/>
      <point x="74" y="714" type="line"/>
    </contour>
    <contour>
      <point x="371" y="410" type="line"/>
      <point x="452" y="410" type="line"/>
      <point x="508" y="714" type="line"/>
      <point x="315" y="714" type="line"/>
    </contour>
  </outline>
</glyph>
<glyph name="quotedbl.mono" format="2">
  <advance width="600"/>
  <unicode hex="0022"/>
  <outline>
    <contour>
      <point x="346" y="456" type="line"/>
      <point x="480" y="456" type="line"/>
      <point x="500" y="714" type="line"/>
      <point x="326" y="714" type="line"/>
    </contour>
    <contour>
      <point x="120" y="456" type="line"/>
      <point x="254" y="456" type="line"/>
      <point x="274" y="714" type="line"/>
      <point x="100" y="714" type="line"/>
    </contour>
  </outline>
</glyph>
<glyph name="numbersign.guru" format="2">
  <advance width="569"/>
  <unicode hex="0023"/>
  <outline>
    <contour>
      <point x="93" y="0" type="line"/>
      <point x="172" y="0" type="line"/>
      <point x="210" y="198" type="line"/>
      <point x="298" y="198" type="line"/>
      <point x="262" y="0" type="line"/>
      <point x="341" y="0" type="line"/>
      <point x="377" y="198" type="line"/>
      <point x="502" y="198" type="line"/>
      <point x="502" y="274" type="line"/>
      <point x="393" y="274" type="line"/>
      <point x="425" y="444" type="line"/>
      <point x="534" y="444" type="line"/>
      <point x="534" y="522" type="line"/>
      <point x="439" y="522" type="line"/>
      <point x="476" y="714" type="line"/>
      <point x="397" y="714" type="line"/>
      <point x="360" y="522" type="line"/>
      <point x="272" y="522" type="line"/>
      <point x="307" y="714" type="line"/>
      <point x="227" y="714" type="line"/>
      <point x="193" y="522" type="line"/>
      <point x="67" y="522" type="line"/>
      <point x="67" y="444" type="line"/>
      <point x="178" y="444" type="line"/>
      <point x="145" y="274" type="line"/>
      <point x="35" y="274" type="line"/>
      <point x="35" y="198" type="line"/>
      <point x="131" y="198" type="line"/>
    </contour>
    <contour>
      <point x="224" y="274" type="line"/>
      <point x="258" y="444" type="line"/>
      <point x="347" y="444" type="line"/>
      <point x="314" y="274" type="line"/>
    </contour>
  </outline>
</glyph>
<glyph name="numbersign.mono" format="2">
  <advance width="600"/>
  <unicode hex="0023"/>
  <outline>
    <contour>
      <point x="82" y="0" type="line"/>
      <point x="205" y="0" type="line"/>
      <point x="236" y="191" type="line"/>
      <point x="308" y="191" type="line"/>
      <point x="276" y="0" type="line"/>
      <point x="400" y="0" type="line"/>
      <point x="432" y="191" type="line"/>
      <point x="563" y="191" type="line"/>
      <point x="563" y="310" type="line"/>
      <point x="451" y="310" type="line"/>
      <point x="466" y="402" type="line"/>
      <point x="590" y="402" type="line"/>
      <point x="590" y="524" type="line"/>
      <point x="485" y="524" type="line"/>
      <point x="517" y="714" type="line"/>
      <point x="393" y="714" type="line"/>
      <point x="362" y="524" type="line"/>
      <point x="291" y="524" type="line"/>
      <point x="323" y="714" type="line"/>
      <point x="199" y="714" type="line"/>
      <point x="168" y="524" type="line"/>
      <point x="38" y="524" type="line"/>
      <point x="38" y="402" type="line"/>
      <point x="148" y="402" type="line"/>
      <point x="133" y="310" type="line"/>
      <point x="10" y="310" type="line"/>
      <point x="10" y="191" type="line"/>
      <point x="113" y="191" type="line"/>
    </contour>
    <contour>
      <point x="256" y="310" type="line"/>
      <point x="271" y="402" type="line"/>
      <point x="342" y="402" type="line"/>
      <point x="327" y="310" type="line"/>
    </contour>
  </outline>
</glyph>
<glyph name="numbersign.orya" format="2">
  <advance width="596"/>
  <unicode hex="0023"/>
  <outline>
    <contour>
      <point x="365" y="398" type="line"/>
      <point x="345" y="264" type="line"/>
      <point x="219" y="264" type="line"/>
      <point x="239" y="398" type="line"/>
    </contour>
    <contour>
      <point x="426" y="398" type="line"/>
      <point x="551" y="398" type="line"/>
      <point x="551" y="485" type="line"/>
      <point x="439" y="485" type="line"/>
      <point x="466" y="657" type="line"/>
      <point x="405" y="657" type="line"/>
      <point x="378" y="485" type="line"/>
      <point x="253" y="485" type="line"/>
      <point x="278" y="657" type="line"/>
      <point x="218" y="657" type="line"/>
      <point x="192" y="485" type="line"/>
      <point x="70" y="485" type="line"/>
      <point x="70" y="398" type="line"/>
      <point x="179" y="398" type="line"/>
      <point x="159" y="264" type="line"/>
      <point x="36" y="264" type="line"/>
      <point x="36" y="177" type="line"/>
      <point x="145" y="177" type="line"/>
      <point x="119" y="0" type="line"/>
      <point x="180" y="0" type="line"/>
      <point x="206" y="177" type="line"/>
      <point x="332" y="177" type="line"/>
      <point x="305" y="0" type="line"/>
      <point x="365" y="0" type="line"/>
      <point x="393" y="177" type="line"/>
      <point x="517" y="177" type="line"/>
      <point x="517" y="264" type="line"/>
      <point x="405" y="264" type="line"/>
    </contour>
  </outline>
</glyph>
<glyph name="dollar.mono" format="2">
  <advance width="600"/>
  <unicode hex="0024"/>
  <outline>
    <contour>
      <point x="263" y="23" type="curve"/>
      <point x="263" y="-58" type="line"/>
      <point x="344" y="-58" type="line"/>
      <point x="344" y="26" type="line"/>
      <point x="468" y="44"/>
      <point x="530" y="125"/>
      <point x="530" y="232" type="curve" smooth="yes"/>
      <point x="530" y="340"/>
      <point x="466" y="384"/>
      <point x="344" y="426" type="curve"/>
      <point x="344" y="563" type="line"/>
      <point x="388" y="558"/>
      <point x="439" y="545"/>
      <point x="482" y="523" type="curve"/>
      <point x="523" y="651" type="line"/>
      <point x="465" y="675"/>
      <point x="410" y="693"/>
      <point x="344" y="697" type="curve"/>
      <point x="344" y="760" type="line"/>
      <point x="263" y="760" type="line"/>
      <point x="263" y="696" type="line"/>
      <point x="147" y="685"/>
      <point x="70" y="624"/>
      <point x="70" y="506" type="curve" smooth="yes"/>
      <point x="70" y="393"/>
      <point x="144" y="340"/>
      <point x="263" y="299" type="curve"/>
      <point x="263" y="156" type="line"/>
      <point x="202" y="159"/>
      <point x="126" y="183"/>
      <point x="71" y="213" type="curve"/>
      <point x="71" y="65" type="line"/>
      <point x="124" y="41"/>
      <point x="190" y="26"/>
    </contour>
    <contour>
      <point x="344" y="161" type="curve"/>
      <point x="344" y="272" type="line"/>
      <point x="375" y="258"/>
      <point x="388" y="246"/>
      <point x="388" y="219" type="curve" smooth="yes"/>
      <point x="388" y="186"/>
      <point x="374" y="170"/>
    </contour>
    <contour>
      <point x="263" y="562" type="curve"/>
      <point x="263" y="455" type="line"/>
      <point x="229" y="469"/>
      <point x="215" y="482"/>
      <point x="215" y="508" type="curve" smooth="yes"/>
      <point x="215" y="539"/>
      <point x="229" y="555"/>
    </contour>
  </outline>
</glyph>
<glyph name="dollar.serif" format="2">
  <advance width="569"/>
  <unicode hex="0024"/>
  <outline>
    <contour>
      <point x="263" y="42" type="curve"/>
      <point x="263" y="-79" type="line"/>
      <point x="324" y="-79" type="line"/>
      <point x="324" y="44" type="line"/>
      <point x="451" y="60"/>
      <point x="529" y="142"/>
      <point x="529" y="245" type="curve" smooth="yes"/>
      <point x="529" y="361"/>
      <point x="424" y="407"/>
      <point x="324" y="448" type="curve"/>
      <point x="324" y="624" type="line"/>
      <point x="355" y="608"/>
      <point x="378" y="570"/>
      <point x="378" y="514" type="curve"/>
      <point x="471" y="514"/>
      <point x="498" y="552"/>
      <point x="498" y="593" type="curve" smooth="yes"/>
      <point x="498" y="639"/>
      <point x="440" y="679"/>
      <point x="324" y="684" type="curve"/>
      <point x="324" y="760" type="line"/>
      <point x="263" y="760" type="line"/>
      <point x="263" y="684" type="line"/>
      <point x="151" y="671"/>
      <point x="67" y="605"/>
      <point x="67" y="505" type="curve" smooth="yes"/>
      <point x="67" y="424"/>
      <point x="106" y="365"/>
      <point x="263" y="298" type="curve"/>
      <point x="263" y="105" type="line"/>
      <point x="182" y="124"/>
      <point x="159" y="182"/>
      <point x="159" y="278" type="curve"/>
      <point x="110" y="278"/>
      <point x="49" y="259"/>
      <point x="49" y="188" type="curve" smooth="yes"/>
      <point x="49" y="141"/>
      <point x="90" y="49"/>
    </contour>
    <contour>
      <point x="324" y="106" type="curve"/>
      <point x="324" y="275" type="line"/>
      <point x="372" y="249"/>
      <point x="390" y="220"/>
      <point x="390" y="186" type="curve" smooth="yes"/>
      <point x="390" y="150"/>
      <point x="367" y="118"/>
    </contour>
    <contour>
      <point x="263" y="626" type="curve"/>
      <point x="263" y="479" type="line"/>
      <point x="220" y="504"/>
      <point x="203" y="531"/>
      <point x="203" y="559" type="curve" smooth="yes"/>
      <point x="203" y="599"/>
      <point x="234" y="622"/>
    </contour>
  </outline>
</glyph>
<glyph name="percent.mono" format="2">
  <advance width="600"/>
  <unicode hex="0025"/>
  <outline>
    <contour>
      <point x="47" y="-10" type="line"/>
      <point x="179" y="-10" type="line"/>
      <point x="551" y="724" type="line"/>
      <point x="419" y="724" type="line"/>
    </contour>
    <contour>
      <point x="455" y="-10" type="curve" smooth="yes"/>
      <point x="550" y="-10"/>
      <point x="600" y="52"/>
      <point x="600" y="159" type="curve" smooth="yes"/>
      <point x="600" y="267"/>
      <point x="550" y="329"/>
      <point x="455" y="329" type="curve" smooth="yes"/>
      <point x="366" y="329"/>
      <point x="313" y="269"/>
      <point x="313" y="159" type="curve" smooth="yes"/>
      <point x="313" y="50"/>
      <point x="366" y="-10"/>
    </contour>
    <contour>
      <point x="458" y="94" type="curve" smooth="yes"/>
      <point x="442" y="94"/>
      <point x="435" y="111"/>
      <point x="435" y="159" type="curve" smooth="yes"/>
      <point x="435" y="208"/>
      <point x="442" y="225"/>
      <point x="458" y="225" type="curve" smooth="yes"/>
      <point x="471" y="225"/>
      <point x="478" y="208"/>
      <point x="478" y="159" type="curve" smooth="yes"/>
      <point x="478" y="111"/>
      <point x="471" y="94"/>
    </contour>
    <contour>
      <point x="142" y="385" type="curve" smooth="yes"/>
      <point x="237" y="385"/>
      <point x="287" y="447"/>
      <point x="287" y="554" type="curve" smooth="yes"/>
      <point x="287" y="662"/>
      <point x="237" y="724"/>
      <point x="142" y="724" type="curve" smooth="yes"/>
      <point x="53" y="724"/>
      <point x="0" y="664"/>
      <point x="0" y="554" type="curve" smooth="yes"/>
      <point x="0" y="445"/>
      <point x="53" y="385"/>
    </contour>
    <contour>
      <point x="144" y="489" type="curve" smooth="yes"/>
      <point x="129" y="489"/>
      <point x="122" y="506"/>
      <point x="122" y="554" type="curve" smooth="yes"/>
      <point x="122" y="603"/>
      <point x="129" y="620"/>
      <point x="144" y="620" type="curve" smooth="yes"/>
      <point x="158" y="620"/>
      <point x="165" y="603"/>
      <point x="165" y="554" type="curve" smooth="yes"/>
      <point x="165" y="506"/>
      <point x="158" y="489"/>
    </contour>
  </outline>
</glyph>
<glyph name="percent.orya" format="2">
  <advance width="901"/>
  <unicode hex="0025"/>
  <outline>
    <contour>
      <point x="193" y="0" type="line"/>
      <point x="310" y="0" type="line"/>
      <point x="706" y="657" type="line"/>
      <point x="589" y="657" type="line"/>
    </contour>
    <contour>
      <point x="40" y="477" type="curve" smooth="yes"/>
      <point x="40" y="373"/>
      <point x="112" y="295"/>
      <point x="207" y="295" type="curve" smooth="yes"/>
      <point x="305" y="295"/>
      <point x="381" y="377"/>
      <point x="381" y="485" type="curve" smooth="yes"/>
      <point x="381" y="587"/>
      <point x="310" y="665"/>
      <point x="214" y="665" type="curve" smooth="yes"/>
      <point x="117" y="665"/>
      <point x="40" y="583"/>
    </contour>
    <contour>
      <point x="145" y="495" type="curve" smooth="yes"/>
      <point x="145" y="539"/>
      <point x="169" y="568"/>
      <point x="201" y="568" type="curve" smooth="yes"/>
      <point x="240" y="568"/>
      <point x="275" y="522"/>
      <point x="275" y="466" type="curve" smooth="yes"/>
      <point x="275" y="423"/>
      <point x="253" y="391"/>
      <point x="219" y="391" type="curve" smooth="yes"/>
      <point x="181" y="391"/>
      <point x="145" y="438"/>
    </contour>
    <contour>
      <point x="519" y="173" type="curve" smooth="yes"/>
      <point x="519" y="69"/>
      <point x="591" y="-9"/>
      <point x="686" y="-9" type="curve" smooth="yes"/>
      <point x="784" y="-9"/>
      <point x="860" y="73"/>
      <point x="860" y="181" type="curve" smooth="yes"/>
      <point x="860" y="283"/>
      <point x="789" y="361"/>
      <point x="693" y="361" type="curve" smooth="yes"/>
      <point x="596" y="361"/>
      <point x="519" y="279"/>
    </contour>
    <contour>
      <point x="624" y="191" type="curve" smooth="yes"/>
      <point x="624" y="235"/>
      <point x="648" y="264"/>
      <point x="680" y="264" type="curve" smooth="yes"/>
      <point x="719" y="264"/>
      <point x="754" y="218"/>
      <point x="754" y="162" type="curve" smooth="yes"/>
      <point x="754" y="118"/>
      <point x="732" y="87"/>
      <point x="698" y="87" type="curve" smooth="yes"/>
      <point x="660" y="87"/>
      <point x="624" y="134"/>
    </contour>
  </outline>
</glyph>
<glyph name="ampersand.mono" format="2">
  <advance width="600"/>
  <unicode hex="0026"/>
  <outline>
    <contour>
      <point x="216" y="-10" type="curve" smooth="yes"/>
      <point x="423" y="-10"/>
      <point x="558" y="230"/>
      <point x="567" y="401" type="curve"/>
      <point x="433" y="401" type="line"/>
      <point x="429" y="313"/>
      <point x="349" y="133"/>
      <point x="241" y="133" type="curve" smooth="yes"/>
      <point x="195" y="133"/>
      <point x="172" y="165"/>
      <point x="172" y="206" type="curve" smooth="yes"/>
      <point x="172" y="252"/>
      <point x="201" y="283"/>
      <point x="261" y="331" type="curve" smooth="yes"/>
      <point x="352" y="404"/>
      <point x="433" y="446"/>
      <point x="433" y="557" type="curve" smooth="yes"/>
      <point x="433" y="655"/>
      <point x="371" y="723"/>
      <point x="260" y="723" type="curve" smooth="yes"/>
      <point x="151" y="723"/>
      <point x="82" y="657"/>
      <point x="82" y="553" type="curve" smooth="yes"/>
      <point x="82" y="465"/>
      <point x="131" y="391"/>
      <point x="165" y="345" type="curve" smooth="yes"/>
      <point x="418" y="0" type="line"/>
      <point x="590" y="0" type="line"/>
      <point x="277" y="434" type="line" smooth="yes"/>
      <point x="255" y="464"/>
      <point x="219" y="508"/>
      <point x="219" y="555" type="curve" smooth="yes"/>
      <point x="219" y="588"/>
      <point x="236" y="605"/>
      <point x="261" y="605" type="curve" smooth="yes"/>
      <point x="286" y="605"/>
      <point x="300" y="588"/>
      <point x="300" y="563" type="curve" smooth="yes"/>
      <point x="300" y="510"/>
      <point x="235" y="467"/>
      <point x="190" y="434" type="curve" smooth="yes"/>
      <point x="113" y="378"/>
      <point x="20" y="307"/>
      <point x="20" y="184" type="curve" smooth="yes"/>
      <point x="20" y="78"/>
      <point x="90" y="-10"/>
    </contour>
  </outline>
</glyph>
<glyph name="quotesingle.orya" format="2">
  <advance width="286"/>
  <unicode hex="0027"/>
  <outline>
    <contour>
      <point x="116" y="850" type="curve" smooth="yes"/>
      <point x="74" y="850"/>
      <point x="48" y="825"/>
      <point x="48" y="775" type="curve" smooth="yes"/>
      <point x="48" y="730"/>
      <point x="68" y="651"/>
      <point x="75" y="609" type="curve" smooth="yes"/>
      <point x="99" y="496" type="line"/>
      <point x="132" y="496" type="line"/>
      <point x="156" y="609" type="line" smooth="yes"/>
      <point x="164" y="651"/>
      <point x="183" y="729"/>
      <point x="183" y="775" type="curve" smooth="yes"/>
      <point x="183" y="825"/>
      <point x="157" y="850"/>
    </contour>
  </outline>
</glyph>
<glyph name="parenleft.mono" format="2">
  <advance width="600"/>
  <unicode hex="0028"/>
  <outline>
    <contour>
      <point x="315" y="-178" type="curve"/>
      <point x="470" y="-178" type="line"/>
      <point x="385" y="-47"/>
      <point x="343" y="104"/>
      <point x="343" y="265" type="curve" smooth="yes"/>
      <point x="343" y="431"/>
      <point x="382" y="587"/>
      <point x="470" y="714" type="curve"/>
      <point x="315" y="714" type="line"/>
      <point x="227" y="598"/>
      <point x="180" y="440"/>
      <point x="180" y="264" type="curve" smooth="yes"/>
      <point x="180" y="90"/>
      <point x="225" y="-62"/>
    </contour>
  </outline>
</glyph>
<glyph name="parenleft.orya" format="2">
  <advance width="382"/>
  <unicode hex="0028"/>
  <outline>
    <contour>
      <point x="214" y="311" type="curve" smooth="yes"/>
      <point x="214" y="496"/>
      <point x="246" y="629"/>
      <point x="361" y="803" type="curve"/>
      <point x="338" y="823" type="line"/>
      <point x="173" y="679"/>
      <point x="87" y="519"/>
      <point x="87" y="311" type="curve" smooth="yes"/>
      <point x="87" y="102"/>
      <point x="173" y="-57"/>
      <point x="338" y="-202" type="curve"/>
      <point x="361" y="-182" type="line"/>
      <point x="250" y="-11"/>
      <point x="214" y="125"/>
    </contour>
  </outline>
</glyph>
<glyph name="parenright.serif" format="2">
  <advance width="440"/>
  <unicode hex="0029"/>
  <outline>
    <contour>
      <point x="32" y="-70" type="curve"/>
      <point x="32" y="-147" type="line"/>
      <point x="284" y="-46"/>
      <point x="383" y="121"/>
      <point x="383" y="319" type="curve" smooth="yes"/>
      <point x="383" y="515"/>
      <point x="284" y="680"/>
      <point x="32" y="781" type="curve"/>
      <point x="32" y="705" type="line"/>
      <point x="146" y="623"/>
      <point x="180" y="476"/>
      <point x="180" y="319" type="curve" smooth="yes"/>
      <point x="180" y="160"/>
      <point x="146" y="11"/>
    </contour>
  </outline>
</glyph>
<glyph name="asterisk.guru" format="2">
  <advance width="503"/>
  <unicode hex="002A"/>
  <outline>
    <contour>
      <point x="191" y="350" type="line"/>
      <point x="319" y="350" type="line"/>
      <point x="279" y="515" type="line"/>
      <point x="425" y="403" type="line"/>
      <point x="478" y="518" type="line"/>
      <point x="321" y="559" type="line"/>
      <point x="478" y="593" type="line"/>
      <point x="425" y="709" type="line"/>
      <point x="279" y="598" type="line"/>
      <point x="321" y="761" type="line"/>
      <point x="191" y="761" type="line"/>
      <point x="229" y="595" type="line"/>
      <point x="83" y="711" type="line"/>
      <point x="31" y="594" type="line"/>
      <point x="190" y="559" type="line"/>
      <point x="31" y="517" type="line"/>
      <point x="83" y="402" type="line"/>
      <point x="228" y="517" type="line"/>
    </contour>
  </outline>
</glyph>
<glyph name="asterisk.mono" format="2">
  <advance width="600"/>
  <unicode hex="002A"/>
  <outline>
    <contour>
      <point x="378" y="300" type="line"/>
      <point x="488" y="374" type="line"/>
      <point x="390" y="497" type="line"/>
      <point x="535" y="520" type="line"/>
      <point x="508" y="647" type="line"/>
      <point x="354" y="601" type="line"/>
      <point x="371" y="762" type="line"/>
      <point x="227" y="762" type="line"/>
      <point x="245" y="601" type="line"/>
      <point x="94" y="645" type="line"/>
      <point x="65" y="518" type="line"/>
      <point x="209" y="497" type="line"/>
      <point x="112" y="370" type="line"/>
      <point x="226" y="302" type="line"/>
      <point x="298" y="433" type="line"/>
    </contour>
  </outline>
</glyph>
<glyph name="asterisk.orya" format="2">
  <advance width="533"/>
  <unicode hex="002A"/>
  <outline>
    <contour>
      <point x="255" y="790" type="curve" smooth="yes"/>
      <point x="231" y="790"/>
      <point x="212" y="773"/>
      <point x="212" y="745" type="curve" smooth="yes"/>
      <point x="212" y="724"/>
      <point x="218" y="682"/>
      <point x="228" y="642" type="curve" smooth="yes"/>
      <point x="245" y="574" type="line"/>
      <point x="184" y="610" type="line" smooth="yes"/>
      <point x="140" y="636"/>
      <point x="102" y="659"/>
      <point x="77" y="659" type="curve" smooth="yes"/>
      <point x="51" y="659"/>
      <point x="33" y="641"/>
      <point x="33" y="617" type="curve" smooth="yes"/>
      <point x="33" y="577"/>
      <point x="73" y="569"/>
      <point x="169" y="561" type="curve" smooth="yes"/>
      <point x="239" y="555" type="line"/>
      <point x="185" y="508" type="line" smooth="yes"/>
      <point x="139" y="468"/>
      <point x="103" y="440"/>
      <point x="103" y="407" type="curve" smooth="yes"/>
      <point x="103" y="384"/>
      <point x="119" y="367"/>
      <point x="143" y="367" type="curve" smooth="yes"/>
      <point x="179" y="367"/>
      <point x="193" y="402"/>
      <point x="226" y="479" type="curve" smooth="yes"/>
      <point x="255" y="546" type="line"/>
      <point x="282" y="480" type="line" smooth="yes"/>
      <point x="314" y="402"/>
      <point x="331" y="367"/>
      <point x="366" y="367" type="curve" smooth="yes"/>
      <point x="389" y="367"/>
      <point x="408" y="384"/>
      <point x="408" y="408" type="curve" smooth="yes"/>
      <point x="408" y="436"/>
      <point x="383" y="460"/>
      <point x="325" y="508" type="curve" smooth="yes"/>
      <point x="269" y="555" type="line"/>
      <point x="339" y="562" type="line" smooth="yes"/>
      <point x="436" y="572"/>
      <point x="475" y="581"/>
      <point x="475" y="619" type="curve" smooth="yes"/>
      <point x="475" y="642"/>
      <point x="457" y="660"/>
      <point x="433" y="660" type="curve" smooth="yes"/>
      <point x="410" y="660"/>
      <point x="378" y="644"/>
      <point x="324" y="611" type="curve" smooth="yes"/>
      <point x="263" y="574" type="line"/>
      <point x="279" y="642" type="line" smooth="yes"/>
      <point x="288" y="680"/>
      <point x="297" y="723"/>
      <point x="297" y="745" type="curve" smooth="yes"/>
      <point x="297" y="772"/>
      <point x="276" y="790"/>
    </contour>
  </outline>
</glyph>
<glyph name="plus.mono" format="2">
  <advance width="600"/>
  <unicode hex="002B"/>
  <outline>
    <contour>
      <point x="233" y="111" type="line"/>
      <point x="366" y="111" type="line"/>
      <point x="366" y="287" type="line"/>
      <point x="530" y="287" type="line"/>
      <point x="530" y="418" type="line"/>
      <point x="366" y="418" type="line"/>
      <point x="366" y="597" type="line"/>
      <point x="233" y="597" type="line"/>
      <point x="233" y="418" type="line"/>
      <point x="70" y="418" type="line"/>
      <point x="70" y="287" type="line"/>
      <point x="233" y="287" type="line"/>
    </contour>
  </outline>
</glyph>
<glyph name="plus.orya" format="2">
  <advance width="572"/>
  <unicode hex="002B"/>
  <outline>
    <contour>
      <point x="43" y="278" type="line"/>
      <point x="232" y="278" type="line"/>
      <point x="232" y="90" type="line"/>
      <point x="339" y="90" type="line"/>
      <point x="339" y="278" type="line"/>
      <point x="528" y="278" type="line"/>
      <point x="528" y="385" type="line"/>
      <point x="339" y="385" type="line"/>
      <point x="339" y="575" type="line"/>
      <point x="232" y="575" type="line"/>
      <point x="232" y="385" type="line"/>
      <point x="43" y="385" type="line"/>
    </contour>
  </outline>
</glyph>
<glyph name="comma.mono" format="2">
  <advance width="600"/>
  <unicode hex="002C"/>
  <outline>
    <contour>
      <point x="184" y="-160" type="curve" smooth="yes"/>
      <point x="322" y="-160" type="line" smooth="yes"/>
      <point x="355" y="-85"/>
      <point x="391" y="69"/>
      <point x="409" y="141" type="curve"/>
      <point x="402" y="153" type="line" smooth="yes"/>
      <point x="233" y="153" type="line"/>
      <point x="224" y="71"/>
      <point x="204" y="-68"/>
    </contour>
  </outline>
</glyph>
<glyph name="comma.orya" format="2">
  <advance width="285"/>
  <unicode hex="002C"/>
  <outline>
    <contour>
      <point x="70" y="69" type="curve"/>
      <point x="122" y="34"/>
      <point x="156" y="7"/>
      <point x="156" y="-10" type="curve" smooth="yes"/>
      <point x="156" y="-29"/>
      <point x="94" y="-119"/>
      <point x="45" y="-176" type="curve"/>
      <point x="72" y="-199" type="line"/>
      <point x="168" y="-112"/>
      <point x="239" y="-16"/>
      <point x="239" y="55" type="curve" smooth="yes"/>
      <point x="239" y="108"/>
      <point x="198" y="157"/>
      <point x="154" y="157" type="curve" smooth="yes"/>
      <point x="115" y="157"/>
      <point x="87" y="115"/>
    </contour>
  </outline>
</glyph>
<glyph name="hyphen.orya" format="2">
  <advance width="342"/>
  <unicode hex="002D"/>
  <outline>
    <contour>
      <point x="40" y="255" type="line"/>
      <point x="302" y="255" type="line"/>
      <point x="302" y="377" type="line"/>
      <point x="40" y="377" type="line"/>
    </contour>
  </outline>
</glyph>
<glyph name="period.mono" format="2">
  <advance width="600"/>
  <unicode hex="002E"/>
  <outline>
    <contour>
      <point x="302" y="-7" type="curve" smooth="yes"/>
      <point x="355" y="-7"/>
      <point x="400" y="19"/>
      <point x="400" y="84" type="curve" smooth="yes"/>
      <point x="400" y="151"/>
      <point x="355" y="176"/>
      <point x="302" y="176" type="curve" smooth="yes"/>
      <point x="247" y="176"/>
      <point x="201" y="151"/>
      <point x="201" y="84" type="curve" smooth="yes"/>
      <point x="201" y="19"/>
      <point x="247" y="-7"/>
    </contour>
  </outline>
</glyph>
<glyph name="period.orya" format="2">
  <advance width="263"/>
  <unicode hex="002E"/>
  <outline>
    <contour>
      <point x="55" y="68" type="curve" smooth="yes"/>
      <point x="55" y="25"/>
      <point x="88" y="-10"/>
      <point x="132" y="-10" type="curve" smooth="yes"/>
      <point x="175" y="-10"/>
      <point x="208" y="25"/>
      <point x="208" y="68" type="curve" smooth="yes"/>
      <point x="208" y="110"/>
      <point x="173" y="148"/>
      <point x="132" y="148" type="curve" smooth="yes"/>
      <point x="89" y="148"/>
      <point x="55" y="110"/>
    </contour>
  </outline>
</glyph>
<glyph name="slash.orya" format="2">
  <advance width="462"/>
  <unicode hex="002F"/>
  <outline>
    <contour>
      <point x="312" y="793" type="line"/>
      <point x="12" y="-179" type="line"/>
      <point x="91" y="-179" type="line"/>
      <point x="389" y="793" type="line"/>
    </contour>
  </outline>
</glyph>
<glyph name="zero" format="2">
  <advance width="572"/>
  <unicode hex="0030"/>
  <outline>
    <contour>
      <point x="535" y="357" type="curve" smooth="yes"/>
      <point x="535" y="589"/>
      <point x="456" y="725"/>
      <point x="285" y="725" type="curve" smooth="yes"/>
      <point x="102" y="725"/>
      <point x="36" y="588"/>
      <point x="36" y="357" type="curve" smooth="yes"/>
      <point x="36" y="127"/>
      <point x="113" y="-10"/>
      <point x="285" y="-10" type="curve" smooth="yes"/>
      <point x="468" y="-10"/>
      <point x="535" y="127"/>
    </contour>
    <contour>
      <point x="186" y="357" type="curve" smooth="yes"/>
      <point x="186" y="520"/>
      <point x="209" y="603"/>
      <point x="285" y="603" type="curve" smooth="yes"/>
      <point x="360" y="603"/>
      <point x="385" y="520"/>
      <point x="385" y="357" type="curve" smooth="yes"/>
      <point x="385" y="193"/>
      <point x="360" y="112"/>
      <point x="285" y="112" type="curve" smooth="yes"/>
      <point x="209" y="112"/>
      <point x="186" y="194"/>
    </contour>
  </outline>
</glyph>
<glyph name="zero.guru" format="2">
  <advance width="569"/>
  <unicode hex="0030"/>
  <outline>
    <contour>
      <point x="285" y="-10" type="curve" smooth="yes"/>
      <point x="472" y="-10"/>
      <point x="538" y="137"/>
      <point x="538" y="358" type="curve" smooth="yes"/>
      <point x="538" y="580"/>
      <point x="472" y="724"/>
      <point x="286" y="724" type="curve" smooth="yes"/>
      <point x="89" y="724"/>
      <point x="31" y="580"/>
      <point x="31" y="359" type="curve" smooth="yes"/>
      <point x="31" y="137"/>
      <point x="89" y="-10"/>
    </contour>
    <contour>
      <point x="285" y="63" type="curve" smooth="yes"/>
      <point x="227" y="63"/>
      <point x="223" y="172"/>
      <point x="223" y="358" type="curve" smooth="yes"/>
      <point x="223" y="544"/>
      <point x="227" y="651"/>
      <point x="286" y="651" type="curve" smooth="yes"/>
      <point x="342" y="651"/>
      <point x="345" y="544"/>
      <point x="345" y="358" type="curve" smooth="yes"/>
      <point x="345" y="172"/>
      <point x="342" y="63"/>
    </contour>
  </outline>
</glyph>
<glyph name="zero.mono" format="2">
  <advance width="600"/>
  <unicode hex="0030"/>
  <outline>
    <contour>
      <point x="299" y="-10" type="curve" smooth="yes"/>
      <point x="499" y="-10"/>
      <point x="560" y="139"/>
      <point x="560" y="356" type="curve" smooth="yes"/>
      <point x="560" y="594"/>
      <point x="475" y="724"/>
      <point x="299" y="724" type="curve" smooth="yes"/>
      <point x="115" y="724"/>
      <point x="40" y="599"/>
      <point x="40" y="356" type="curve" smooth="yes"/>
      <point x="40" y="121"/>
      <point x="124" y="-10"/>
    </contour>
    <contour>
      <point x="201" y="97" type="line"/>
      <point x="460" y="516" type="line"/>
      <point x="385" y="607" type="line"/>
      <point x="125" y="179" type="line"/>
    </contour>
    <contour>
      <point x="299" y="138" type="curve" smooth="yes"/>
      <point x="217" y="138"/>
      <point x="193" y="208"/>
      <point x="193" y="356" type="curve" smooth="yes"/>
      <point x="193" y="503"/>
      <point x="218" y="577"/>
      <point x="299" y="577" type="curve" smooth="yes"/>
      <point x="381" y="577"/>
      <point x="405" y="503"/>
      <point x="405" y="356" type="curve" smooth="yes"/>
      <point x="405" y="207"/>
      <point x="381" y="138"/>
    </contour>
  </outline>
</glyph>
<glyph name="zero.orya" format="2">
  <advance width="521"/>
  <unicode hex="0030"/>
  <outline>
    <contour>
      <point x="261" y="-10" type="curve" smooth="yes"/>
      <point x="422" y="-10"/>
      <point x="487" y="126"/>
      <point x="487" y="330" type="curve" smooth="yes"/>
      <point x="487" y="534"/>
      <point x="422" y="667"/>
      <point x="262" y="667" type="curve" smooth="yes"/>
      <point x="92" y="667"/>
      <point x="34" y="534"/>
      <point x="34" y="330" type="curve" smooth="yes"/>
      <point x="34" y="126"/>
      <point x="92" y="-10"/>
    </contour>
    <contour>
      <point x="261" y="50" type="curve" smooth="yes"/>
      <point x="193" y="50"/>
      <point x="177" y="153"/>
      <point x="177" y="330" type="curve" smooth="yes"/>
      <point x="177" y="506"/>
      <point x="193" y="607"/>
      <point x="262" y="607" type="curve" smooth="yes"/>
      <point x="329" y="607"/>
      <point x="344" y="506"/>
      <point x="344" y="330" type="curve" smooth="yes"/>
      <point x="344" y="153"/>
      <point x="329" y="50"/>
    </contour>
  </outline>
</glyph>
<glyph name="one.guru" format="2">
  <advance width="569"/>
  <unicode hex="0031"/>
  <outline>
    <contour>
      <point x="82" y="0" type="line"/>
      <point x="529" y="0" type="line"/>
      <point x="529" y="61" type="line"/>
      <point x="454" y="61" type="line" smooth="yes"/>
      <point x="415" y="61"/>
      <point x="406" y="94"/>
      <point x="406" y="121" type="curve" smooth="yes"/>
      <point x="406" y="718" type="line"/>
      <point x="259" y="718" type="line"/>
      <point x="189" y="666" type="line" smooth="yes"/>
      <point x="123" y="617"/>
      <point x="69" y="599"/>
      <point x="29" y="589" type="curve"/>
      <point x="29" y="534"/>
      <point x="59" y="500"/>
      <point x="93" y="500" type="curve" smooth="yes"/>
      <point x="133" y="500"/>
      <point x="171" y="542"/>
      <point x="222" y="604" type="curve"/>
      <point x="222" y="121" type="line" smooth="yes"/>
      <point x="222" y="81"/>
      <point x="207" y="61"/>
      <point x="175" y="61" type="curve" smooth="yes"/>
      <point x="82" y="61" type="line"/>
    </contour>
  </outline>
</glyph>
<glyph name="one.mono" format="2">
  <advance width="600"/>
  <unicode hex="0031"/>
  <outline>
    <contour>
      <point x="229" y="365" type="curve" smooth="yes"/>
      <point x="229" y="0" type="line"/>
      <point x="405" y="0" type="line"/>
      <point x="405" y="714" type="line"/>
      <point x="248" y="714" type="line"/>
      <point x="40" y="595" type="line"/>
      <point x="110" y="462" type="line"/>
      <point x="171" y="495" type="line" smooth="yes"/>
      <point x="189" y="505"/>
      <point x="207" y="517"/>
      <point x="231" y="533" type="curve"/>
      <point x="229" y="489"/>
      <point x="229" y="397"/>
    </contour>
    <contour>
      <point x="94" y="0" type="line"/>
      <point x="540" y="0" type="line"/>
      <point x="540" y="130" type="line"/>
      <point x="405" y="142" type="line"/>
      <point x="230" y="142" type="line"/>
      <point x="94" y="130" type="line"/>
    </contour>
  </outline>
</glyph>
<glyph name="one.orya" format="2">
  <advance width="519"/>
  <unicode hex="0031"/>
  <outline>
    <contour>
      <point x="92" y="0" type="line"/>
      <point x="470" y="0" type="line"/>
      <point x="470" y="48" type="line"/>
      <point x="396" y="48" type="line" smooth="yes"/>
      <point x="358" y="48"/>
      <point x="349" y="70"/>
      <point x="349" y="108" type="curve" smooth="yes"/>
      <point x="349" y="657" type="line"/>
      <point x="247" y="657" type="line"/>
      <point x="183" y="609" type="line" smooth="yes"/>
      <point x="123" y="565"/>
      <point x="79" y="548"/>
      <point x="42" y="539" type="curve"/>
      <point x="42" y="498"/>
      <point x="66" y="471"/>
      <point x="95" y="471" type="curve" smooth="yes"/>
      <point x="132" y="471"/>
      <point x="166" y="510"/>
      <point x="213" y="566" type="curve"/>
      <point x="213" y="108" type="line" smooth="yes"/>
      <point x="213" y="62"/>
      <point x="198" y="48"/>
      <point x="167" y="48" type="curve" smooth="yes"/>
      <point x="92" y="48" type="line"/>
    </contour>
  </outline>
</glyph>
<glyph name="two.guru" format="2">
  <advance width="569"/>
  <unicode hex="0032"/>
  <outline>
    <contour>
      <point x="32" y="0" type="line"/>
      <point x="533" y="0" type="line"/>
      <point x="538" y="237" type="line"/>
      <point x="466" y="237" type="line"/>
      <point x="455" y="197" type="line" smooth="yes"/>
      <point x="442" y="149"/>
      <point x="400" y="132"/>
      <point x="373" y="132" type="curve" smooth="yes"/>
      <point x="159" y="132" type="line"/>
      <point x="193" y="159" type="line" smooth="yes"/>
      <point x="478" y="386"/>
      <point x="513" y="456"/>
      <point x="513" y="549" type="curve" smooth="yes"/>
      <point x="513" y="653"/>
      <point x="431" y="724"/>
      <point x="265" y="724" type="curve" smooth="yes"/>
      <point x="106" y="724"/>
      <point x="32" y="646"/>
      <point x="32" y="577" type="curve" smooth="yes"/>
      <point x="32" y="494"/>
      <point x="104" y="473"/>
      <point x="183" y="473" type="curve"/>
      <point x="183" y="613"/>
      <point x="214" y="655"/>
      <point x="265" y="655" type="curve" smooth="yes"/>
      <point x="296" y="655"/>
      <point x="325" y="633"/>
      <point x="325" y="550" type="curve" smooth="yes"/>
      <point x="325" y="446"/>
      <point x="294" y="377"/>
      <point x="162" y="245" type="curve" smooth="yes"/>
      <point x="32" y="115" type="line"/>
    </contour>
  </outline>
</glyph>
<glyph name="two.mono" format="2">
  <advance width="600"/>
  <unicode hex="0032"/>
  <outline>
    <contour>
      <point x="47" y="0" type="line"/>
      <point x="565" y="0" type="line"/>
      <point x="565" y="150" type="line"/>
      <point x="291" y="150" type="line"/>
      <point x="291" y="155" type="line"/>
      <point x="392" y="243" type="line" smooth="yes"/>
      <point x="524" y="358"/>
      <point x="564" y="424"/>
      <point x="564" y="509" type="curve" smooth="yes"/>
      <point x="564" y="653"/>
      <point x="448" y="724"/>
      <point x="302" y="724" type="curve" smooth="yes"/>
      <point x="200" y="724"/>
      <point x="121" y="689"/>
      <point x="40" y="609" type="curve"/>
      <point x="133" y="492" type="line"/>
      <point x="189" y="548"/>
      <point x="231" y="576"/>
      <point x="290" y="576" type="curve" smooth="yes"/>
      <point x="343" y="576"/>
      <point x="378" y="553"/>
      <point x="378" y="499" type="curve" smooth="yes"/>
      <point x="378" y="432"/>
      <point x="326" y="389"/>
      <point x="196" y="265" type="curve" smooth="yes"/>
      <point x="47" y="123" type="line"/>
    </contour>
  </outline>
</glyph>
<glyph name="two.orya" format="2">
  <advance width="521"/>
  <unicode hex="0032"/>
  <outline>
    <contour>
      <point x="35" y="0" type="line"/>
      <point x="471" y="0" type="line"/>
      <point x="475" y="194" type="line"/>
      <point x="421" y="194" type="line"/>
      <point x="414" y="165" type="line"/>
      <point x="403" y="124"/>
      <point x="375" y="101"/>
      <point x="337" y="101" type="curve" smooth="yes"/>
      <point x="123" y="101" type="line"/>
      <point x="215" y="189" type="line"/>
      <point x="399" y="364"/>
      <point x="452" y="429"/>
      <point x="452" y="514" type="curve" smooth="yes"/>
      <point x="452" y="609"/>
      <point x="379" y="667"/>
      <point x="241" y="667" type="curve" smooth="yes"/>
      <point x="107" y="667"/>
      <point x="39" y="609"/>
      <point x="39" y="543" type="curve" smooth="yes"/>
      <point x="39" y="476"/>
      <point x="87" y="452"/>
      <point x="157" y="452" type="curve"/>
      <point x="157" y="557"/>
      <point x="179" y="611"/>
      <point x="241" y="611" type="curve" smooth="yes"/>
      <point x="286" y="611"/>
      <point x="313" y="580"/>
      <point x="313" y="510" type="curve" smooth="yes"/>
      <point x="313" y="415"/>
      <point x="285" y="350"/>
      <point x="171" y="234" type="curve" smooth="yes"/>
      <point x="35" y="95" type="line"/>
    </contour>
  </outline>
</glyph>
<glyph name="three.guru" format="2">
  <advance width="569"/>
  <unicode hex="0033"/>
  <outline>
    <contour>
      <point x="248" y="-10" type="curve" smooth="yes"/>
      <point x="403" y="-10"/>
      <point x="537" y="43"/>
      <point x="537" y="207" type="curve" smooth="yes"/>
      <point x="537" y="310"/>
      <point x="449" y="361"/>
      <point x="364" y="381" type="curve"/>
      <point x="447" y="415"/>
      <point x="512" y="468"/>
      <point x="512" y="558" type="curve" smooth="yes"/>
      <point x="512" y="664"/>
      <point x="419" y="724"/>
      <point x="265" y="724" type="curve" smooth="yes"/>
      <point x="107" y="724"/>
      <point x="34" y="655"/>
      <point x="34" y="588" type="curve" smooth="yes"/>
      <point x="34" y="520"/>
      <point x="91" y="495"/>
      <point x="177" y="495" type="curve"/>
      <point x="177" y="573"/>
      <point x="199" y="655"/>
      <point x="257" y="655" type="curve" smooth="yes"/>
      <point x="294" y="655"/>
      <point x="322" y="612"/>
      <point x="322" y="545" type="curve" smooth="yes"/>
      <point x="322" y="462"/>
      <point x="302" y="404"/>
      <point x="217" y="404" type="curve" smooth="yes"/>
      <point x="136" y="404" type="line"/>
      <point x="136" y="334" type="line"/>
      <point x="210" y="334" type="line" smooth="yes"/>
      <point x="301" y="334"/>
      <point x="346" y="279"/>
      <point x="346" y="208" type="curve" smooth="yes"/>
      <point x="346" y="97"/>
      <point x="297" y="72"/>
      <point x="242" y="72" type="curve" smooth="yes"/>
      <point x="175" y="72"/>
      <point x="122" y="119"/>
      <point x="122" y="215" type="curve"/>
      <point x="70" y="215"/>
      <point x="21" y="186"/>
      <point x="21" y="127" type="curve" smooth="yes"/>
      <point x="21" y="48"/>
      <point x="83" y="-10"/>
    </contour>
  </outline>
</glyph>
<glyph name="three.mono" format="2">
  <advance width="600"/>
  <unicode hex="0033"/>
  <outline>
    <contour>
      <point x="256" y="-9" type="curve" smooth="yes"/>
      <point x="425" y="-9"/>
      <point x="540" y="79"/>
      <point x="540" y="208" type="curve" smooth="yes"/>
      <point x="540" y="307"/>
      <point x="473" y="352"/>
      <point x="395" y="367" type="curve"/>
      <point x="395" y="370" type="line"/>
      <point x="457" y="397"/>
      <point x="518" y="451"/>
      <point x="518" y="549" type="curve" smooth="yes"/>
      <point x="518" y="663"/>
      <point x="435" y="724"/>
      <point x="294" y="724" type="curve" smooth="yes"/>
      <point x="202" y="724"/>
      <point x="123" y="698"/>
      <point x="60" y="655" type="curve"/>
      <point x="131" y="534" type="line"/>
      <point x="174" y="559"/>
      <point x="230" y="579"/>
      <point x="278" y="579" type="curve" smooth="yes"/>
      <point x="323" y="579"/>
      <point x="356" y="562"/>
      <point x="356" y="511" type="curve" smooth="yes"/>
      <point x="356" y="456"/>
      <point x="317" y="431"/>
      <point x="194" y="431" type="curve" smooth="yes"/>
      <point x="153" y="431" type="line"/>
      <point x="153" y="289" type="line"/>
      <point x="193" y="289" type="line" smooth="yes"/>
      <point x="327" y="289"/>
      <point x="364" y="265"/>
      <point x="364" y="214" type="curve" smooth="yes"/>
      <point x="364" y="162"/>
      <point x="326" y="130"/>
      <point x="252" y="130" type="curve" smooth="yes"/>
      <point x="199" y="130"/>
      <point x="124" y="147"/>
      <point x="62" y="177" type="curve"/>
      <point x="62" y="28" type="line"/>
      <point x="129" y="2"/>
      <point x="196" y="-9"/>
    </contour>
  </outline>
</glyph>
<glyph name="three.orya" format="2">
  <advance width="521"/>
  <unicode hex="0033"/>
  <outline>
    <contour>
      <point x="226" y="-10" type="curve" smooth="yes"/>
      <point x="353" y="-10"/>
      <point x="475" y="39"/>
      <point x="475" y="189" type="curve" smooth="yes"/>
      <point x="475" y="295"/>
      <point x="385" y="337"/>
      <point x="311" y="351" type="curve"/>
      <point x="391" y="377"/>
      <point x="452" y="433"/>
      <point x="452" y="516" type="curve" smooth="yes"/>
      <point x="452" y="612"/>
      <point x="370" y="667"/>
      <point x="239" y="667" type="curve" smooth="yes"/>
      <point x="105" y="667"/>
      <point x="35" y="615"/>
      <point x="35" y="550" type="curve" smooth="yes"/>
      <point x="35" y="493"/>
      <point x="79" y="468"/>
      <point x="155" y="468" type="curve"/>
      <point x="155" y="540"/>
      <point x="168" y="611"/>
      <point x="235" y="611" type="curve" smooth="yes"/>
      <point x="284" y="611"/>
      <point x="311" y="570"/>
      <point x="311" y="504" type="curve" smooth="yes"/>
      <point x="311" y="422"/>
      <point x="273" y="368"/>
      <point x="194" y="368" type="curve" smooth="yes"/>
      <point x="133" y="368" type="line"/>
      <point x="133" y="311" type="line"/>
      <point x="190" y="311" type="line" smooth="yes"/>
      <point x="282" y="311"/>
      <point x="333" y="260"/>
      <point x="333" y="190" type="curve" smooth="yes"/>
      <point x="333" y="84"/>
      <point x="280" y="55"/>
      <point x="220" y="55" type="curve" smooth="yes"/>
      <point x="152" y="55"/>
      <point x="106" y="94"/>
      <point x="106" y="173" type="curve"/>
      <point x="64" y="173"/>
      <point x="28" y="148"/>
      <point x="28" y="101" type="curve" smooth="yes"/>
      <point x="28" y="43"/>
      <point x="87" y="-10"/>
    </contour>
  </outline>
</glyph>
<glyph name="four.guru" format="2">
  <advance width="569"/>
  <unicode hex="0034"/>
  <outline>
    <contour>
      <point x="159" y="0" type="line"/>
      <point x="547" y="0" type="line"/>
      <point x="547" y="61" type="line"/>
      <point x="534" y="61" type="line" smooth="yes"/>
      <point x="489" y="61"/>
      <point x="452" y="70"/>
      <point x="452" y="133" type="curve" smooth="yes"/>
      <point x="452" y="179" type="line"/>
      <point x="541" y="179" type="line"/>
      <point x="541" y="252" type="line"/>
      <point x="452" y="252" type="line"/>
      <point x="452" y="714" type="line"/>
      <point x="281" y="714" type="line"/>
      <point x="15" y="254" type="line"/>
      <point x="15" y="179" type="line"/>
      <point x="269" y="179" type="line"/>
      <point x="269" y="133" type="line" smooth="yes"/>
      <point x="269" y="70"/>
      <point x="232" y="61"/>
      <point x="187" y="61" type="curve" smooth="yes"/>
      <point x="159" y="61" type="line"/>
    </contour>
    <contour>
      <point x="98" y="252" type="line"/>
      <point x="210" y="460" type="line" smooth="yes"/>
      <point x="219" y="477"/>
      <point x="264" y="567"/>
      <point x="277" y="601" type="curve"/>
      <point x="272" y="539"/>
      <point x="270" y="478"/>
      <point x="270" y="420" type="curve" smooth="yes"/>
      <point x="270" y="252" type="line"/>
    </contour>
  </outline>
</glyph>
<glyph name="four.mono" format="2">
  <advance width="600"/>
  <unicode hex="0034"/>
  <outline>
    <contour>
      <point x="315" y="0" type="line"/>
      <point x="481" y="0" type="line"/>
      <point x="481" y="142" type="line"/>
      <point x="570" y="142" type="line"/>
      <point x="570" y="279" type="line"/>
      <point x="481" y="279" type="line"/>
      <point x="481" y="714" type="line"/>
      <point x="317" y="714" type="line"/>
      <point x="30" y="276" type="line"/>
      <point x="30" y="142" type="line"/>
      <point x="315" y="142" type="line"/>
    </contour>
    <contour>
      <point x="180" y="279" type="line"/>
      <point x="263" y="410" type="line" smooth="yes"/>
      <point x="276" y="431"/>
      <point x="295" y="459"/>
      <point x="311" y="488" type="curve"/>
      <point x="316" y="488" type="line"/>
      <point x="315" y="442"/>
      <point x="315" y="397"/>
      <point x="315" y="376" type="curve" smooth="yes"/>
      <point x="315" y="279" type="line"/>
    </contour>
  </outline>
</glyph>
<glyph name="four.orya" format="2">
  <advance width="517"/>
  <unicode hex="0034"/>
  <outline>
    <contour>
      <point x="167" y="0" type="line"/>
      <point x="490" y="0" type="line"/>
      <point x="490" y="49" type="line"/>
      <point x="478" y="49" type="line" smooth="yes"/>
      <point x="436" y="49"/>
      <point x="402" y="57"/>
      <point x="402" y="115" type="curve" smooth="yes"/>
      <point x="402" y="171" type="line"/>
      <point x="498" y="171" type="line"/>
      <point x="498" y="232" type="line"/>
      <point x="402" y="232" type="line"/>
      <point x="402" y="657" type="line"/>
      <point x="274" y="657" type="line"/>
      <point x="13" y="227" type="line"/>
      <point x="13" y="171" type="line"/>
      <point x="268" y="171" type="line"/>
      <point x="268" y="115" type="line" smooth="yes"/>
      <point x="268" y="57"/>
      <point x="234" y="49"/>
      <point x="192" y="49" type="curve" smooth="yes"/>
      <point x="167" y="49" type="line"/>
    </contour>
    <contour>
      <point x="77" y="232" type="line"/>
      <point x="202" y="437" type="line" smooth="yes"/>
      <point x="215" y="460"/>
      <point x="262" y="541"/>
      <point x="274" y="570" type="curve"/>
      <point x="270" y="513"/>
      <point x="268" y="446"/>
      <point x="268" y="393" type="curve" smooth="yes"/>
      <point x="268" y="232" type="line"/>
    </contour>
  </outline>
</glyph>
<glyph name="five.guru" format="2">
  <advance width="569"/>
  <unicode hex="0035"/>
  <outline>
    <contour>
      <point x="251" y="-10" type="curve" smooth="yes"/>
      <point x="348" y="-10"/>
      <point x="526" y="21"/>
      <point x="526" y="221" type="curve" smooth="yes"/>
      <point x="526" y="366"/>
      <point x="423" y="438"/>
      <point x="249" y="438" type="curve" smooth="yes"/>
      <point x="221" y="438"/>
      <point x="166" y="432"/>
      <point x="144" y="423" type="curve"/>
      <point x="158" y="582" type="line"/>
      <point x="376" y="582" type="line" smooth="yes"/>
      <point x="401" y="582"/>
      <point x="411" y="568"/>
      <point x="417" y="546" type="curve" smooth="yes"/>
      <point x="427" y="509" type="line"/>
      <point x="496" y="509" type="line"/>
      <point x="491" y="714" type="line"/>
      <point x="96" y="714" type="line"/>
      <point x="64" y="375" type="line"/>
      <point x="110" y="349" type="line"/>
      <point x="144" y="356"/>
      <point x="175" y="364"/>
      <point x="212" y="364" type="curve" smooth="yes"/>
      <point x="294" y="364"/>
      <point x="337" y="318"/>
      <point x="337" y="221" type="curve" smooth="yes"/>
      <point x="337" y="101"/>
      <point x="283" y="68"/>
      <point x="228" y="68" type="curve" smooth="yes"/>
      <point x="146" y="68"/>
      <point x="127" y="145"/>
      <point x="127" y="202" type="curve"/>
      <point x="75" y="202"/>
      <point x="34" y="178"/>
      <point x="34" y="126" type="curve" smooth="yes"/>
      <point x="34" y="51"/>
      <point x="99" y="-10"/>
    </contour>
  </outline>
</glyph>
<glyph name="five.mono" format="2">
  <advance width="600"/>
  <unicode hex="0035"/>
  <outline>
    <contour>
      <point x="251" y="-10" type="curve" smooth="yes"/>
      <point x="430" y="-10"/>
      <point x="544" y="76"/>
      <point x="544" y="245" type="curve" smooth="yes"/>
      <point x="544" y="380"/>
      <point x="472" y="468"/>
      <point x="338" y="468" type="curve" smooth="yes"/>
      <point x="313" y="468"/>
      <point x="287" y="465"/>
      <point x="254" y="459" type="curve"/>
      <point x="262" y="564" type="line"/>
      <point x="501" y="564" type="line"/>
      <point x="501" y="714" type="line"/>
      <point x="90" y="714" type="line"/>
      <point x="66" y="341" type="line"/>
      <point x="128" y="306" type="line"/>
      <point x="161" y="316"/>
      <point x="205" y="323"/>
      <point x="240" y="323" type="curve" smooth="yes"/>
      <point x="317" y="323"/>
      <point x="360" y="289"/>
      <point x="360" y="232" type="curve" smooth="yes"/>
      <point x="360" y="171"/>
      <point x="316" y="138"/>
      <point x="247" y="138" type="curve" smooth="yes"/>
      <point x="172" y="138"/>
      <point x="108" y="160"/>
      <point x="55" y="183" type="curve"/>
      <point x="55" y="28" type="line"/>
      <point x="112" y="3"/>
      <point x="181" y="-10"/>
    </contour>
  </outline>
</glyph>
<glyph name="five.orya" format="2">
  <advance width="522"/>
  <unicode hex="0035"/>
  <outline>
    <contour>
      <point x="229" y="-10" type="curve" smooth="yes"/>
      <point x="340" y="-10"/>
      <point x="469" y="43"/>
      <point x="469" y="202" type="curve" smooth="yes"/>
      <point x="469" y="334"/>
      <point x="376" y="399"/>
      <point x="233" y="399" type="curve" smooth="yes"/>
      <point x="196" y="399"/>
      <point x="151" y="393"/>
      <point x="132" y="385" type="curve"/>
      <point x="147" y="556" type="line"/>
      <point x="338" y="556" type="line" smooth="yes"/>
      <point x="368" y="556"/>
      <point x="375" y="543"/>
      <point x="381" y="521" type="curve" smooth="yes"/>
      <point x="388" y="489" type="line"/>
      <point x="441" y="489" type="line"/>
      <point x="436" y="657" type="line"/>
      <point x="88" y="657" type="line"/>
      <point x="58" y="338" type="line"/>
      <point x="101" y="322" type="line"/>
      <point x="128" y="330"/>
      <point x="156" y="338"/>
      <point x="203" y="338" type="curve" smooth="yes"/>
      <point x="282" y="338"/>
      <point x="328" y="294"/>
      <point x="328" y="202" type="curve" smooth="yes"/>
      <point x="328" y="89"/>
      <point x="276" y="54"/>
      <point x="215" y="54" type="curve" smooth="yes"/>
      <point x="139" y="54"/>
      <point x="114" y="113"/>
      <point x="114" y="165" type="curve"/>
      <point x="69" y="165"/>
      <point x="40" y="144"/>
      <point x="40" y="101" type="curve" smooth="yes"/>
      <point x="40" y="44"/>
      <point x="91" y="-10"/>
    </contour>
  </outline>
</glyph>
<glyph name="six.mono" format="2">
  <advance width="600"/>
  <unicode hex="0036"/>
  <outline>
    <contour>
      <point x="309" y="-10" type="curve" smooth="yes"/>
      <point x="455" y="-10"/>
      <point x="554" y="87"/>
      <point x="554" y="244" type="curve" smooth="yes"/>
      <point x="554" y="391"/>
      <point x="479" y="476"/>
      <point x="362" y="476" type="curve" smooth="yes"/>
      <point x="294" y="476"/>
      <point x="242" y="444"/>
      <point x="218" y="393" type="curve"/>
      <point x="213" y="393" type="line"/>
      <point x="220" y="517"/>
      <point x="288" y="579"/>
      <point x="410" y="579" type="curve" smooth="yes"/>
      <point x="440" y="579"/>
      <point x="475" y="576"/>
      <point x="509" y="570" type="curve"/>
      <point x="509" y="716" type="line"/>
      <point x="472" y="721"/>
      <point x="425" y="724"/>
      <point x="390" y="724" type="curve" smooth="yes"/>
      <point x="109" y="724"/>
      <point x="45" y="512"/>
      <point x="45" y="302" type="curve" smooth="yes"/>
      <point x="45" y="97"/>
      <point x="153" y="-10"/>
    </contour>
    <contour>
      <point x="305" y="139" type="curve" smooth="yes"/>
      <point x="257" y="139"/>
      <point x="227" y="174"/>
      <point x="227" y="233" type="curve" smooth="yes"/>
      <point x="227" y="286"/>
      <point x="253" y="332"/>
      <point x="307" y="332" type="curve" smooth="yes"/>
      <point x="356" y="332"/>
      <point x="375" y="297"/>
      <point x="375" y="235" type="curve" smooth="yes"/>
      <point x="375" y="168"/>
      <point x="345" y="139"/>
    </contour>
  </outline>
</glyph>
<glyph name="six.orya" format="2">
  <advance width="522"/>
  <unicode hex="0036"/>
  <outline>
    <contour>
      <point x="273" y="-10" type="curve" smooth="yes"/>
      <point x="413" y="-10"/>
      <point x="487" y="80"/>
      <point x="487" y="212" type="curve" smooth="yes"/>
      <point x="487" y="332"/>
      <point x="413" y="404"/>
      <point x="302" y="404" type="curve" smooth="yes"/>
      <point x="239" y="404"/>
      <point x="200" y="386"/>
      <point x="175" y="368" type="curve"/>
      <point x="182" y="525"/>
      <point x="226" y="613"/>
      <point x="299" y="613" type="curve" smooth="yes"/>
      <point x="348" y="613"/>
      <point x="360" y="549"/>
      <point x="360" y="494" type="curve"/>
      <point x="442" y="494"/>
      <point x="471" y="528"/>
      <point x="471" y="566" type="curve" smooth="yes"/>
      <point x="471" y="618"/>
      <point x="426" y="667"/>
      <point x="307" y="667" type="curve" smooth="yes"/>
      <point x="130" y="667"/>
      <point x="45" y="507"/>
      <point x="45" y="303" type="curve" smooth="yes"/>
      <point x="45" y="89"/>
      <point x="137" y="-10"/>
    </contour>
    <contour>
      <point x="276" y="51" type="curve" smooth="yes"/>
      <point x="220" y="51"/>
      <point x="176" y="125"/>
      <point x="175" y="302" type="curve"/>
      <point x="190" y="323"/>
      <point x="235" y="346"/>
      <point x="268" y="346" type="curve"/>
      <point x="320" y="346"/>
      <point x="353" y="302"/>
      <point x="353" y="203" type="curve" smooth="yes"/>
      <point x="353" y="97"/>
      <point x="323" y="51"/>
    </contour>
  </outline>
</glyph>
<glyph name="seven.guru" format="2">
  <advance width="569"/>
  <unicode hex="0037"/>
  <outline>
    <contour>
      <point x="146" y="0" type="line"/>
      <point x="258" y="0" type="line"/>
      <point x="526" y="650" type="line"/>
      <point x="526" y="714" type="line"/>
      <point x="51" y="714" type="line"/>
      <point x="46" y="482" type="line"/>
      <point x="119" y="482" type="line"/>
      <point x="127" y="532" type="line" smooth="yes"/>
      <point x="132" y="565"/>
      <point x="149" y="583"/>
      <point x="185" y="583" type="curve" smooth="yes"/>
      <point x="424" y="583" type="line"/>
    </contour>
  </outline>
</glyph>
<glyph name="seven.mono" format="2">
  <advance width="600"/>
  <unicode hex="0037"/>
  <outline>
    <contour>
      <point x="119" y="0" type="line"/>
      <point x="307" y="0" type="line"/>
      <point x="560" y="599" type="line"/>
      <point x="560" y="714" type="line"/>
      <point x="40" y="714" type="line"/>
      <point x="40" y="564" type="line"/>
      <point x="373" y="564" type="line"/>
    </contour>
  </outline>
</glyph>
<glyph name="seven.orya" format="2">
  <advance width="521"/>
  <unicode hex="0037"/>
  <outline>
    <contour>
      <point x="155" y="0" type="line"/>
      <point x="234" y="0" type="line"/>
      <point x="488" y="612" type="line"/>
      <point x="488" y="657" type="line"/>
      <point x="49" y="657" type="line"/>
      <point x="44" y="464" type="line"/>
      <point x="99" y="464" type="line"/>
      <point x="105" y="510" type="line" smooth="yes"/>
      <point x="108" y="540"/>
      <point x="125" y="557"/>
      <point x="158" y="557" type="curve"/>
      <point x="400" y="557" type="line"/>
    </contour>
  </outline>
</glyph>
<glyph name="seven.serif" format="2">
  <advance width="569"/>
  <unicode hex="0037"/>
  <outline>
    <contour>
      <point x="97" y="0" type="line"/>
      <point x="258" y="0" type="line"/>
      <point x="526" y="650" type="line"/>
      <point x="526" y="714" type="line"/>
      <point x="51" y="714" type="line"/>
      <point x="46" y="482" type="line"/>
      <point x="119" y="482" type="line"/>
      <point x="127" y="532" type="line" smooth="yes"/>
      <point x="132" y="565"/>
      <point x="149" y="583"/>
      <point x="185" y="583" type="curve"/>
      <point x="375" y="583" type="line"/>
    </contour>
  </outline>
</glyph>
<glyph name="eight.guru" format="2">
  <advance width="569"/>
  <unicode hex="0038"/>
  <outline>
    <contour>
      <point x="278" y="-10" type="curve" smooth="yes"/>
      <point x="450" y="-10"/>
      <point x="546" y="72"/>
      <point x="546" y="188" type="curve" smooth="yes"/>
      <point x="546" y="284"/>
      <point x="504" y="335"/>
      <point x="388" y="394" type="curve"/>
      <point x="472" y="430"/>
      <point x="521" y="474"/>
      <point x="521" y="561" type="curve" smooth="yes"/>
      <point x="521" y="649"/>
      <point x="445" y="724"/>
      <point x="292" y="724" type="curve" smooth="yes"/>
      <point x="115" y="724"/>
      <point x="46" y="641"/>
      <point x="46" y="540" type="curve" smooth="yes"/>
      <point x="46" y="450"/>
      <point x="97" y="401"/>
      <point x="176" y="359" type="curve"/>
      <point x="89" y="329"/>
      <point x="23" y="279"/>
      <point x="23" y="174" type="curve" smooth="yes"/>
      <point x="23" y="77"/>
      <point x="98" y="-10"/>
    </contour>
    <contour>
      <point x="315" y="430" type="curve"/>
      <point x="259" y="455"/>
      <point x="222" y="495"/>
      <point x="222" y="562" type="curve" smooth="yes"/>
      <point x="222" y="622"/>
      <point x="244" y="658"/>
      <point x="289" y="658" type="curve" smooth="yes"/>
      <point x="334" y="658"/>
      <point x="362" y="615"/>
      <point x="362" y="556" type="curve" smooth="yes"/>
      <point x="362" y="486"/>
      <point x="340" y="450"/>
    </contour>
    <contour>
      <point x="283" y="57" type="curve" smooth="yes"/>
      <point x="230" y="57"/>
      <point x="186" y="96"/>
      <point x="186" y="185" type="curve" smooth="yes"/>
      <point x="186" y="247"/>
      <point x="206" y="288"/>
      <point x="240" y="318" type="curve"/>
      <point x="318" y="278"/>
      <point x="365" y="229"/>
      <point x="365" y="166" type="curve" smooth="yes"/>
      <point x="365" y="96"/>
      <point x="331" y="57"/>
    </contour>
  </outline>
</glyph>
<glyph name="eight.mono" format="2">
  <advance width="600"/>
  <unicode hex="0038"/>
  <outline>
    <contour>
      <point x="294" y="-10" type="curve" smooth="yes"/>
      <point x="463" y="-10"/>
      <point x="549" y="69"/>
      <point x="549" y="183" type="curve" smooth="yes"/>
      <point x="549" y="272"/>
      <point x="493" y="326"/>
      <point x="405" y="375" type="curve"/>
      <point x="488" y="414"/>
      <point x="535" y="469"/>
      <point x="535" y="550" type="curve" smooth="yes"/>
      <point x="535" y="664"/>
      <point x="444" y="724"/>
      <point x="300" y="724" type="curve" smooth="yes"/>
      <point x="157" y="724"/>
      <point x="72" y="664"/>
      <point x="72" y="551" type="curve" smooth="yes"/>
      <point x="72" y="475"/>
      <point x="110" y="419"/>
      <point x="173" y="373" type="curve"/>
      <point x="96" y="330"/>
      <point x="49" y="276"/>
      <point x="49" y="188" type="curve" smooth="yes"/>
      <point x="49" y="66"/>
      <point x="130" y="-10"/>
    </contour>
    <contour>
      <point x="299" y="126" type="curve" smooth="yes"/>
      <point x="244" y="126"/>
      <point x="216" y="147"/>
      <point x="216" y="194" type="curve" smooth="yes"/>
      <point x="216" y="234"/>
      <point x="250" y="264"/>
      <point x="292" y="291" type="curve"/>
      <point x="339" y="259"/>
      <point x="383" y="236"/>
      <point x="383" y="190" type="curve" smooth="yes"/>
      <point x="383" y="149"/>
      <point x="347" y="126"/>
    </contour>
    <contour>
      <point x="299" y="458" type="curve"/>
      <point x="263" y="481"/>
      <point x="239" y="501"/>
      <point x="239" y="536" type="curve" smooth="yes"/>
      <point x="239" y="568"/>
      <point x="264" y="589"/>
      <point x="303" y="589" type="curve" smooth="yes"/>
      <point x="334" y="589"/>
      <point x="366" y="573"/>
      <point x="366" y="536" type="curve" smooth="yes"/>
      <point x="366" y="502"/>
      <point x="339" y="481"/>
    </contour>
  </outline>
</glyph>
<glyph name="eight.orya" format="2">
  <advance width="520"/>
  <unicode hex="0038"/>
  <outline>
    <contour>
      <point x="254" y="-10" type="curve" smooth="yes"/>
      <point x="403" y="-10"/>
      <point x="490" y="57"/>
      <point x="490" y="173" type="curve" smooth="yes"/>
      <point x="490" y="248"/>
      <point x="448" y="303"/>
      <point x="337" y="356" type="curve"/>
      <point x="414" y="396"/>
      <point x="462" y="432"/>
      <point x="462" y="505" type="curve" smooth="yes"/>
      <point x="462" y="598"/>
      <point x="395" y="667"/>
      <point x="265" y="667" type="curve" smooth="yes"/>
      <point x="106" y="667"/>
      <point x="51" y="585"/>
      <point x="51" y="499" type="curve" smooth="yes"/>
      <point x="51" y="427"/>
      <point x="92" y="375"/>
      <point x="165" y="332" type="curve"/>
      <point x="84" y="292"/>
      <point x="30" y="246"/>
      <point x="30" y="167" type="curve"/>
      <point x="30" y="69"/>
      <point x="100" y="-10"/>
    </contour>
    <contour>
      <point x="280" y="388" type="curve"/>
      <point x="216" y="417"/>
      <point x="181" y="447"/>
      <point x="181" y="510" type="curve" smooth="yes"/>
      <point x="181" y="569"/>
      <point x="209" y="613"/>
      <point x="259" y="613" type="curve" smooth="yes"/>
      <point x="316" y="613"/>
      <point x="346" y="560"/>
      <point x="346" y="507" type="curve"/>
      <point x="346" y="447"/>
      <point x="326" y="413"/>
    </contour>
    <contour>
      <point x="258" y="42" type="curve"/>
      <point x="196" y="42"/>
      <point x="154" y="91"/>
      <point x="154" y="163" type="curve" smooth="yes"/>
      <point x="154" y="227"/>
      <point x="186" y="269"/>
      <point x="227" y="296" type="curve"/>
      <point x="323" y="251"/>
      <point x="362" y="217"/>
      <point x="362" y="157" type="curve" smooth="yes"/>
      <point x="362" y="90"/>
      <point x="322" y="42"/>
    </contour>
  </outline>
</glyph>
<glyph name="nine.mono" format="2">
  <advance width="600"/>
  <unicode hex="0039"/>
  <outline>
    <contour>
      <point x="208" y="-10" type="curve" smooth="yes"/>
      <point x="491" y="-10"/>
      <point x="555" y="202"/>
      <point x="555" y="412" type="curve" smooth="yes"/>
      <point x="555" y="617"/>
      <point x="447" y="724"/>
      <point x="291" y="724" type="curve" smooth="yes"/>
      <point x="141" y="724"/>
      <point x="45" y="627"/>
      <point x="45" y="470" type="curve" smooth="yes"/>
      <point x="45" y="323"/>
      <point x="123" y="238"/>
      <point x="238" y="238" type="curve" smooth="yes"/>
      <point x="303" y="238"/>
      <point x="358" y="270"/>
      <point x="382" y="321" type="curve"/>
      <point x="387" y="321" type="line"/>
      <point x="380" y="197"/>
      <point x="311" y="135"/>
      <point x="188" y="135" type="curve" smooth="yes"/>
      <point x="158" y="135"/>
      <point x="123" y="138"/>
      <point x="89" y="144" type="curve"/>
      <point x="89" y="-2" type="line"/>
      <point x="126" y="-7"/>
      <point x="173" y="-10"/>
    </contour>
    <contour>
      <point x="293" y="382" type="curve" smooth="yes"/>
      <point x="246" y="382"/>
      <point x="223" y="417"/>
      <point x="223" y="479" type="curve" smooth="yes"/>
      <point x="223" y="546"/>
      <point x="254" y="575"/>
      <point x="295" y="575" type="curve" smooth="yes"/>
      <point x="343" y="575"/>
      <point x="372" y="536"/>
      <point x="372" y="481" type="curve" smooth="yes"/>
      <point x="372" y="428"/>
      <point x="346" y="382"/>
    </contour>
  </outline>
</glyph>
<glyph name="nine.orya" format="2">
  <advance width="522"/>
  <unicode hex="0039"/>
  <outline>
    <contour>
      <point x="212" y="-10" type="curve" smooth="yes"/>
      <point x="401" y="-10"/>
      <point x="477" y="154"/>
      <point x="477" y="357" type="curve" smooth="yes"/>
      <point x="477" y="574"/>
      <point x="380" y="667"/>
      <point x="246" y="667" type="curve" smooth="yes"/>
      <point x="114" y="667"/>
      <point x="35" y="577"/>
      <point x="35" y="444" type="curve" smooth="yes"/>
      <point x="35" y="319"/>
      <point x="110" y="253"/>
      <point x="216" y="253" type="curve" smooth="yes"/>
      <point x="278" y="253"/>
      <point x="319" y="280"/>
      <point x="347" y="316" type="curve"/>
      <point x="340" y="139"/>
      <point x="298" y="48"/>
      <point x="217" y="48" type="curve" smooth="yes"/>
      <point x="155" y="48"/>
      <point x="124" y="91"/>
      <point x="106" y="147" type="curve"/>
      <point x="75" y="140"/>
      <point x="61" y="121"/>
      <point x="61" y="94" type="curve" smooth="yes"/>
      <point x="61" y="42"/>
      <point x="101" y="-10"/>
    </contour>
    <contour>
      <point x="256" y="319" type="curve" smooth="yes"/>
      <point x="198" y="319"/>
      <point x="169" y="365"/>
      <point x="169" y="450" type="curve" smooth="yes"/>
      <point x="169" y="553"/>
      <point x="199" y="605"/>
      <point x="252" y="605" type="curve" smooth="yes"/>
      <point x="308" y="605"/>
      <point x="345" y="538"/>
      <point x="347" y="381" type="curve"/>
      <point x="329" y="344"/>
      <point x="298" y="319"/>
    </contour>
  </outline>
</glyph>
<glyph name="colon.mono" format="2">
  <advance width="600"/>
  <unicode hex="003A"/>
  <outline>
    <contour>
      <point x="302" y="376" type="curve" smooth="yes"/>
      <point x="355" y="376"/>
      <point x="400" y="402"/>
      <point x="400" y="467" type="curve" smooth="yes"/>
      <point x="400" y="534"/>
      <point x="355" y="559"/>
      <point x="302" y="559" type="curve" smooth="yes"/>
      <point x="247" y="559"/>
      <point x="201" y="534"/>
      <point x="201" y="467" type="curve" smooth="yes"/>
      <point x="201" y="402"/>
      <point x="247" y="376"/>
    </contour>
    <contour>
      <point x="302" y="-7" type="curve" smooth="yes"/>
      <point x="355" y="-7"/>
      <point x="400" y="19"/>
      <point x="400" y="84" type="curve" smooth="yes"/>
      <point x="400" y="151"/>
      <point x="355" y="176"/>
      <point x="302" y="176" type="curve" smooth="yes"/>
      <point x="247" y="176"/>
      <point x="201" y="151"/>
      <point x="201" y="84" type="curve" smooth="yes"/>
      <point x="201" y="19"/>
      <point x="247" y="-7"/>
    </contour>
  </outline>
</glyph>
<glyph name="colon.serif" format="2">
  <advance width="317"/>
  <unicode hex="003A"/>
  <outline>
    <contour>
      <point x="158" y="370" type="curve" smooth="yes"/>
      <point x="209" y="370"/>
      <point x="254" y="392"/>
      <point x="254" y="459" type="curve" smooth="yes"/>
      <point x="254" y="527"/>
      <point x="209" y="548"/>
      <point x="158" y="548" type="curve" smooth="yes"/>
      <point x="104" y="548"/>
      <point x="62" y="527"/>
      <point x="62" y="459" type="curve" smooth="yes"/>
      <point x="62" y="392"/>
      <point x="104" y="370"/>
    </contour>
    <contour>
      <point x="158" y="-9" type="curve" smooth="yes"/>
      <point x="209" y="-9"/>
      <point x="254" y="13"/>
      <point x="254" y="80" type="curve" smooth="yes"/>
      <point x="254" y="148"/>
      <point x="209" y="169"/>
      <point x="158" y="169" type="curve" smooth="yes"/>
      <point x="104" y="169"/>
      <point x="62" y="148"/>
      <point x="62" y="80" type="curve" smooth="yes"/>
      <point x="62" y="13"/>
      <point x="104" y="-9"/>
    </contour>
  </outline>
</glyph>
<glyph name="semicolon.mono" format="2">
  <advance width="600"/>
  <unicode hex="003B"/>
  <outline>
    <contour>
      <point x="176" y="-161" type="curve" smooth="yes"/>
      <point x="314" y="-161" type="line" smooth="yes"/>
      <point x="347" y="-86"/>
      <point x="383" y="68"/>
      <point x="401" y="140" type="curve"/>
      <point x="394" y="152" type="line" smooth="yes"/>
      <point x="225" y="152" type="line"/>
      <point x="216" y="70"/>
      <point x="196" y="-69"/>
    </contour>
    <contour>
      <point x="319" y="375" type="curve" smooth="yes"/>
      <point x="373" y="375"/>
      <point x="419" y="402"/>
      <point x="419" y="468" type="curve" smooth="yes"/>
      <point x="419" y="537"/>
      <point x="373" y="562"/>
      <point x="319" y="562" type="curve" smooth="yes"/>
      <point x="262" y="562"/>
      <point x="215" y="537"/>
      <point x="215" y="468" type="curve" smooth="yes"/>
      <point x="215" y="402"/>
      <point x="262" y="375"/>
    </contour>
  </outline>
</glyph>
<glyph name="less.orya" format="2">
  <advance width="572"/>
  <unicode hex="003C"/>
  <outline>
    <contour>
      <point x="528" y="78" type="line"/>
      <point x="528" y="195" type="line"/>
      <point x="194" y="332" type="line"/>
      <point x="528" y="487" type="line"/>
      <point x="528" y="604" type="line"/>
      <point x="43" y="362" type="line"/>
      <point x="43" y="292" type="line"/>
    </contour>
  </outline>
</glyph>
<glyph name="equal.guru" format="2">
  <advance width="569"/>
  <unicode hex="003D"/>
  <outline>
    <contour>
      <point x="57" y="424" type="line"/>
      <point x="513" y="424" type="line"/>
      <point x="513" y="502" type="line"/>
      <point x="57" y="502" type="line"/>
    </contour>
    <contour>
      <point x="57" y="212" type="line"/>
      <point x="513" y="212" type="line"/>
      <point x="513" y="290" type="line"/>
      <point x="57" y="290" type="line"/>
    </contour>
  </outline>
</glyph>
<glyph name="equal.mono" format="2">
  <advance width="600"/>
  <unicode hex="003D"/>
  <outline>
    <contour>
      <point x="70" y="389" type="line"/>
      <point x="530" y="389" type="line"/>
      <point x="530" y="529" type="line"/>
      <point x="70" y="529" type="line"/>
    </contour>
    <contour>
      <point x="70" y="156" type="line"/>
      <point x="530" y="156" type="line"/>
      <point x="530" y="296" type="line"/>
      <point x="70" y="296" type="line"/>
    </contour>
  </outline>
</glyph>
<glyph name="equal.orya" format="2">
  <advance width="572"/>
  <unicode hex="003D"/>
  <outline>
    <contour>
      <point x="43" y="373" type="line"/>
      <point x="528" y="373" type="line"/>
      <point x="528" y="479" type="line"/>
      <point x="43" y="479" type="line"/>
    </contour>
    <contour>
      <point x="43" y="183" type="line"/>
      <point x="528" y="183" type="line"/>
      <point x="528" y="290" type="line"/>
      <point x="43" y="290" type="line"/>
    </contour>
  </outline>
</glyph>
<glyph name="greater.guru" format="2">
  <advance width="569"/>
  <unicode hex="003E"/>
  <outline>
    <contour>
      <point x="60" y="90" type="line"/>
      <point x="509" y="335" type="line"/>
      <point x="509" y="380" type="line"/>
      <point x="60" y="626" type="line"/>
      <point x="60" y="539" type="line"/>
      <point x="392" y="357" type="line"/>
      <point x="60" y="177" type="line"/>
    </contour>
  </outline>
</glyph>
<glyph name="greater.mono" format="2">
  <advance width="600"/>
  <unicode hex="003E"/>
  <outline>
    <contour>
      <point x="80" y="100" type="line"/>
      <point x="520" y="313" type="line"/>
      <point x="520" y="397" type="line"/>
      <point x="80" y="623" type="line"/>
      <point x="80" y="478" type="line"/>
      <point x="342" y="358" type="line"/>
      <point x="80" y="244" type="line"/>
    </contour>
  </outline>
</glyph>
<glyph name="greater.orya" format="2">
  <advance width="572"/>
  <unicode hex="003E"/>
  <outline>
    <contour>
      <point x="43" y="78" type="line"/>
      <point x="528" y="292" type="line"/>
      <point x="528" y="362" type="line"/>
      <point x="43" y="604" type="line"/>
      <point x="43" y="487" type="line"/>
      <point x="377" y="332" type="line"/>
      <point x="43" y="195" type="line"/>
    </contour>
  </outline>
</glyph>
<glyph name="question.mono" format="2">
  <advance width="600"/>
  <unicode hex="003F"/>
  <outline>
    <contour>
      <point x="199" y="294" type="curve" smooth="yes"/>
      <point x="199" y="252" type="line"/>
      <point x="361" y="252" type="line"/>
      <point x="361" y="277" type="line" smooth="yes"/>
      <point x="361" y="308"/>
      <point x="375" y="329"/>
      <point x="426" y="362" type="curve" smooth="yes"/>
      <point x="502" y="411"/>
      <point x="530" y="469"/>
      <point x="530" y="546" type="curve" smooth="yes"/>
      <point x="530" y="653"/>
      <point x="449" y="724"/>
      <point x="309" y="724" type="curve" smooth="yes"/>
      <point x="217" y="724"/>
      <point x="143" y="697"/>
      <point x="70" y="655" type="curve"/>
      <point x="138" y="522" type="line"/>
      <point x="203" y="559"/>
      <point x="250" y="578"/>
      <point x="295" y="578" type="curve" smooth="yes"/>
      <point x="327" y="578"/>
      <point x="350" y="559"/>
      <point x="350" y="530" type="curve" smooth="yes"/>
      <point x="350" y="503"/>
      <point x="346" y="475"/>
      <point x="288" y="439" type="curve" smooth="yes"/>
      <point x="218" y="395"/>
      <point x="199" y="354"/>
    </contour>
    <contour>
      <point x="281" y="-12" type="curve" smooth="yes"/>
      <point x="335" y="-12"/>
      <point x="381" y="15"/>
      <point x="381" y="81" type="curve" smooth="yes"/>
      <point x="381" y="150"/>
      <point x="335" y="175"/>
      <point x="281" y="175" type="curve" smooth="yes"/>
      <point x="224" y="175"/>
      <point x="177" y="150"/>
      <point x="177" y="81" type="curve" smooth="yes"/>
      <point x="177" y="15"/>
      <point x="224" y="-12"/>
    </contour>
  </outline>
</glyph>
<glyph name="question.orya" format="2">
  <advance width="501"/>
  <unicode hex="003F"/>
  <outline>
    <contour>
      <point x="209" y="210" type="line"/>
      <point x="278" y="210" type="line"/>
      <point x="290" y="294" type="line"/>
      <point x="413" y="344"/>
      <point x="474" y="399"/>
      <point x="474" y="498" type="curve" smooth="yes"/>
      <point x="474" y="605"/>
      <point x="378" y="667"/>
      <point x="248" y="667" type="curve" smooth="yes"/>
      <point x="112" y="667"/>
      <point x="51" y="620"/>
      <point x="51" y="560" type="curve" smooth="yes"/>
      <point x="51" y="517"/>
      <point x="105" y="496"/>
      <point x="181" y="496" type="curve"/>
      <point x="181" y="559"/>
      <point x="200" y="612"/>
      <point x="255" y="612" type="curve" smooth="yes"/>
      <point x="306" y="612"/>
      <point x="327" y="571"/>
      <point x="327" y="512" type="curve" smooth="yes"/>
      <point x="327" y="440"/>
      <point x="302" y="366"/>
      <point x="197" y="323" type="curve"/>
    </contour>
    <component base="period.orya" xOffset="110" yOffset="-6"/>
  </outline>
</glyph>
<glyph name="question.sans" format="2">
  <advance width="482"/>
  <unicode hex="003F"/>
  <outline>
    <contour>
      <point x="134" y="234" type="line"/>
      <point x="271" y="234" type="line"/>
      <point x="271" y="258" type="line" smooth="yes"/>
      <point x="271" y="297"/>
      <point x="284" y="312"/>
      <point x="342" y="353" type="curve" smooth="yes"/>
      <point x="420" y="409"/>
      <point x="458" y="458"/>
      <point x="458" y="533" type="curve" smooth="yes"/>
      <point x="458" y="635"/>
      <point x="378" y="710"/>
      <point x="237" y="710" type="curve" smooth="yes"/>
      <point x="145" y="710"/>
      <point x="68" y="684"/>
      <point x="2" y="648" type="curve"/>
      <point x="58" y="536" type="line"/>
      <point x="116" y="566"/>
      <point x="171" y="585"/>
      <point x="225" y="585" type="curve" smooth="yes"/>
      <point x="279" y="585"/>
      <point x="311" y="563"/>
      <point x="311" y="524" type="curve" smooth="yes"/>
      <point x="311" y="490"/>
      <point x="286" y="458"/>
      <point x="229" y="418" type="curve" smooth="yes"/>
      <point x="160" y="369"/>
      <point x="134" y="329"/>
      <point x="134" y="264" type="curve" smooth="yes"/>
    </contour>
    <contour>
      <point x="119" y="72" type="curve" smooth="yes"/>
      <point x="119" y="11"/>
      <point x="159" y="-13"/>
      <point x="208" y="-13" type="curve" smooth="yes"/>
      <point x="256" y="-13"/>
      <point x="296" y="11"/>
      <point x="296" y="72" type="curve" smooth="yes"/>
      <point x="296" y="135"/>
      <point x="256" y="157"/>
      <point x="208" y="157" type="curve" smooth="yes"/>
      <point x="159" y="157"/>
      <point x="119" y="135"/>
    </contour>
  </outline>
</glyph>
<glyph name="at.mono" format="2">
  <advance width="600"/>
  <unicode hex="0040"/>
  <outline>
    <contour>
      <point x="319" y="-88" type="curve" smooth="yes"/>
      <point x="382" y="-88"/>
      <point x="444" y="-74"/>
      <point x="494" y="-49" type="curve"/>
      <point x="494" y="46" type="line"/>
      <point x="436" y="22"/>
      <point x="380" y="9"/>
      <point x="322" y="9" type="curve" smooth="yes"/>
      <point x="170" y="9"/>
      <point x="98" y="121"/>
      <point x="98" y="293" type="curve" smooth="yes"/>
      <point x="98" y="483"/>
      <point x="185" y="615"/>
      <point x="320" y="615" type="curve" smooth="yes"/>
      <point x="440" y="615"/>
      <point x="502" y="516"/>
      <point x="502" y="361" type="curve" smooth="yes"/>
      <point x="502" y="275"/>
      <point x="486" y="204"/>
      <point x="464" y="204" type="curve" smooth="yes"/>
      <point x="455" y="204"/>
      <point x="448" y="219"/>
      <point x="448" y="258" type="curve" smooth="yes"/>
      <point x="448" y="266"/>
      <point x="449" y="287"/>
      <point x="449" y="299" type="curve" smooth="yes"/>
      <point x="456" y="490" type="line"/>
      <point x="422" y="505"/>
      <point x="374" y="520"/>
      <point x="325" y="520" type="curve" smooth="yes"/>
      <point x="210" y="520"/>
      <point x="148" y="426"/>
      <point x="148" y="297" type="curve" smooth="yes"/>
      <point x="148" y="185"/>
      <point x="193" y="108"/>
      <point x="275" y="108" type="curve" smooth="yes"/>
      <point x="316" y="108"/>
      <point x="345" y="128"/>
      <point x="371" y="166" type="curve"/>
      <point x="376" y="166" type="line"/>
      <point x="392" y="124"/>
      <point x="424" y="108"/>
      <point x="458" y="108" type="curve" smooth="yes"/>
      <point x="555" y="108"/>
      <point x="600" y="235"/>
      <point x="600" y="369" type="curve" smooth="yes"/>
      <point x="600" y="574"/>
      <point x="487" y="714"/>
      <point x="317" y="714" type="curve" smooth="yes"/>
      <point x="126" y="714"/>
      <point x="0" y="542"/>
      <point x="0" y="287" type="curve" smooth="yes"/>
      <point x="0" y="57"/>
      <point x="118" y="-88"/>
    </contour>
    <contour>
      <point x="292" y="204" type="curve" smooth="yes"/>
      <point x="267" y="204"/>
      <point x="252" y="233"/>
      <point x="252" y="297" type="curve" smooth="yes"/>
      <point x="252" y="368"/>
      <point x="274" y="423"/>
      <point x="328" y="423" type="curve" smooth="yes"/>
      <point x="336" y="423"/>
      <point x="342" y="422"/>
      <point x="351" y="420" type="curve"/>
      <point x="348" y="349" type="line" smooth="yes"/>
      <point x="344" y="246"/>
      <point x="329" y="204"/>
    </contour>
  </outline>
</glyph>
<glyph name="at.serif" format="2">
  <advance width="921"/>
  <unicode hex="0040"/>
  <outline>
    <contour>
      <point x="474" y="-142" type="curve" smooth="yes"/>
      <point x="621" y="-142"/>
      <point x="711" y="-100"/>
      <point x="790" y="-48" type="curve"/>
      <point x="765" y="-2" type="line"/>
      <point x="700" y="-44"/>
      <point x="605" y="-82"/>
      <point x="485" y="-82" type="curve" smooth="yes"/>
      <point x="288" y="-82"/>
      <point x="153" y="21"/>
      <point x="153" y="245" type="curve" smooth="yes"/>
      <point x="153" y="506"/>
      <point x="336" y="658"/>
      <point x="523" y="658" type="curve" smooth="yes"/>
      <point x="683" y="658"/>
      <point x="801" y="565"/>
      <point x="801" y="376" type="curve" smooth="yes"/>
      <point x="801" y="212"/>
      <point x="740" y="135"/>
      <point x="691" y="135" type="curve" smooth="yes"/>
      <point x="677" y="135"/>
      <point x="654" y="144"/>
      <point x="654" y="205" type="curve" smooth="yes"/>
      <point x="654" y="213"/>
      <point x="656" y="246"/>
      <point x="661" y="274" type="curve" smooth="yes"/>
      <point x="701" y="520" type="line"/>
      <point x="663" y="520" type="line"/>
      <point x="621" y="499" type="line"/>
      <point x="605" y="513"/>
      <point x="557" y="529"/>
      <point x="513" y="529" type="curve" smooth="yes"/>
      <point x="332" y="529"/>
      <point x="245" y="377"/>
      <point x="245" y="248" type="curve" smooth="yes"/>
      <point x="245" y="136"/>
      <point x="313" y="77"/>
      <point x="402" y="77" type="curve" smooth="yes"/>
      <point x="475" y="77"/>
      <point x="518" y="117"/>
      <point x="546" y="169" type="curve"/>
      <point x="553" y="169" type="line"/>
      <point x="577" y="95"/>
      <point x="620" y="77"/>
      <point x="679" y="77" type="curve" smooth="yes"/>
      <point x="785" y="77"/>
      <point x="882" y="189"/>
      <point x="882" y="382" type="curve" smooth="yes"/>
      <point x="882" y="599"/>
      <point x="738" y="714"/>
      <point x="530" y="714" type="curve" smooth="yes"/>
      <point x="289" y="714"/>
      <point x="51" y="552"/>
      <point x="51" y="249" type="curve" smooth="yes"/>
      <point x="51" y="-22"/>
      <point x="253" y="-142"/>
    </contour>
    <contour>
      <point x="445" y="139" type="curve" smooth="yes"/>
      <point x="412" y="139"/>
      <point x="390" y="167"/>
      <point x="390" y="237" type="curve" smooth="yes"/>
      <point x="390" y="327"/>
      <point x="427" y="483"/>
      <point x="514" y="483" type="curve" smooth="yes"/>
      <point x="533" y="483"/>
      <point x="557" y="474"/>
      <point x="565" y="456" type="curve"/>
      <point x="525" y="246" type="line" smooth="yes"/>
      <point x="514" y="190"/>
      <point x="494" y="139"/>
    </contour>
  </outline>
</glyph>
<glyph name="A.mono" format="2">
  <advance width="600"/>
  <unicode hex="0041"/>
  <anchor x="300" y="0" name="bottom"/>
  <anchor x="540" y="10" name="ogonek"/>
  <anchor x="300" y="714" name="top"/>
  <anchor x="580" y="714" name="topright"/>
  <outline>
    <contour>
      <point x="5" y="0" type="line"/>
      <point x="175" y="0" type="line"/>
      <point x="268" y="423" type="line" smooth="yes"/>
      <point x="279" y="474"/>
      <point x="295" y="552"/>
      <point x="302" y="597" type="curve"/>
      <point x="309" y="552"/>
      <point x="325" y="474"/>
      <point x="335" y="423" type="curve" smooth="yes"/>
      <point x="421" y="0" type="line"/>
      <point x="595" y="0" type="line"/>
      <point x="414" y="717" type="line"/>
      <point x="185" y="717" type="line"/>
    </contour>
    <contour>
      <point x="181" y="147" type="line"/>
      <point x="411" y="147" type="line"/>
      <point x="394" y="288" type="line"/>
      <point x="202" y="288" type="line"/>
    </contour>
  </outline>
</glyph>
<glyph name="A.serif" format="2">
  <advance width="788"/>
  <unicode hex="0041"/>
  <anchor x="610" y="0" name="bottom"/>
  <anchor x="394" y="714" name="top"/>
  <anchor x="668" y="714" name="topright"/>
  <outline>
    <contour>
      <point x="7" y="0" type="line"/>
      <point x="279" y="0" type="line"/>
      <point x="279" y="61" type="line"/>
      <point x="230" y="61" type="line" smooth="yes"/>
      <point x="202" y="61"/>
      <point x="193" y="73"/>
      <point x="193" y="93" type="curve" smooth="yes"/>
      <point x="193" y="112"/>
      <point x="203" y="144"/>
      <point x="207" y="160" type="curve" smooth="yes"/>
      <point x="230" y="232" type="line"/>
      <point x="458" y="232" type="line"/>
      <point x="489" y="141" type="line"/>
      <point x="492" y="133"/>
      <point x="500" y="111"/>
      <point x="500" y="92" type="curve" smooth="yes"/>
      <point x="500" y="67"/>
      <point x="479" y="61"/>
      <point x="458" y="61" type="curve" smooth="yes"/>
      <point x="418" y="61" type="line"/>
      <point x="418" y="0" type="line"/>
      <point x="788" y="0" type="line"/>
      <point x="788" y="61" type="line"/>
      <point x="777" y="61" type="line" smooth="yes"/>
      <point x="740" y="61"/>
      <point x="712" y="81"/>
      <point x="695" y="128" type="curve" smooth="yes"/>
      <point x="491" y="714" type="line"/>
      <point x="310" y="714" type="line"/>
      <point x="97" y="130" type="line" smooth="yes"/>
      <point x="76" y="73"/>
      <point x="48" y="61"/>
      <point x="14" y="61" type="curve" smooth="yes"/>
      <point x="7" y="61" type="line"/>
    </contour>
    <contour>
      <point x="252" y="301" type="line"/>
      <point x="315" y="493" type="line" smooth="yes"/>
      <point x="326" y="527"/>
      <point x="338" y="567"/>
      <point x="349" y="610" type="curve"/>
      <point x="357" y="566"/>
      <point x="369" y="527"/>
      <point x="379" y="492" type="curve" smooth="yes"/>
      <point x="436" y="301" type="line"/>
    </contour>
  </outline>
</glyph>
<glyph name="B.mono" format="2">
  <advance width="600"/>
  <unicode hex="0042"/>
  <anchor x="300" y="0" name="bottom"/>
  <anchor x="300" y="714" name="top"/>
  <anchor x="580" y="714" name="topright"/>
  <outline>
    <contour>
      <point x="60" y="0" type="line"/>
      <point x="325" y="0" type="line" smooth="yes"/>
      <point x="476" y="0"/>
      <point x="570" y="79"/>
      <point x="570" y="211" type="curve" smooth="yes"/>
      <point x="570" y="310"/>
      <point x="518" y="356"/>
      <point x="454" y="374" type="curve"/>
      <point x="454" y="379" type="line"/>
      <point x="505" y="393"/>
      <point x="557" y="444"/>
      <point x="557" y="539" type="curve" smooth="yes"/>
      <point x="557" y="655"/>
      <point x="478" y="714"/>
      <point x="300" y="714" type="curve" smooth="yes"/>
      <point x="60" y="714" type="line"/>
    </contour>
    <contour>
      <point x="310" y="138" type="curve" smooth="yes"/>
      <point x="218" y="138" type="line"/>
      <point x="218" y="305" type="line"/>
      <point x="307" y="305" type="line" smooth="yes"/>
      <point x="377" y="305"/>
      <point x="405" y="269"/>
      <point x="405" y="224" type="curve" smooth="yes"/>
      <point x="405" y="179"/>
      <point x="377" y="138"/>
    </contour>
    <contour>
      <point x="301" y="434" type="curve" smooth="yes"/>
      <point x="218" y="434" type="line"/>
      <point x="218" y="576" type="line"/>
      <point x="298" y="576" type="line" smooth="yes"/>
      <point x="365" y="576"/>
      <point x="394" y="551"/>
      <point x="394" y="510" type="curve" smooth="yes"/>
      <point x="394" y="469"/>
      <point x="365" y="434"/>
    </contour>
  </outline>
</glyph>
<glyph name="C.mono" format="2">
  <advance width="600"/>
  <unicode hex="0043"/>
  <anchor x="340" y="0" name="bottom"/>
  <anchor x="357" y="714" name="top"/>
  <anchor x="580" y="714" name="topright"/>
  <outline>
    <contour>
      <point x="333" y="-10" type="curve" smooth="yes"/>
      <point x="402" y="-10"/>
      <point x="475" y="3"/>
      <point x="538" y="31" type="curve"/>
      <point x="538" y="192" type="line"/>
      <point x="486" y="160"/>
      <point x="416" y="144"/>
      <point x="363" y="144" type="curve" smooth="yes"/>
      <point x="263" y="144"/>
      <point x="217" y="201"/>
      <point x="217" y="347" type="curve" smooth="yes"/>
      <point x="217" y="484"/>
      <point x="257" y="569"/>
      <point x="381" y="569" type="curve" smooth="yes"/>
      <point x="421" y="569"/>
      <point x="471" y="560"/>
      <point x="518" y="537" type="curve"/>
      <point x="565" y="685" type="line"/>
      <point x="500" y="712"/>
      <point x="440" y="724"/>
      <point x="378" y="724" type="curve" smooth="yes"/>
      <point x="168" y="724"/>
      <point x="40" y="586"/>
      <point x="40" y="348" type="curve" smooth="yes"/>
      <point x="40" y="130"/>
      <point x="139" y="-10"/>
    </contour>
  </outline>
</glyph>
<glyph name="C.serif" format="2">
  <advance width="708"/>
  <unicode hex="0043"/>
  <anchor x="404" y="0" name="bottom"/>
  <anchor x="414" y="714" name="top"/>
  <anchor x="688" y="714" name="topright"/>
  <outline>
    <contour>
      <point x="418" y="-10" type="curve" smooth="yes"/>
      <point x="619" y="-10"/>
      <point x="665" y="76"/>
      <point x="665" y="137" type="curve" smooth="yes"/>
      <point x="665" y="152"/>
      <point x="659" y="174"/>
      <point x="650" y="183" type="curve"/>
      <point x="616" y="138"/>
      <point x="559" y="80"/>
      <point x="452" y="80" type="curve" smooth="yes"/>
      <point x="313" y="80"/>
      <point x="264" y="155"/>
      <point x="264" y="358" type="curve" smooth="yes"/>
      <point x="264" y="546"/>
      <point x="297" y="652"/>
      <point x="406" y="652" type="curve" smooth="yes"/>
      <point x="486" y="652"/>
      <point x="511" y="574"/>
      <point x="511" y="506" type="curve"/>
      <point x="615" y="506"/>
      <point x="664" y="550"/>
      <point x="664" y="605" type="curve" smooth="yes"/>
      <point x="664" y="671"/>
      <point x="582" y="724"/>
      <point x="417" y="724" type="curve" smooth="yes"/>
      <point x="178" y="724"/>
      <point x="54" y="574"/>
      <point x="54" y="358" type="curve" smooth="yes"/>
      <point x="54" y="137"/>
      <point x="175" y="-10"/>
    </contour>
  </outline>
</glyph>
<glyph name="D.mono" format="2">
  <advance width="600"/>
  <unicode hex="0044"/>
  <anchor x="242" y="0" name="bottom"/>
  <anchor x="310" y="357" name="center"/>
  <anchor x="285" y="714" name="top"/>
  <anchor x="600" y="714" name="topright"/>
  <outline>
    <contour>
      <point x="40" y="0" type="line"/>
      <point x="242" y="0" type="line" smooth="yes"/>
      <point x="449" y="0"/>
      <point x="580" y="129"/>
      <point x="580" y="372" type="curve" smooth="yes"/>
      <point x="580" y="593"/>
      <point x="461" y="714"/>
      <point x="256" y="714" type="curve" smooth="yes"/>
      <point x="40" y="714" type="line"/>
    </contour>
    <contour>
      <point x="244" y="145" type="curve" smooth="yes"/>
      <point x="206" y="145" type="line"/>
      <point x="206" y="569" type="line"/>
      <point x="255" y="569" type="line" smooth="yes"/>
      <point x="353" y="569"/>
      <point x="403" y="503"/>
      <point x="403" y="365" type="curve" smooth="yes"/>
      <point x="403" y="221"/>
      <point x="352" y="145"/>
    </contour>
  </outline>
</glyph>
<glyph name="D.serif" format="2">
  <advance width="796"/>
  <unicode hex="0044"/>
  <anchor x="388" y="0" name="bottom"/>
  <anchor x="398" y="357" name="center"/>
  <anchor x="386" y="714" name="top"/>
  <anchor x="776" y="714" name="topright"/>
  <outline>
    <contour>
      <point x="21" y="0" type="line"/>
      <point x="369" y="0" type="line"/>
      <point x="613" y="0"/>
      <point x="743" y="160"/>
      <point x="743" y="379" type="curve" smooth="yes"/>
      <point x="743" y="606"/>
      <point x="601" y="714"/>
      <point x="369" y="714" type="curve" smooth="yes"/>
      <point x="21" y="714" type="line"/>
      <point x="21" y="653" type="line"/>
      <point x="66" y="653" type="line" smooth="yes"/>
      <point x="94" y="653"/>
      <point x="113" y="636"/>
      <point x="113" y="599" type="curve" smooth="yes"/>
      <point x="113" y="115" type="line" smooth="yes"/>
      <point x="113" y="85"/>
      <point x="98" y="61"/>
      <point x="74" y="61" type="curve" smooth="yes"/>
      <point x="21" y="61" type="line"/>
    </contour>
    <contour>
      <point x="345" y="70" type="curve" smooth="yes"/>
      <point x="312" y="70" type="line"/>
      <point x="312" y="645" type="line"/>
      <point x="346" y="645" type="line"/>
      <point x="466" y="645"/>
      <point x="531" y="565"/>
      <point x="531" y="379" type="curve" smooth="yes"/>
      <point x="531" y="193"/>
      <point x="466" y="70"/>
    </contour>
  </outline>
</glyph>
<glyph name="E.mono" format="2">
  <advance width="600"/>
  <unicode hex="0045"/>
  <anchor x="304" y="0" name="bottom"/>
  <anchor x="468" y="10" name="ogonek"/>
  <anchor x="302" y="714" name="top"/>
  <anchor x="20" y="714" name="topleft"/>
  <anchor x="580" y="714" name="topright"/>
  <outline>
    <contour>
      <point x="60" y="0" type="line"/>
      <point x="540" y="0" type="line"/>
      <point x="540" y="150" type="line"/>
      <point x="231" y="150" type="line"/>
      <point x="231" y="292" type="line"/>
      <point x="527" y="292" type="line"/>
      <point x="527" y="442" type="line"/>
      <point x="231" y="442" type="line"/>
      <point x="231" y="564" type="line"/>
      <point x="540" y="564" type="line"/>
      <point x="540" y="714" type="line"/>
      <point x="60" y="714" type="line"/>
    </contour>
  </outline>
</glyph>
<glyph name="E.serif" format="2">
  <advance width="675"/>
  <unicode hex="0045"/>
  <anchor x="338" y="0" name="bottom"/>
  <anchor x="338" y="714" name="top"/>
  <anchor x="655" y="714" name="topright"/>
  <outline>
    <contour>
      <point x="21" y="0" type="line"/>
      <point x="644" y="0" type="line"/>
      <point x="651" y="191" type="line"/>
      <point x="569" y="191" type="line"/>
      <point x="561" y="141" type="line" smooth="yes"/>
      <point x="554" y="97"/>
      <point x="534" y="69"/>
      <point x="491" y="69" type="curve" smooth="yes"/>
      <point x="312" y="69" type="line"/>
      <point x="312" y="339" type="line"/>
      <point x="548" y="339" type="line"/>
      <point x="548" y="407" type="line"/>
      <point x="312" y="407" type="line"/>
      <point x="312" y="645" type="line"/>
      <point x="462" y="645" type="line" smooth="yes"/>
      <point x="509" y="645"/>
      <point x="524" y="626"/>
      <point x="529" y="573" type="curve" smooth="yes"/>
      <point x="534" y="523" type="line"/>
      <point x="617" y="523" type="line"/>
      <point x="614" y="714" type="line"/>
      <point x="21" y="714" type="line"/>
      <point x="21" y="653" type="line"/>
      <point x="70" y="653" type="line" smooth="yes"/>
      <point x="92" y="653"/>
      <point x="113" y="646"/>
      <point x="113" y="599" type="curve" smooth="yes"/>
      <point x="113" y="110" type="line" smooth="yes"/>
      <point x="113" y="82"/>
      <point x="99" y="61"/>
      <point x="72" y="61" type="curve" smooth="yes"/>
      <point x="21" y="61" type="line"/>
    </contour>
  </outline>
</glyph>
<glyph name="F.mono" format="2">
  <advance width="600"/>
  <unicode hex="0046"/>
  <anchor x="312" y="0" name="bottom"/>
  <anchor x="312" y="714" name="top"/>
  <anchor x="580" y="714" name="topright"/>
  <outline>
    <contour>
      <point x="60" y="0" type="line"/>
      <point x="231" y="0" type="line"/>
      <point x="231" y="265" type="line"/>
      <point x="528" y="265" type="line"/>
      <point x="528" y="415" type="line"/>
      <point x="231" y="415" type="line"/>
      <point x="231" y="564" type="line"/>
      <point x="540" y="564" type="line"/>
      <point x="540" y="714" type="line"/>
      <point x="60" y="714" type="line"/>
    </contour>
  </outline>
</glyph>
<glyph name="F.serif" format="2">
  <advance width="644"/>
  <unicode hex="0046"/>
  <anchor x="213" y="0" name="bottom"/>
  <anchor x="322" y="714" name="top"/>
  <anchor x="624" y="714" name="topright"/>
  <outline>
    <contour>
      <point x="21" y="0" type="line"/>
      <point x="426" y="0" type="line"/>
      <point x="426" y="61" type="line"/>
      <point x="366" y="61" type="line" smooth="yes"/>
      <point x="326" y="61"/>
      <point x="312" y="80"/>
      <point x="312" y="110" type="curve" smooth="yes"/>
      <point x="312" y="317" type="line"/>
      <point x="547" y="317" type="line"/>
      <point x="547" y="384" type="line"/>
      <point x="312" y="384" type="line"/>
      <point x="312" y="645" type="line"/>
      <point x="468" y="645" type="line" smooth="yes"/>
      <point x="493" y="645"/>
      <point x="522" y="634"/>
      <point x="529" y="575" type="curve" smooth="yes"/>
      <point x="534" y="523" type="line"/>
      <point x="617" y="523" type="line"/>
      <point x="612" y="714" type="line"/>
      <point x="21" y="714" type="line"/>
      <point x="21" y="653" type="line"/>
      <point x="71" y="653" type="line" smooth="yes"/>
      <point x="94" y="653"/>
      <point x="113" y="638"/>
      <point x="113" y="603" type="curve" smooth="yes"/>
      <point x="113" y="109" type="line" smooth="yes"/>
      <point x="113" y="75"/>
      <point x="98" y="61"/>
      <point x="56" y="61" type="curve" smooth="yes"/>
      <point x="21" y="61" type="line"/>
    </contour>
  </outline>
</glyph>
<glyph name="H.mono" format="2">
  <advance width="600"/>
  <unicode hex="0048"/>
  <anchor x="300" y="0" name="bottom"/>
  <anchor x="300" y="374" name="center"/>
  <anchor x="300" y="714" name="top"/>
  <anchor x="20" y="714" name="topleft"/>
  <anchor x="600" y="714" name="topright"/>
  <outline>
    <contour>
      <point x="40" y="0" type="line"/>
      <point x="217" y="0" type="line"/>
      <point x="217" y="297" type="line"/>
      <point x="383" y="297" type="line"/>
      <point x="383" y="0" type="line"/>
      <point x="560" y="0" type="line"/>
      <point x="560" y="714" type="line"/>
      <point x="383" y="714" type="line"/>
      <point x="383" y="447" type="line"/>
      <point x="217" y="447" type="line"/>
      <point x="217" y="714" type="line"/>
      <point x="40" y="714" type="line"/>
    </contour>
  </outline>
</glyph>
<glyph name="I.mono" format="2">
  <advance width="600"/>
  <unicode hex="0049"/>
  <anchor x="300" y="0" name="bottom"/>
  <anchor x="401" y="10" name="ogonek"/>
  <anchor x="300" y="714" name="top"/>
  <anchor x="20" y="714" name="topleft"/>
  <anchor x="580" y="714" name="topright"/>
  <outline>
    <contour>
      <point x="70" y="0" type="line"/>
      <point x="530" y="0" type="line"/>
      <point x="530" y="125" type="line"/>
      <point x="384" y="141" type="line"/>
      <point x="384" y="573" type="line"/>
      <point x="530" y="589" type="line"/>
      <point x="530" y="714" type="line"/>
      <point x="70" y="714" type="line"/>
      <point x="70" y="589" type="line"/>
      <point x="215" y="573" type="line"/>
      <point x="215" y="141" type="line"/>
      <point x="70" y="125" type="line"/>
    </contour>
  </outline>
</glyph>
<glyph name="J.mono" format="2">
  <advance width="600"/>
  <unicode hex="004A"/>
  <anchor x="300" y="0" name="bottom"/>
  <anchor x="429" y="714" name="top"/>
  <anchor x="580" y="714" name="topright"/>
  <outline>
    <contour>
      <point x="247" y="-10" type="curve" smooth="yes"/>
      <point x="446" y="-10"/>
      <point x="515" y="74"/>
      <point x="515" y="267" type="curve" smooth="yes"/>
      <point x="515" y="714" type="line"/>
      <point x="343" y="714" type="line"/>
      <point x="343" y="291" type="line" smooth="yes"/>
      <point x="343" y="194"/>
      <point x="319" y="142"/>
      <point x="214" y="142" type="curve" smooth="yes"/>
      <point x="188" y="142"/>
      <point x="134" y="145"/>
      <point x="65" y="160" type="curve"/>
      <point x="65" y="7" type="line"/>
      <point x="131" y="-5"/>
      <point x="198" y="-10"/>
    </contour>
  </outline>
</glyph>
<glyph name="J.serif" format="2">
  <advance width="425"/>
  <unicode hex="004A"/>
  <anchor x="120" y="-240" name="bottom"/>
  <anchor x="220" y="714" name="top"/>
  <anchor x="388" y="714" name="topright"/>
  <outline>
    <contour>
      <point x="-27" y="-240" type="line"/>
      <point x="23" y="-240" type="line" smooth="yes"/>
      <point x="166" y="-240"/>
      <point x="317" y="-180"/>
      <point x="317" y="2" type="curve" smooth="yes"/>
      <point x="317" y="601" type="line" smooth="yes"/>
      <point x="317" y="636"/>
      <point x="339" y="653"/>
      <point x="357" y="653" type="curve" smooth="yes"/>
      <point x="410" y="653" type="line"/>
      <point x="410" y="714" type="line"/>
      <point x="25" y="714" type="line"/>
      <point x="25" y="653" type="line"/>
      <point x="79" y="653" type="line" smooth="yes"/>
      <point x="95" y="653"/>
      <point x="117" y="636"/>
      <point x="117" y="602" type="curve" smooth="yes"/>
      <point x="117" y="1" type="line" smooth="yes"/>
      <point x="117" y="-127"/>
      <point x="45" y="-174"/>
      <point x="-3" y="-174" type="curve" smooth="yes"/>
      <point x="-27" y="-174" type="line"/>
    </contour>
  </outline>
</glyph>
<glyph name="K.mono" format="2">
  <advance width="600"/>
  <unicode hex="004B"/>
  <anchor x="304" y="0" name="bottom"/>
  <anchor x="300" y="714" name="top"/>
  <anchor x="580" y="714" name="topright"/>
  <outline>
    <contour>
      <point x="40" y="0" type="line"/>
      <point x="210" y="0" type="line"/>
      <point x="210" y="220" type="line"/>
      <point x="257" y="262" type="line"/>
      <point x="378" y="0" type="line"/>
      <point x="573" y="0" type="line"/>
      <point x="378" y="395" type="line"/>
      <point x="575" y="714" type="line"/>
      <point x="387" y="714" type="line"/>
      <point x="252" y="472" type="line" smooth="yes"/>
      <point x="237" y="445"/>
      <point x="223" y="419"/>
      <point x="210" y="388" type="curve"/>
      <point x="210" y="714" type="line"/>
      <point x="40" y="714" type="line"/>
    </contour>
  </outline>
</glyph>
<glyph name="K.serif" format="2">
  <advance width="781"/>
  <unicode hex="004B"/>
  <anchor x="434" y="0" name="bottom"/>
  <anchor x="414" y="714" name="top"/>
  <anchor x="761" y="714" name="topright"/>
  <outline>
    <contour>
      <point x="21" y="0" type="line"/>
      <point x="386" y="0" type="line"/>
      <point x="386" y="61" type="line"/>
      <point x="362" y="61" type="line" smooth="yes"/>
      <point x="335" y="61"/>
      <point x="313" y="78"/>
      <point x="313" y="109" type="curve" smooth="yes"/>
      <point x="313" y="291" type="line"/>
      <point x="335" y="305" type="line"/>
      <point x="441" y="131" type="line" smooth="yes"/>
      <point x="503" y="30"/>
      <point x="541" y="0"/>
      <point x="685" y="0" type="curve" smooth="yes"/>
      <point x="781" y="0" type="line"/>
      <point x="781" y="61" type="line"/>
      <point x="775" y="61" type="line" smooth="yes"/>
      <point x="729" y="61"/>
      <point x="708" y="81"/>
      <point x="662" y="149" type="curve" smooth="yes"/>
      <point x="467" y="435" type="line"/>
      <point x="599" y="570" type="line" smooth="yes"/>
      <point x="644" y="617"/>
      <point x="690" y="654"/>
      <point x="750" y="654" type="curve"/>
      <point x="750" y="714" type="line"/>
      <point x="447" y="714" type="line"/>
      <point x="447" y="654" type="line"/>
      <point x="493" y="654"/>
      <point x="509" y="644"/>
      <point x="509" y="619" type="curve" smooth="yes"/>
      <point x="509" y="584"/>
      <point x="488" y="556"/>
      <point x="447" y="511" type="curve" smooth="yes"/>
      <point x="313" y="362" type="line"/>
      <point x="313" y="605" type="line" smooth="yes"/>
      <point x="313" y="636"/>
      <point x="328" y="653"/>
      <point x="352" y="653" type="curve" smooth="yes"/>
      <point x="386" y="653" type="line"/>
      <point x="386" y="714" type="line"/>
      <point x="21" y="714" type="line"/>
      <point x="21" y="653" type="line"/>
      <point x="70" y="653" type="line" smooth="yes"/>
      <point x="95" y="653"/>
      <point x="113" y="636"/>
      <point x="113" y="606" type="curve" smooth="yes"/>
      <point x="113" y="111" type="line" smooth="yes"/>
      <point x="113" y="77"/>
      <point x="91" y="61"/>
      <point x="64" y="61" type="curve" smooth="yes"/>
      <point x="21" y="61" type="line"/>
    </contour>
  </outline>
</glyph>
<glyph name="L.serif" format="2">
  <advance width="677"/>
  <unicode hex="004C"/>
  <anchor x="339" y="0" name="bottom"/>
  <anchor x="220" y="357" name="center"/>
  <anchor x="213" y="714" name="top"/>
  <anchor x="657" y="714" name="topright"/>
  <outline>
    <contour>
      <point x="21" y="0" type="line"/>
      <point x="644" y="0" type="line"/>
      <point x="651" y="229" type="line"/>
      <point x="592" y="229" type="line"/>
      <point x="571" y="154" type="line" smooth="yes"/>
      <point x="553" y="89"/>
      <point x="528" y="69"/>
      <point x="492" y="69" type="curve" smooth="yes"/>
      <point x="314" y="69" type="line"/>
      <point x="314" y="604" type="line" smooth="yes"/>
      <point x="314" y="636"/>
      <point x="321" y="653"/>
      <point x="357" y="653" type="curve" smooth="yes"/>
      <point x="406" y="653" type="line"/>
      <point x="406" y="714" type="line"/>
      <point x="21" y="714" type="line"/>
      <point x="21" y="653" type="line"/>
      <point x="66" y="653" type="line" smooth="yes"/>
      <point x="92" y="653"/>
      <point x="113" y="636"/>
      <point x="113" y="602" type="curve" smooth="yes"/>
      <point x="113" y="109" type="line" smooth="yes"/>
      <point x="113" y="78"/>
      <point x="92" y="61"/>
      <point x="74" y="61" type="curve" smooth="yes"/>
      <point x="21" y="61" type="line"/>
    </contour>
  </outline>
</glyph>
<glyph name="M.mono" format="2">
  <advance width="600"/>
  <unicode hex="004D"/>
  <anchor x="300" y="0" name="bottom"/>
  <anchor x="300" y="714" name="top"/>
  <anchor x="600" y="714" name="topright"/>
  <outline>
    <contour>
      <point x="30" y="0" type="line"/>
      <point x="177" y="0" type="line"/>
      <point x="177" y="159" type="line" smooth="yes"/>
      <point x="177" y="203"/>
      <point x="146" y="522"/>
      <point x="146" y="552" type="curve"/>
      <point x="150" y="552" type="line"/>
      <point x="216" y="158" type="line"/>
      <point x="382" y="158" type="line"/>
      <point x="446" y="551" type="line"/>
      <point x="450" y="551" type="line"/>
      <point x="450" y="523"/>
      <point x="421" y="203"/>
      <point x="421" y="160" type="curve" smooth="yes"/>
      <point x="421" y="0" type="line"/>
      <point x="570" y="0" type="line"/>
      <point x="570" y="714" type="line"/>
      <point x="343" y="714" type="line"/>
      <point x="299" y="308" type="line"/>
      <point x="296" y="308" type="line"/>
      <point x="255" y="714" type="line"/>
      <point x="30" y="714" type="line"/>
    </contour>
  </outline>
</glyph>
<glyph name="N.mono" format="2">
  <advance width="600"/>
  <unicode hex="004E"/>
  <anchor x="300" y="0" name="bottom"/>
  <anchor x="305" y="714" name="top"/>
  <anchor x="600" y="714" name="topright"/>
  <outline>
    <contour>
      <point x="40" y="0" type="line"/>
      <point x="197" y="0" type="line"/>
      <point x="197" y="328" type="line" smooth="yes"/>
      <point x="197" y="384"/>
      <point x="196" y="416"/>
      <point x="186" y="552" type="curve"/>
      <point x="190" y="552" type="line"/>
      <point x="329" y="0" type="line"/>
      <point x="560" y="0" type="line"/>
      <point x="560" y="714" type="line"/>
      <point x="403" y="714" type="line"/>
      <point x="403" y="376" type="line" smooth="yes"/>
      <point x="403" y="313"/>
      <point x="408" y="248"/>
      <point x="416" y="157" type="curve"/>
      <point x="412" y="157" type="line"/>
      <point x="277" y="714" type="line"/>
      <point x="40" y="714" type="line"/>
    </contour>
  </outline>
</glyph>
<glyph name="N.serif" format="2">
  <advance width="806"/>
  <unicode hex="004E"/>
  <anchor x="403" y="0" name="bottom"/>
  <anchor x="403" y="714" name="top"/>
  <anchor x="786" y="714" name="topright"/>
  <outline>
    <contour>
      <point x="21" y="0" type="line"/>
      <point x="289" y="0" type="line"/>
      <point x="289" y="61" type="line"/>
      <point x="246" y="61" type="line" smooth="yes"/>
      <point x="211" y="61"/>
      <point x="198" y="68"/>
      <point x="198" y="121" type="curve" smooth="yes"/>
      <point x="198" y="533" type="line"/>
      <point x="599" y="0" type="line"/>
      <point x="706" y="0" type="line"/>
      <point x="706" y="593" type="line" smooth="yes"/>
      <point x="706" y="636"/>
      <point x="725" y="653"/>
      <point x="755" y="653" type="curve" smooth="yes"/>
      <point x="798" y="653" type="line"/>
      <point x="798" y="714" type="line"/>
      <point x="530" y="714" type="line"/>
      <point x="530" y="653" type="line"/>
      <point x="573" y="653" type="line" smooth="yes"/>
      <point x="600" y="653"/>
      <point x="621" y="639"/>
      <point x="621" y="597" type="curve"/>
      <point x="621" y="255" type="line"/>
      <point x="272" y="714" type="line"/>
      <point x="21" y="714" type="line"/>
      <point x="21" y="653" type="line"/>
      <point x="63" y="653" type="line" smooth="yes"/>
      <point x="89" y="653"/>
      <point x="113" y="646"/>
      <point x="113" y="597" type="curve"/>
      <point x="113" y="121" type="line" smooth="yes"/>
      <point x="113" y="68"/>
      <point x="90" y="61"/>
      <point x="54" y="61" type="curve" smooth="yes"/>
      <point x="21" y="61" type="line"/>
    </contour>
  </outline>
</glyph>
<glyph name="O.mono" format="2">
  <advance width="600"/>
  <unicode hex="004F"/>
  <anchor x="300" y="0" name="bottom"/>
  <anchor x="300" y="357" name="center"/>
  <anchor x="295" y="10" name="ogonek"/>
  <anchor x="300" y="714" name="top"/>
  <anchor x="20" y="714" name="topleft"/>
  <anchor x="600" y="714" name="topright"/>
  <outline>
    <contour>
      <point x="300" y="-10" type="curve" smooth="yes"/>
      <point x="495" y="-10"/>
      <point x="580" y="124"/>
      <point x="580" y="357" type="curve" smooth="yes"/>
      <point x="580" y="592"/>
      <point x="493" y="725"/>
      <point x="300" y="725" type="curve" smooth="yes"/>
      <point x="110" y="725"/>
      <point x="20" y="597"/>
      <point x="20" y="358" type="curve" smooth="yes"/>
      <point x="20" y="121"/>
      <point x="108" y="-10"/>
    </contour>
    <contour>
      <point x="300" y="140" type="curve" smooth="yes"/>
      <point x="225" y="140"/>
      <point x="199" y="203"/>
      <point x="199" y="358" type="curve" smooth="yes"/>
      <point x="199" y="513"/>
      <point x="226" y="574"/>
      <point x="300" y="574" type="curve" smooth="yes"/>
      <point x="377" y="574"/>
      <point x="401" y="507"/>
      <point x="401" y="360" type="curve" smooth="yes"/>
      <point x="401" y="207"/>
      <point x="376" y="140"/>
    </contour>
  </outline>
</glyph>
<glyph name="O.serif" format="2">
  <advance width="820"/>
  <unicode hex="004F"/>
  <anchor x="410" y="0" name="bottom"/>
  <anchor x="410" y="357" name="center"/>
  <anchor x="410" y="714" name="top"/>
  <anchor x="800" y="714" name="topright"/>
  <outline>
    <contour>
      <point x="411" y="-10" type="curve" smooth="yes"/>
      <point x="639" y="-10"/>
      <point x="766" y="137"/>
      <point x="766" y="358" type="curve" smooth="yes"/>
      <point x="766" y="580"/>
      <point x="639" y="725"/>
      <point x="412" y="725" type="curve" smooth="yes"/>
      <point x="171" y="725"/>
      <point x="54" y="580"/>
      <point x="54" y="359" type="curve" smooth="yes"/>
      <point x="54" y="137"/>
      <point x="171" y="-10"/>
    </contour>
    <contour>
      <point x="411" y="63" type="curve" smooth="yes"/>
      <point x="304" y="63"/>
      <point x="264" y="172"/>
      <point x="264" y="358" type="curve" smooth="yes"/>
      <point x="264" y="544"/>
      <point x="304" y="652"/>
      <point x="412" y="652" type="curve" smooth="yes"/>
      <point x="518" y="652"/>
      <point x="556" y="544"/>
      <point x="556" y="358" type="curve" smooth="yes"/>
      <point x="556" y="172"/>
      <point x="518" y="63"/>
    </contour>
  </outline>
</glyph>
<glyph name="P.mono" format="2">
  <advance width="600"/>
  <unicode hex="0050"/>
  <anchor x="300" y="0" name="bottom"/>
  <anchor x="300" y="714" name="top"/>
  <anchor x="600" y="714" name="topright"/>
  <outline>
    <contour>
      <point x="60" y="0" type="line"/>
      <point x="225" y="0" type="line"/>
      <point x="225" y="237" type="line"/>
      <point x="319" y="237" type="line" smooth="yes"/>
      <point x="500" y="237"/>
      <point x="570" y="351"/>
      <point x="570" y="486" type="curve" smooth="yes"/>
      <point x="570" y="632"/>
      <point x="488" y="714"/>
      <point x="324" y="714" type="curve" smooth="yes"/>
      <point x="60" y="714" type="line"/>
    </contour>
    <contour>
      <point x="299" y="382" type="curve" smooth="yes"/>
      <point x="225" y="382" type="line"/>
      <point x="225" y="569" type="line"/>
      <point x="302" y="569" type="line" smooth="yes"/>
      <point x="368" y="569"/>
      <point x="395" y="535"/>
      <point x="395" y="484" type="curve" smooth="yes"/>
      <point x="395" y="417"/>
      <point x="359" y="382"/>
    </contour>
  </outline>
</glyph>
<glyph name="P.serif" format="2">
  <advance width="663"/>
  <unicode hex="0050"/>
  <anchor x="213" y="0" name="bottom"/>
  <anchor x="332" y="714" name="top"/>
  <anchor x="683" y="714" name="topright"/>
  <outline>
    <contour>
      <point x="21" y="0" type="line"/>
      <point x="426" y="0" type="line"/>
      <point x="426" y="61" type="line"/>
      <point x="359" y="61" type="line" smooth="yes"/>
      <point x="334" y="61"/>
      <point x="313" y="67"/>
      <point x="313" y="116" type="curve" smooth="yes"/>
      <point x="313" y="269" type="line"/>
      <point x="335" y="269" type="line" smooth="yes"/>
      <point x="572" y="269"/>
      <point x="660" y="367"/>
      <point x="660" y="500" type="curve" smooth="yes"/>
      <point x="660" y="643"/>
      <point x="565" y="714"/>
      <point x="357" y="714" type="curve"/>
      <point x="21" y="714" type="line"/>
      <point x="21" y="653" type="line"/>
      <point x="66" y="653" type="line" smooth="yes"/>
      <point x="88" y="653"/>
      <point x="113" y="646"/>
      <point x="113" y="597" type="curve" smooth="yes"/>
      <point x="113" y="121" type="line"/>
      <point x="113" y="68"/>
      <point x="89" y="61"/>
      <point x="61" y="61" type="curve" smooth="yes"/>
      <point x="21" y="61" type="line"/>
    </contour>
    <contour>
      <point x="326" y="335" type="curve" smooth="yes"/>
      <point x="312" y="335" type="line"/>
      <point x="312" y="647" type="line"/>
      <point x="340" y="647" type="line"/>
      <point x="416" y="647"/>
      <point x="452" y="599"/>
      <point x="452" y="496" type="curve" smooth="yes"/>
      <point x="452" y="381"/>
      <point x="413" y="335"/>
    </contour>
  </outline>
</glyph>
<glyph name="Q.mono" format="2">
  <advance width="600"/>
  <unicode hex="0051"/>
  <anchor x="300" y="-220" name="bottom"/>
  <anchor x="300" y="714" name="top"/>
  <anchor x="600" y="714" name="topright"/>
  <outline>
    <contour>
      <point x="394" y="-180" type="line"/>
      <point x="580" y="-180" type="line"/>
      <point x="441" y="93" type="line"/>
      <point x="300" y="27" type="line"/>
    </contour>
    <component base="O"/>
  </outline>
</glyph>
<glyph name="Q.serif" format="2">
  <advance width="820"/>
  <unicode hex="0051"/>
  <anchor x="410" y="-240" name="bottom"/>
  <anchor x="410" y="714" name="top"/>
  <anchor x="800" y="714" name="topright"/>
  <outline>
    <contour>
      <point x="590" y="-240" type="curve" smooth="yes"/>
      <point x="683" y="-240" type="line"/>
      <point x="683" y="-174" type="line"/>
      <point x="667" y="-174" type="line" smooth="yes"/>
      <point x="612" y="-174"/>
      <point x="537" y="-151"/>
      <point x="526" y="3" type="curve"/>
      <point x="682" y="48"/>
      <point x="766" y="177"/>
      <point x="766" y="358" type="curve" smooth="yes"/>
      <point x="766" y="580"/>
      <point x="639" y="725"/>
      <point x="412" y="725" type="curve" smooth="yes"/>
      <point x="171" y="725"/>
      <point x="54" y="580"/>
      <point x="54" y="359" type="curve" smooth="yes"/>
      <point x="54" y="169"/>
      <point x="140" y="34"/>
      <point x="317" y="-1" type="curve"/>
      <point x="330" y="-169"/>
      <point x="460" y="-240"/>
    </contour>
    <contour>
      <point x="411" y="63" type="curve" smooth="yes"/>
      <point x="304" y="63"/>
      <point x="264" y="172"/>
      <point x="264" y="358" type="curve" smooth="yes"/>
      <point x="264" y="544"/>
      <point x="304" y="652"/>
      <point x="412" y="652" type="curve" smooth="yes"/>
      <point x="518" y="652"/>
      <point x="556" y="544"/>
      <point x="556" y="358" type="curve" smooth="yes"/>
      <point x="556" y="172"/>
      <point x="518" y="63"/>
    </contour>
  </outline>
</glyph>
<glyph name="R.mono" format="2">
  <advance width="600"/>
  <unicode hex="0052"/>
  <anchor x="322" y="0" name="bottom"/>
  <anchor x="300" y="714" name="top"/>
  <anchor x="580" y="714" name="topright"/>
  <outline>
    <contour>
      <point x="60" y="0" type="line"/>
      <point x="224" y="0" type="line"/>
      <point x="224" y="258" type="line"/>
      <point x="294" y="258" type="line"/>
      <point x="409" y="0" type="line"/>
      <point x="595" y="0" type="line"/>
      <point x="437" y="311" type="line"/>
      <point x="509" y="357"/>
      <point x="546" y="417"/>
      <point x="546" y="507" type="curve" smooth="yes"/>
      <point x="546" y="643"/>
      <point x="462" y="714"/>
      <point x="285" y="714" type="curve" smooth="yes"/>
      <point x="60" y="714" type="line"/>
    </contour>
    <contour>
      <point x="284" y="403" type="curve" smooth="yes"/>
      <point x="224" y="403" type="line"/>
      <point x="224" y="569" type="line"/>
      <point x="289" y="569" type="line" smooth="yes"/>
      <point x="352" y="569"/>
      <point x="381" y="539"/>
      <point x="381" y="490" type="curve" smooth="yes"/>
      <point x="381" y="428"/>
      <point x="337" y="403"/>
    </contour>
  </outline>
</glyph>
<glyph name="R.serif" format="2">
  <advance width="753"/>
  <unicode hex="0052"/>
  <anchor x="407" y="0" name="bottom"/>
  <anchor x="377" y="714" name="top"/>
  <anchor x="733" y="714" name="topright"/>
  <outline>
    <contour>
      <point x="21" y="0" type="line"/>
      <point x="386" y="0" type="line"/>
      <point x="386" y="61" type="line"/>
      <point x="362" y="61" type="line" smooth="yes"/>
      <point x="333" y="61"/>
      <point x="313" y="67"/>
      <point x="313" y="116" type="curve" smooth="yes"/>
      <point x="313" y="306" type="line"/>
      <point x="366" y="306" type="line"/>
      <point x="471" y="90" type="line" smooth="yes"/>
      <point x="508" y="15"/>
      <point x="590" y="0"/>
      <point x="706" y="0" type="curve" smooth="yes"/>
      <point x="753" y="0" type="line"/>
      <point x="753" y="61" type="line"/>
      <point x="746" y="61" type="line" smooth="yes"/>
      <point x="713" y="61"/>
      <point x="691" y="86"/>
      <point x="655" y="148" type="curve" smooth="yes"/>
      <point x="541" y="341" type="line"/>
      <point x="618" y="362"/>
      <point x="683" y="410"/>
      <point x="683" y="525" type="curve" smooth="yes"/>
      <point x="683" y="638"/>
      <point x="606" y="714"/>
      <point x="382" y="714" type="curve" smooth="yes"/>
      <point x="21" y="714" type="line"/>
      <point x="21" y="653" type="line"/>
      <point x="59" y="653" type="line" smooth="yes"/>
      <point x="79" y="653"/>
      <point x="113" y="646"/>
      <point x="113" y="597" type="curve" smooth="yes"/>
      <point x="113" y="116" type="line" smooth="yes"/>
      <point x="113" y="67"/>
      <point x="84" y="61"/>
      <point x="59" y="61" type="curve" smooth="yes"/>
      <point x="21" y="61" type="line"/>
    </contour>
    <contour>
      <point x="358" y="372" type="curve" smooth="yes"/>
      <point x="313" y="372" type="line"/>
      <point x="313" y="647" type="line"/>
      <point x="356" y="647" type="line"/>
      <point x="430" y="647"/>
      <point x="470" y="609"/>
      <point x="470" y="513" type="curve" smooth="yes"/>
      <point x="470" y="419"/>
      <point x="436" y="372"/>
    </contour>
  </outline>
</glyph>
<glyph name="S.mono" format="2">
  <advance width="600"/>
  <unicode hex="0053"/>
  <anchor x="300" y="0" name="bottom"/>
  <anchor x="316" y="714" name="top"/>
  <anchor x="580" y="714" name="topright"/>
  <outline>
    <contour>
      <point x="275" y="-10" type="curve" smooth="yes"/>
      <point x="493" y="-10"/>
      <point x="554" y="92"/>
      <point x="554" y="198" type="curve" smooth="yes"/>
      <point x="554" y="318"/>
      <point x="477" y="364"/>
      <point x="387" y="411" type="curve" smooth="yes"/>
      <point x="276" y="469"/>
      <point x="252" y="482"/>
      <point x="252" y="519" type="curve" smooth="yes"/>
      <point x="252" y="562"/>
      <point x="286" y="574"/>
      <point x="335" y="574" type="curve" smooth="yes"/>
      <point x="379" y="574"/>
      <point x="435" y="564"/>
      <point x="496" y="534" type="curve"/>
      <point x="551" y="673" type="line"/>
      <point x="489" y="703"/>
      <point x="415" y="725"/>
      <point x="318" y="725" type="curve" smooth="yes"/>
      <point x="141" y="725"/>
      <point x="73" y="652"/>
      <point x="73" y="528" type="curve" smooth="yes"/>
      <point x="73" y="417"/>
      <point x="127" y="368"/>
      <point x="236" y="307" type="curve" smooth="yes"/>
      <point x="329" y="255"/>
      <point x="374" y="245"/>
      <point x="374" y="196" type="curve" smooth="yes"/>
      <point x="374" y="152"/>
      <point x="338" y="140"/>
      <point x="280" y="140" type="curve" smooth="yes"/>
      <point x="216" y="140"/>
      <point x="142" y="155"/>
      <point x="60" y="203" type="curve"/>
      <point x="60" y="35" type="line"/>
      <point x="138" y="2"/>
      <point x="200" y="-10"/>
    </contour>
  </outline>
</glyph>
<glyph name="S.serif" format="2">
  <advance width="605"/>
  <unicode hex="0053"/>
  <anchor x="303" y="0" name="bottom"/>
  <anchor x="311" y="714" name="top"/>
  <anchor x="585" y="714" name="topright"/>
  <outline>
    <contour>
      <point x="284" y="-10" type="curve" smooth="yes"/>
      <point x="462" y="-10"/>
      <point x="575" y="82"/>
      <point x="575" y="212" type="curve" smooth="yes"/>
      <point x="575" y="307"/>
      <point x="532" y="377"/>
      <point x="380" y="438" type="curve" smooth="yes"/>
      <point x="231" y="498"/>
      <point x="203" y="539"/>
      <point x="203" y="579" type="curve" smooth="yes"/>
      <point x="203" y="632"/>
      <point x="242" y="655"/>
      <point x="291" y="655" type="curve" smooth="yes"/>
      <point x="362" y="655"/>
      <point x="402" y="576"/>
      <point x="402" y="509" type="curve"/>
      <point x="509" y="509"/>
      <point x="547" y="548"/>
      <point x="547" y="598" type="curve" smooth="yes"/>
      <point x="547" y="659"/>
      <point x="477" y="724"/>
      <point x="315" y="724" type="curve" smooth="yes"/>
      <point x="163" y="724"/>
      <point x="46" y="646"/>
      <point x="46" y="518" type="curve" smooth="yes"/>
      <point x="46" y="429"/>
      <point x="88" y="355"/>
      <point x="240" y="293" type="curve" smooth="yes"/>
      <point x="348" y="249"/>
      <point x="416" y="217"/>
      <point x="416" y="153" type="curve" smooth="yes"/>
      <point x="416" y="107"/>
      <point x="376" y="58"/>
      <point x="306" y="58" type="curve" smooth="yes"/>
      <point x="236" y="58"/>
      <point x="157" y="105"/>
      <point x="157" y="241" type="curve"/>
      <point x="90" y="241"/>
      <point x="24" y="218"/>
      <point x="24" y="129" type="curve" smooth="yes"/>
      <point x="24" y="78"/>
      <point x="69" y="-10"/>
    </contour>
  </outline>
</glyph>
<glyph name="T.mono" format="2">
  <advance width="600"/>
  <unicode hex="0054"/>
  <anchor x="301" y="0" name="bottom"/>
  <anchor x="300" y="357" name="center"/>
  <anchor x="300" y="714" name="top"/>
  <anchor x="580" y="714" name="topright"/>
  <outline>
    <contour>
      <point x="212" y="0" type="line"/>
      <point x="387" y="0" type="line"/>
      <point x="387" y="564" type="line"/>
      <point x="580" y="564" type="line"/>
      <point x="580" y="714" type="line"/>
      <point x="20" y="714" type="line"/>
      <point x="20" y="564" type="line"/>
      <point x="212" y="564" type="line"/>
    </contour>
  </outline>
</glyph>
<glyph name="T.serif" format="2">
  <advance width="682"/>
  <unicode hex="0054"/>
  <anchor x="341" y="0" name="bottom"/>
  <anchor x="341" y="357" name="center"/>
  <anchor x="341" y="714" name="top"/>
  <anchor x="662" y="714" name="topright"/>
  <outline>
    <contour>
      <point x="147" y="0" type="line"/>
      <point x="537" y="0" type="line"/>
      <point x="537" y="61" type="line"/>
      <point x="505" y="61" type="line" smooth="yes"/>
      <point x="468" y="61"/>
      <point x="443" y="68"/>
      <point x="443" y="121" type="curve" smooth="yes"/>
      <point x="443" y="645" type="line"/>
      <point x="511" y="645" type="line" smooth="yes"/>
      <point x="571" y="645"/>
      <point x="589" y="626"/>
      <point x="594" y="582" type="curve" smooth="yes"/>
      <point x="602" y="506" type="line"/>
      <point x="680" y="506" type="line"/>
      <point x="675" y="714" type="line"/>
      <point x="8" y="714" type="line"/>
      <point x="3" y="506" type="line"/>
      <point x="81" y="506" type="line"/>
      <point x="90" y="582" type="line" smooth="yes"/>
      <point x="95" y="626"/>
      <point x="113" y="645"/>
      <point x="173" y="645" type="curve" smooth="yes"/>
      <point x="241" y="645" type="line"/>
      <point x="241" y="125" type="line"/>
      <point x="241" y="69"/>
      <point x="217" y="61"/>
      <point x="179" y="61" type="curve" smooth="yes"/>
      <point x="147" y="61" type="line"/>
    </contour>
  </outline>
</glyph>
<glyph name="U.mono" format="2">
  <advance width="600"/>
  <unicode hex="0055"/>
  <anchor x="300" y="0" name="bottom"/>
  <anchor x="540" y="10" name="ogonek"/>
  <anchor x="300" y="714" name="top"/>
  <anchor x="580" y="714" name="topright"/>
  <outline>
    <contour>
      <point x="300" y="-10" type="curve" smooth="yes"/>
      <point x="468" y="-10"/>
      <point x="560" y="93"/>
      <point x="560" y="263" type="curve" smooth="yes"/>
      <point x="560" y="714" type="line"/>
      <point x="385" y="714" type="line"/>
      <point x="385" y="274" type="line" smooth="yes"/>
      <point x="385" y="176"/>
      <point x="352" y="145"/>
      <point x="297" y="145" type="curve" smooth="yes"/>
      <point x="241" y="145"/>
      <point x="215" y="177"/>
      <point x="215" y="273" type="curve" smooth="yes"/>
      <point x="215" y="714" type="line"/>
      <point x="40" y="714" type="line"/>
      <point x="40" y="259" type="line" smooth="yes"/>
      <point x="40" y="84"/>
      <point x="140" y="-10"/>
    </contour>
  </outline>
</glyph>
<glyph name="U.serif" format="2">
  <advance width="769"/>
  <unicode hex="0055"/>
  <anchor x="385" y="0" name="bottom"/>
  <anchor x="429" y="714" name="top"/>
  <anchor x="769" y="714" name="topright"/>
  <outline>
    <contour>
      <point x="396" y="-10" type="curve" smooth="yes"/>
      <point x="585" y="-10"/>
      <point x="659" y="83"/>
      <point x="659" y="217" type="curve" smooth="yes"/>
      <point x="659" y="593" type="line" smooth="yes"/>
      <point x="659" y="646"/>
      <point x="687" y="653"/>
      <point x="723" y="653" type="curve" smooth="yes"/>
      <point x="753" y="653" type="line"/>
      <point x="753" y="714" type="line"/>
      <point x="483" y="714" type="line"/>
      <point x="483" y="653" type="line"/>
      <point x="512" y="653" type="line" smooth="yes"/>
      <point x="548" y="653"/>
      <point x="574" y="646"/>
      <point x="574" y="597" type="curve" smooth="yes"/>
      <point x="574" y="219" type="line" smooth="yes"/>
      <point x="574" y="109"/>
      <point x="516" y="69"/>
      <point x="446" y="69" type="curve" smooth="yes"/>
      <point x="359" y="69"/>
      <point x="310" y="101"/>
      <point x="310" y="210" type="curve" smooth="yes"/>
      <point x="310" y="593" type="line"/>
      <point x="310" y="646"/>
      <point x="338" y="653"/>
      <point x="373" y="653" type="curve" smooth="yes"/>
      <point x="402" y="653" type="line"/>
      <point x="402" y="714" type="line"/>
      <point x="17" y="714" type="line"/>
      <point x="17" y="653" type="line"/>
      <point x="46" y="653" type="line" smooth="yes"/>
      <point x="81" y="653"/>
      <point x="110" y="646"/>
      <point x="110" y="597" type="curve" smooth="yes"/>
      <point x="110" y="219" type="line" smooth="yes"/>
      <point x="110" y="55"/>
      <point x="229" y="-10"/>
    </contour>
  </outline>
</glyph>
<glyph name="V.mono" format="2">
  <advance width="600"/>
  <unicode hex="0056"/>
  <anchor x="300" y="0" name="bottom"/>
  <anchor x="300" y="714" name="top"/>
  <anchor x="580" y="714" name="topright"/>
  <outline>
    <contour>
      <point x="186" y="0" type="line"/>
      <point x="415" y="0" type="line"/>
      <point x="595" y="714" type="line"/>
      <point x="420" y="714" type="line"/>
      <point x="334" y="298" type="line" smooth="yes"/>
      <point x="326" y="259"/>
      <point x="313" y="185"/>
      <point x="306" y="140" type="curve"/>
      <point x="301" y="140" type="line"/>
      <point x="294" y="185"/>
      <point x="279" y="257"/>
      <point x="270" y="298" type="curve" smooth="yes"/>
      <point x="180" y="714" type="line"/>
      <point x="5" y="714" type="line"/>
    </contour>
  </outline>
</glyph>
<glyph name="V.serif" format="2">
  <advance width="715"/>
  <unicode hex="0056"/>
  <anchor x="358" y="0" name="bottom"/>
  <anchor x="410" y="714" name="top"/>
  <anchor x="695" y="714" name="topright"/>
  <outline>
    <contour>
      <point x="86" y="609" type="curve" smooth="yes"/>
      <point x="297" y="0" type="line"/>
      <point x="416" y="0" type="line"/>
      <point x="618" y="584" type="line" smooth="yes"/>
      <point x="638" y="642"/>
      <point x="650" y="653"/>
      <point x="680" y="653" type="curve" smooth="yes"/>
      <point x="715" y="653" type="line"/>
      <point x="715" y="714" type="line"/>
      <point x="457" y="714" type="line"/>
      <point x="457" y="653" type="line"/>
      <point x="514" y="653" type="line" smooth="yes"/>
      <point x="534" y="653"/>
      <point x="541" y="643"/>
      <point x="541" y="633" type="curve" smooth="yes"/>
      <point x="541" y="619"/>
      <point x="533" y="596"/>
      <point x="524" y="568" type="curve" smooth="yes"/>
      <point x="429" y="283" type="line" smooth="yes"/>
      <point x="421" y="260"/>
      <point x="410" y="217"/>
      <point x="407" y="194" type="curve"/>
      <point x="404" y="221"/>
      <point x="395" y="273"/>
      <point x="390" y="288" type="curve" smooth="yes"/>
      <point x="296" y="578" type="line" smooth="yes"/>
      <point x="291" y="595"/>
      <point x="284" y="616"/>
      <point x="284" y="631" type="curve" smooth="yes"/>
      <point x="284" y="645"/>
      <point x="295" y="653"/>
      <point x="313" y="653" type="curve" smooth="yes"/>
      <point x="361" y="653" type="line"/>
      <point x="361" y="714" type="line"/>
      <point x="0" y="714" type="line"/>
      <point x="0" y="653" type="line"/>
      <point x="30" y="653" type="line" smooth="yes"/>
      <point x="50" y="653"/>
      <point x="74" y="644"/>
    </contour>
  </outline>
</glyph>
<glyph name="W.mono" format="2">
  <advance width="600"/>
  <unicode hex="0057"/>
  <anchor x="300" y="0" name="bottom"/>
  <anchor x="300" y="714" name="top"/>
  <anchor x="580" y="714" name="topright"/>
  <outline>
    <contour>
      <point x="41" y="0" type="line"/>
      <point x="260" y="0" type="line"/>
      <point x="274" y="143" type="line" smooth="yes"/>
      <point x="280" y="200"/>
      <point x="293" y="315"/>
      <point x="297" y="371" type="curve"/>
      <point x="300" y="371" type="line"/>
      <point x="305" y="315"/>
      <point x="318" y="200"/>
      <point x="325" y="143" type="curve" smooth="yes"/>
      <point x="342" y="0" type="line"/>
      <point x="555" y="0" type="line"/>
      <point x="595" y="714" type="line"/>
      <point x="445" y="714" type="line"/>
      <point x="430" y="486"/>
      <point x="427" y="466"/>
      <point x="427" y="375" type="curve" smooth="yes"/>
      <point x="427" y="312"/>
      <point x="429" y="236"/>
      <point x="429" y="140" type="curve"/>
      <point x="424" y="140" type="line"/>
      <point x="416" y="199"/>
      <point x="401" y="335"/>
      <point x="394" y="394" type="curve" smooth="yes"/>
      <point x="374" y="552" type="line"/>
      <point x="226" y="552" type="line"/>
      <point x="203" y="395" type="line" smooth="yes"/>
      <point x="194" y="337"/>
      <point x="175" y="200"/>
      <point x="170" y="141" type="curve"/>
      <point x="165" y="141" type="line"/>
      <point x="166" y="228"/>
      <point x="167" y="303"/>
      <point x="167" y="364" type="curve" smooth="yes"/>
      <point x="167" y="436"/>
      <point x="164" y="468"/>
      <point x="148" y="714" type="curve"/>
      <point x="5" y="714" type="line"/>
    </contour>
  </outline>
</glyph>
<glyph name="W.serif" format="2">
  <advance width="1082"/>
  <unicode hex="0057"/>
  <anchor x="541" y="0" name="bottom"/>
  <anchor x="591" y="714" name="top"/>
  <anchor x="1062" y="714" name="topright"/>
  <outline>
    <contour>
      <point x="78" y="600" type="curve" smooth="yes"/>
      <point x="261" y="0" type="line"/>
      <point x="408" y="0" type="line"/>
      <point x="552" y="443" type="line"/>
      <point x="693" y="0" type="line"/>
      <point x="839" y="0" type="line"/>
      <point x="994" y="575" type="line" smooth="yes"/>
      <point x="1012" y="641"/>
      <point x="1031" y="653"/>
      <point x="1070" y="653" type="curve" smooth="yes"/>
      <point x="1089" y="653" type="line"/>
      <point x="1089" y="714" type="line"/>
      <point x="815" y="714" type="line"/>
      <point x="815" y="653" type="line"/>
      <point x="838" y="653" type="line" smooth="yes"/>
      <point x="882" y="653"/>
      <point x="899" y="641"/>
      <point x="899" y="607" type="curve" smooth="yes"/>
      <point x="899" y="589"/>
      <point x="890" y="554"/>
      <point x="883" y="528" type="curve" smooth="yes"/>
      <point x="845" y="379" type="line" smooth="yes"/>
      <point x="831" y="323"/>
      <point x="811" y="246"/>
      <point x="803" y="203" type="curve"/>
      <point x="795" y="245"/>
      <point x="781" y="300"/>
      <point x="761" y="363" type="curve" smooth="yes"/>
      <point x="650" y="707" type="line"/>
      <point x="547" y="707" type="line"/>
      <point x="418" y="326" type="line" smooth="yes"/>
      <point x="402" y="278"/>
      <point x="392" y="244"/>
      <point x="384" y="207" type="curve"/>
      <point x="378" y="245"/>
      <point x="367" y="291"/>
      <point x="356" y="332" type="curve" smooth="yes"/>
      <point x="300" y="538" type="line" smooth="yes"/>
      <point x="294" y="559"/>
      <point x="288" y="594"/>
      <point x="288" y="605" type="curve" smooth="yes"/>
      <point x="288" y="638"/>
      <point x="308" y="653"/>
      <point x="348" y="653" type="curve" smooth="yes"/>
      <point x="371" y="653" type="line"/>
      <point x="371" y="714" type="line"/>
      <point x="-6" y="714" type="line"/>
      <point x="-6" y="653" type="line"/>
      <point x="7" y="653" type="line" smooth="yes"/>
      <point x="46" y="653"/>
      <point x="65" y="642"/>
    </contour>
  </outline>
</glyph>
<glyph name="X.mono" format="2">
  <advance width="600"/>
  <unicode hex="0058"/>
  <anchor x="300" y="0" name="bottom"/>
  <anchor x="300" y="714" name="top"/>
  <anchor x="580" y="714" name="topright"/>
  <outline>
    <contour>
      <point x="15" y="0" type="line"/>
      <point x="197" y="0" type="line"/>
      <point x="299" y="204" type="line"/>
      <point x="398" y="0" type="line"/>
      <point x="585" y="0" type="line"/>
      <point x="384" y="370" type="line"/>
      <point x="568" y="714" type="line"/>
      <point x="384" y="714" type="line"/>
      <point x="299" y="534" type="line"/>
      <point x="210" y="714" type="line"/>
      <point x="29" y="714" type="line"/>
      <point x="215" y="367" type="line"/>
    </contour>
  </outline>
</glyph>
<glyph name="Y.mono" format="2">
  <advance width="600"/>
  <unicode hex="0059"/>
  <anchor x="300" y="0" name="bottom"/>
  <anchor x="300" y="714" name="top"/>
  <anchor x="20" y="714" name="topleft"/>
  <anchor x="580" y="714" name="topright"/>
  <outline>
    <contour>
      <point x="213" y="0" type="line"/>
      <point x="388" y="0" type="line"/>
      <point x="388" y="276" type="line"/>
      <point x="585" y="714" type="line"/>
      <point x="403" y="714" type="line"/>
      <point x="302" y="460" type="line"/>
      <point x="199" y="714" type="line"/>
      <point x="15" y="714" type="line"/>
      <point x="213" y="276" type="line"/>
    </contour>
  </outline>
</glyph>
<glyph name="Y.serif" format="2">
  <advance width="743"/>
  <unicode hex="0059"/>
  <anchor x="372" y="0" name="bottom"/>
  <anchor x="372" y="714" name="top"/>
  <anchor x="723" y="714" name="topright"/>
  <outline>
    <contour>
      <point x="168" y="0" type="line"/>
      <point x="580" y="0" type="line"/>
      <point x="580" y="61" type="line"/>
      <point x="532" y="61" type="line" smooth="yes"/>
      <point x="501" y="61"/>
      <point x="475" y="71"/>
      <point x="475" y="126" type="curve" smooth="yes"/>
      <point x="475" y="228" type="line"/>
      <point x="648" y="576" type="line" smooth="yes"/>
      <point x="679" y="638"/>
      <point x="691" y="653"/>
      <point x="729" y="653" type="curve" smooth="yes"/>
      <point x="741" y="653" type="line"/>
      <point x="741" y="714" type="line"/>
      <point x="466" y="714" type="line"/>
      <point x="466" y="653" type="line"/>
      <point x="485" y="653" type="line" smooth="yes"/>
      <point x="533" y="653"/>
      <point x="555" y="638"/>
      <point x="555" y="600" type="curve" smooth="yes"/>
      <point x="555" y="593"/>
      <point x="553" y="574"/>
      <point x="539" y="540" type="curve" smooth="yes"/>
      <point x="485" y="427" type="line" smooth="yes"/>
      <point x="465" y="384"/>
      <point x="446" y="343"/>
      <point x="433" y="307" type="curve"/>
      <point x="422" y="338"/>
      <point x="414" y="359"/>
      <point x="396" y="395" type="curve" smooth="yes"/>
      <point x="322" y="542" type="line" smooth="yes"/>
      <point x="312" y="562"/>
      <point x="308" y="583"/>
      <point x="308" y="598" type="curve" smooth="yes"/>
      <point x="308" y="633"/>
      <point x="336" y="653"/>
      <point x="379" y="653" type="curve" smooth="yes"/>
      <point x="383" y="653" type="line"/>
      <point x="383" y="714" type="line"/>
      <point x="4" y="714" type="line"/>
      <point x="4" y="653" type="line"/>
      <point x="17" y="653" type="line" smooth="yes"/>
      <point x="60" y="653"/>
      <point x="68" y="640"/>
      <point x="88" y="600" type="curve" smooth="yes"/>
      <point x="273" y="230" type="line"/>
      <point x="273" y="128" type="line" smooth="yes"/>
      <point x="273" y="72"/>
      <point x="246" y="61"/>
      <point x="203" y="61" type="curve" smooth="yes"/>
      <point x="168" y="61" type="line"/>
    </contour>
  </outline>
</glyph>
<glyph name="Z.mono" format="2">
  <advance width="600"/>
  <unicode hex="005A"/>
  <anchor x="311" y="0" name="bottom"/>
  <anchor x="308" y="714" name="top"/>
  <anchor x="580" y="714" name="topright"/>
  <outline>
    <contour>
      <point x="60" y="0" type="line"/>
      <point x="550" y="0" type="line"/>
      <point x="550" y="150" type="line"/>
      <point x="260" y="150" type="line"/>
      <point x="543" y="595" type="line"/>
      <point x="543" y="714" type="line"/>
      <point x="76" y="714" type="line"/>
      <point x="76" y="569" type="line"/>
      <point x="352" y="569" type="line"/>
      <point x="60" y="119" type="line"/>
    </contour>
  </outline>
</glyph>
<glyph name="Z.serif" format="2">
  <advance width="721"/>
  <unicode hex="005A"/>
  <anchor x="361" y="0" name="bottom"/>
  <anchor x="361" y="714" name="top"/>
  <anchor x="701" y="714" name="topright"/>
  <outline>
    <contour>
      <point x="46" y="0" type="line"/>
      <point x="670" y="0" type="line"/>
      <point x="675" y="229" type="line"/>
      <point x="588" y="229" type="line"/>
      <point x="583" y="182" type="line" smooth="yes"/>
      <point x="578" y="128"/>
      <point x="560" y="69"/>
      <point x="462" y="69" type="curve" smooth="yes"/>
      <point x="272" y="69" type="line"/>
      <point x="648" y="656" type="line"/>
      <point x="648" y="714" type="line"/>
      <point x="70" y="714" type="line"/>
      <point x="65" y="485" type="line"/>
      <point x="152" y="485" type="line"/>
      <point x="157" y="547" type="line" smooth="yes"/>
      <point x="162" y="610"/>
      <point x="173" y="645"/>
      <point x="239" y="645" type="curve" smooth="yes"/>
      <point x="421" y="645" type="line"/>
      <point x="46" y="57" type="line"/>
    </contour>
  </outline>
</glyph>
<glyph name="bracketleft.mono" format="2">
  <advance width="600"/>
  <unicode hex="005B"/>
  <outline>
    <contour>
      <point x="220" y="-168" type="line"/>
      <point x="475" y="-168" type="line"/>
      <point x="475" y="-44" type="line"/>
      <point x="373" y="-44" type="line"/>
      <point x="373" y="610" type="line"/>
      <point x="475" y="610" type="line"/>
      <point x="475" y="734" type="line"/>
      <point x="220" y="734" type="line"/>
    </contour>
  </outline>
</glyph>
<glyph name="bracketleft.orya" format="2">
  <advance width="395"/>
  <unicode hex="005B"/>
  <outline>
    <contour>
      <point x="236" y="749" type="curve"/>
      <point x="342" y="761" type="line"/>
      <point x="342" y="799" type="line"/>
      <point x="112" y="799" type="line"/>
      <point x="115" y="681"/>
      <point x="115" y="562"/>
      <point x="115" y="445" type="curve" smooth="yes"/>
      <point x="115" y="176" type="line" smooth="yes"/>
      <point x="115" y="57"/>
      <point x="115" y="-63"/>
      <point x="112" y="-178" type="curve"/>
      <point x="342" y="-178" type="line"/>
      <point x="342" y="-140" type="line"/>
      <point x="236" y="-128" type="line"/>
      <point x="234" y="-26"/>
      <point x="234" y="76"/>
      <point x="234" y="176" type="curve" smooth="yes"/>
      <point x="234" y="445" type="line" smooth="yes"/>
      <point x="234" y="547"/>
      <point x="234" y="649"/>
    </contour>
  </outline>
</glyph>
<glyph name="backslash.orya" format="2">
  <advance width="462"/>
  <unicode hex="005C"/>
  <outline>
    <contour>
      <point x="311" y="-179" type="line"/>
      <point x="388" y="-179" type="line"/>
      <point x="90" y="793" type="line"/>
      <point x="12" y="793" type="line"/>
    </contour>
  </outline>
</glyph>
<glyph name="bracketright.serif" format="2">
  <advance width="454"/>
  <unicode hex="005D"/>
  <outline>
    <contour>
      <point x="37" y="-128" type="line"/>
      <point x="354" y="-128" type="line"/>
      <point x="354" y="760" type="line"/>
      <point x="37" y="760" type="line"/>
      <point x="37" y="699" type="line"/>
      <point x="80" y="699" type="line" smooth="yes"/>
      <point x="125" y="699"/>
      <point x="162" y="690"/>
      <point x="162" y="627" type="curve" smooth="yes"/>
      <point x="162" y="5" type="line" smooth="yes"/>
      <point x="162" y="-58"/>
      <point x="125" y="-67"/>
      <point x="80" y="-67" type="curve" smooth="yes"/>
      <point x="37" y="-67" type="line"/>
    </contour>
  </outline>
</glyph>
<glyph name="asciicircum.guru" format="2">
  <advance width="569"/>
  <unicode hex="005E"/>
  <outline>
    <contour>
      <point x="37" y="239" type="line"/>
      <point x="123" y="239" type="line"/>
      <point x="283" y="592" type="line"/>
      <point x="444" y="239" type="line"/>
      <point x="530" y="239" type="line"/>
      <point x="308" y="714" type="line"/>
      <point x="259" y="714" type="line"/>
    </contour>
  </outline>
</glyph>
<glyph name="asciicircum.mono" format="2">
  <advance width="600"/>
  <unicode hex="005E"/>
  <outline>
    <contour>
      <point x="30" y="244" type="line"/>
      <point x="173" y="244" type="line"/>
      <point x="294" y="511" type="line"/>
      <point x="425" y="244" type="line"/>
      <point x="570" y="244" type="line"/>
      <point x="333" y="716" type="line"/>
      <point x="250" y="716" type="line"/>
    </contour>
  </outline>
</glyph>
<glyph name="asciicircum.orya" format="2">
  <advance width="572"/>
  <unicode hex="005E"/>
  <outline>
    <contour>
      <point x="23" y="259" type="line"/>
      <point x="138" y="259" type="line"/>
      <point x="275" y="573" type="line"/>
      <point x="432" y="259" type="line"/>
      <point x="549" y="259" type="line"/>
      <point x="307" y="723" type="line"/>
      <point x="237" y="723" type="line"/>
    </contour>
  </outline>
</glyph>
<glyph name="grave.mono" format="2">
  <advance width="600"/>
  <unicode hex="0060"/>
  <outline>
    <contour>
      <point x="326" y="606" type="curve"/>
      <point x="449" y="606" type="line"/>
      <point x="449" y="620" type="line"/>
      <point x="424" y="653"/>
      <point x="372" y="724"/>
      <point x="346" y="766" type="curve"/>
      <point x="150" y="766" type="line"/>
      <point x="150" y="756" type="line"/>
      <point x="187" y="721"/>
      <point x="283" y="638"/>
    </contour>
  </outline>
</glyph>
<glyph name="grave.serif" format="2">
  <advance width="378"/>
  <unicode hex="0060"/>
  <outline>
    <contour>
      <point x="248" y="606" type="curve"/>
      <point x="338" y="606" type="line"/>
      <point x="338" y="619" type="line"/>
      <point x="309" y="657"/>
      <point x="255" y="721"/>
      <point x="234" y="766" type="curve"/>
      <point x="40" y="766" type="line"/>
      <point x="40" y="756" type="line"/>
      <point x="65" y="721"/>
      <point x="178" y="642"/>
    </contour>
  </outline>
</glyph>
<glyph name="a.mono" format="2">
  <advance width="600"/>
  <unicode hex="0061"/>
  <anchor x="306" y="0" name="bottom"/>
  <anchor x="540" y="10" name="ogonek"/>
  <anchor x="309" y="553" name="top"/>
  <anchor x="580" y="553" name="topright"/>
  <outline>
    <contour>
      <point x="227" y="-10" type="curve" smooth="yes"/>
      <point x="264" y="-10"/>
      <point x="335" y="-4"/>
      <point x="392" y="66" type="curve"/>
      <point x="396" y="66" type="line"/>
      <point x="415" y="0" type="line"/>
      <point x="545" y="0" type="line"/>
      <point x="545" y="377" type="line" smooth="yes"/>
      <point x="545" y="501"/>
      <point x="471" y="563"/>
      <point x="307" y="563" type="curve" smooth="yes"/>
      <point x="227" y="563"/>
      <point x="152" y="548"/>
      <point x="81" y="513" type="curve"/>
      <point x="134" y="393" type="line"/>
      <point x="188" y="418"/>
      <point x="246" y="427"/>
      <point x="289" y="427" type="curve" smooth="yes"/>
      <point x="353" y="427"/>
      <point x="379" y="407"/>
      <point x="379" y="369" type="curve" smooth="yes"/>
      <point x="379" y="350" type="line"/>
      <point x="264" y="346" type="line" smooth="yes"/>
      <point x="132" y="341"/>
      <point x="40" y="292"/>
      <point x="40" y="165" type="curve" smooth="yes"/>
      <point x="40" y="62"/>
      <point x="100" y="-10"/>
    </contour>
    <contour>
      <point x="271" y="125" type="curve" smooth="yes"/>
      <point x="226" y="125"/>
      <point x="202" y="143"/>
      <point x="202" y="179" type="curve" smooth="yes"/>
      <point x="202" y="226"/>
      <point x="241" y="242"/>
      <point x="321" y="243" type="curve" smooth="yes"/>
      <point x="379" y="244" type="line"/>
      <point x="379" y="217" type="line" smooth="yes"/>
      <point x="379" y="154"/>
      <point x="327" y="125"/>
    </contour>
  </outline>
</glyph>
<glyph name="a.serif" format="2">
  <advance width="626"/>
  <unicode hex="0061"/>
  <anchor x="488" y="0" name="bottom"/>
  <anchor x="313" y="536" name="top"/>
  <anchor x="606" y="536" name="topright"/>
  <outline>
    <contour>
      <point x="199" y="-10" type="curve" smooth="yes"/>
      <point x="270" y="-10"/>
      <point x="298" y="4"/>
      <point x="343" y="56" type="curve"/>
      <point x="353" y="56" type="line"/>
      <point x="378" y="0" type="line"/>
      <point x="601" y="0" type="line"/>
      <point x="601" y="61" type="line"/>
      <point x="597" y="61" type="line" smooth="yes"/>
      <point x="552" y="61"/>
      <point x="538" y="77"/>
      <point x="538" y="131" type="curve" smooth="yes"/>
      <point x="538" y="383" type="line" smooth="yes"/>
      <point x="538" y="507"/>
      <point x="461" y="551"/>
      <point x="308" y="551" type="curve" smooth="yes"/>
      <point x="185" y="551"/>
      <point x="83" y="521"/>
      <point x="83" y="445" type="curve" smooth="yes"/>
      <point x="83" y="394"/>
      <point x="133" y="375"/>
      <point x="239" y="375" type="curve"/>
      <point x="239" y="446"/>
      <point x="259" y="482"/>
      <point x="291" y="482" type="curve" smooth="yes"/>
      <point x="326" y="482"/>
      <point x="343" y="449"/>
      <point x="343" y="375" type="curve" smooth="yes"/>
      <point x="343" y="323" type="line"/>
      <point x="262" y="320" type="line" smooth="yes"/>
      <point x="114" y="315"/>
      <point x="41" y="265"/>
      <point x="41" y="155" type="curve" smooth="yes"/>
      <point x="41" y="43"/>
      <point x="112" y="-10"/>
    </contour>
    <contour>
      <point x="278" y="71" type="curve" smooth="yes"/>
      <point x="251" y="71"/>
      <point x="239" y="99"/>
      <point x="239" y="152" type="curve" smooth="yes"/>
      <point x="239" y="220"/>
      <point x="257" y="255"/>
      <point x="313" y="259" type="curve" smooth="yes"/>
      <point x="344" y="262" type="line"/>
      <point x="344" y="191" type="line"/>
      <point x="344" y="118"/>
      <point x="318" y="71"/>
    </contour>
  </outline>
</glyph>
<glyph name="b.mono" format="2">
  <advance width="600"/>
  <unicode hex="0062"/>
  <anchor x="300" y="0" name="bottom"/>
  <anchor x="300" y="760" name="top"/>
  <anchor x="580" y="760" name="topright"/>
  <outline>
    <contour>
      <point x="365" y="-10" type="curve" smooth="yes"/>
      <point x="516" y="-10"/>
      <point x="570" y="132"/>
      <point x="570" y="279" type="curve" smooth="yes"/>
      <point x="570" y="420"/>
      <point x="520" y="563"/>
      <point x="372" y="563" type="curve" smooth="yes"/>
      <point x="312" y="563"/>
      <point x="255" y="539"/>
      <point x="217" y="480" type="curve"/>
      <point x="210" y="480" type="line"/>
      <point x="214" y="536"/>
      <point x="217" y="573"/>
      <point x="217" y="587" type="curve" smooth="yes"/>
      <point x="217" y="760" type="line"/>
      <point x="45" y="760" type="line"/>
      <point x="45" y="0" type="line"/>
      <point x="175" y="0" type="line"/>
      <point x="205" y="56" type="line"/>
      <point x="217" y="56" type="line"/>
      <point x="259" y="7"/>
      <point x="313" y="-10"/>
    </contour>
    <contour>
      <point x="303" y="130" type="curve" smooth="yes"/>
      <point x="252" y="130"/>
      <point x="217" y="166"/>
      <point x="217" y="278" type="curve" smooth="yes"/>
      <point x="217" y="385"/>
      <point x="249" y="422"/>
      <point x="304" y="422" type="curve" smooth="yes"/>
      <point x="364" y="422"/>
      <point x="395" y="377"/>
      <point x="395" y="279" type="curve" smooth="yes"/>
      <point x="395" y="176"/>
      <point x="361" y="130"/>
    </contour>
  </outline>
</glyph>
<glyph name="c.mono" format="2">
  <advance width="600"/>
  <unicode hex="0063"/>
  <anchor x="330" y="0" name="bottom"/>
  <anchor x="313" y="553" name="top"/>
  <anchor x="580" y="553" name="topright"/>
  <outline>
    <contour>
      <point x="327" y="-10" type="curve" smooth="yes"/>
      <point x="390" y="-10"/>
      <point x="452" y="2"/>
      <point x="509" y="32" type="curve"/>
      <point x="509" y="181" type="line"/>
      <point x="451" y="140"/>
      <point x="392" y="130"/>
      <point x="353" y="130" type="curve" smooth="yes"/>
      <point x="282" y="130"/>
      <point x="230" y="171"/>
      <point x="230" y="280" type="curve" smooth="yes"/>
      <point x="230" y="374"/>
      <point x="270" y="422"/>
      <point x="348" y="422" type="curve" smooth="yes"/>
      <point x="383" y="422"/>
      <point x="417" y="416"/>
      <point x="478" y="392" type="curve"/>
      <point x="530" y="520" type="line"/>
      <point x="470" y="549"/>
      <point x="402" y="563"/>
      <point x="335" y="563" type="curve" smooth="yes"/>
      <point x="144" y="563"/>
      <point x="60" y="449"/>
      <point x="60" y="270" type="curve" smooth="yes"/>
      <point x="60" y="87"/>
      <point x="148" y="-10"/>
    </contour>
  </outline>
</glyph>
<glyph name="d.mono" format="2">
  <advance width="600"/>
  <unicode hex="0064"/>
  <anchor x="300" y="0" name="bottom"/>
  <anchor x="300" y="277" name="center"/>
  <anchor x="300" y="760" name="top"/>
  <anchor x="580" y="760" name="topright"/>
  <outline>
    <contour>
      <point x="226" y="-10" type="curve" smooth="yes"/>
      <point x="285" y="-10"/>
      <point x="343" y="13"/>
      <point x="383" y="70" type="curve"/>
      <point x="391" y="70" type="line"/>
      <point x="425" y="0" type="line"/>
      <point x="555" y="0" type="line"/>
      <point x="555" y="760" type="line"/>
      <point x="383" y="760" type="line"/>
      <point x="383" y="606" type="line" smooth="yes"/>
      <point x="383" y="568"/>
      <point x="385" y="544"/>
      <point x="396" y="480" type="curve"/>
      <point x="392" y="480" type="line"/>
      <point x="352" y="540"/>
      <point x="295" y="563"/>
      <point x="235" y="563" type="curve" smooth="yes"/>
      <point x="89" y="563"/>
      <point x="30" y="430"/>
      <point x="30" y="276" type="curve" smooth="yes"/>
      <point x="30" y="130"/>
      <point x="79" y="-10"/>
    </contour>
    <contour>
      <point x="301" y="130" type="curve" smooth="yes"/>
      <point x="243" y="130"/>
      <point x="206" y="172"/>
      <point x="206" y="272" type="curve" smooth="yes"/>
      <point x="206" y="368"/>
      <point x="241" y="422"/>
      <point x="305" y="422" type="curve" smooth="yes"/>
      <point x="380" y="422"/>
      <point x="398" y="363"/>
      <point x="398" y="273" type="curve" smooth="yes"/>
      <point x="398" y="259" type="line" smooth="yes"/>
      <point x="398" y="183"/>
      <point x="373" y="130"/>
    </contour>
  </outline>
</glyph>
<glyph name="e.mono" format="2">
  <advance width="600"/>
  <unicode hex="0065"/>
  <anchor x="310" y="0" name="bottom"/>
  <anchor x="305" y="10" name="ogonek"/>
  <anchor x="305" y="553" name="top"/>
  <anchor x="580" y="553" name="topright"/>
  <outline>
    <contour>
      <point x="336" y="-10" type="curve" smooth="yes"/>
      <point x="394" y="-10"/>
      <point x="471" y="-1"/>
      <point x="538" y="30" type="curve"/>
      <point x="538" y="170" type="line"/>
      <point x="486" y="138"/>
      <point x="422" y="124"/>
      <point x="362" y="124" type="curve" smooth="yes"/>
      <point x="273" y="124"/>
      <point x="210" y="156"/>
      <point x="204" y="222" type="curve"/>
      <point x="559" y="222" type="line"/>
      <point x="559" y="298" type="line" smooth="yes"/>
      <point x="559" y="461"/>
      <point x="468" y="563"/>
      <point x="306" y="563" type="curve" smooth="yes"/>
      <point x="131" y="563"/>
      <point x="40" y="451"/>
      <point x="40" y="277" type="curve" smooth="yes"/>
      <point x="40" y="95"/>
      <point x="140" y="-10"/>
    </contour>
    <contour>
      <point x="400" y="339" type="curve"/>
      <point x="207" y="339" type="line"/>
      <point x="212" y="395"/>
      <point x="244" y="437"/>
      <point x="305" y="437" type="curve" smooth="yes"/>
      <point x="362" y="437"/>
      <point x="399" y="399"/>
    </contour>
  </outline>
</glyph>
<glyph name="e.serif" format="2">
  <advance width="598"/>
  <unicode hex="0065"/>
  <anchor x="309" y="0" name="bottom"/>
  <anchor x="309" y="536" name="top"/>
  <anchor x="578" y="536" name="topright"/>
  <outline>
    <contour>
      <point x="320" y="-10" type="curve" smooth="yes"/>
      <point x="481" y="-10"/>
      <point x="542" y="55"/>
      <point x="542" y="115" type="curve" smooth="yes"/>
      <point x="542" y="141"/>
      <point x="523" y="159"/>
      <point x="498" y="166" type="curve"/>
      <point x="476" y="113"/>
      <point x="438" y="74"/>
      <point x="370" y="74" type="curve" smooth="yes"/>
      <point x="284" y="74"/>
      <point x="240" y="129"/>
      <point x="237" y="254" type="curve"/>
      <point x="561" y="254" type="line"/>
      <point x="561" y="309" type="line" smooth="yes"/>
      <point x="561" y="468"/>
      <point x="465" y="551"/>
      <point x="308" y="551" type="curve" smooth="yes"/>
      <point x="138" y="551"/>
      <point x="41" y="454"/>
      <point x="41" y="266" type="curve" smooth="yes"/>
      <point x="41" y="91"/>
      <point x="131" y="-10"/>
    </contour>
    <contour>
      <point x="370" y="325" type="curve"/>
      <point x="239" y="325" type="line"/>
      <point x="239" y="425"/>
      <point x="270" y="478"/>
      <point x="313" y="478" type="curve" smooth="yes"/>
      <point x="353" y="478"/>
      <point x="370" y="424"/>
    </contour>
  </outline>
</glyph>
<glyph name="f.serif" format="2">
  <advance width="435"/>
  <unicode hex="0066"/>
  <anchor x="218" y="0" name="bottom"/>
  <anchor x="293" y="768" name="top"/>
  <anchor x="515" y="768" name="topright"/>
  <outline>
    <contour>
      <point x="13" y="0" type="line"/>
      <point x="416" y="0" type="line"/>
      <point x="416" y="61" type="line"/>
      <point x="362" y="61" type="line" smooth="yes"/>
      <point x="339" y="61"/>
      <point x="299" y="68"/>
      <point x="299" y="121" type="curve" smooth="yes"/>
      <point x="299" y="453" type="line"/>
      <point x="435" y="453" type="line"/>
      <point x="435" y="536" type="line"/>
      <point x="299" y="536" type="line"/>
      <point x="299" y="588" type="line" smooth="yes"/>
      <point x="299" y="679"/>
      <point x="315" y="703"/>
      <point x="341" y="703" type="curve" smooth="yes"/>
      <point x="368" y="703"/>
      <point x="374" y="642"/>
      <point x="374" y="615" type="curve"/>
      <point x="481" y="615"/>
      <point x="504" y="653"/>
      <point x="504" y="693" type="curve" smooth="yes"/>
      <point x="504" y="726"/>
      <point x="476" y="768"/>
      <point x="328" y="768" type="curve" smooth="yes"/>
      <point x="164" y="768"/>
      <point x="105" y="691"/>
      <point x="105" y="563" type="curve" smooth="yes"/>
      <point x="105" y="536" type="line"/>
      <point x="17" y="536" type="line"/>
      <point x="17" y="453" type="line"/>
      <point x="105" y="453" type="line"/>
      <point x="105" y="121" type="line" smooth="yes"/>
      <point x="105" y="68"/>
      <point x="59" y="61"/>
      <point x="42" y="61" type="curve" smooth="yes"/>
      <point x="13" y="61" type="line"/>
    </contour>
  </outline>
</glyph>
<glyph name="g.mono" format="2">
  <advance width="600"/>
  <unicode hex="0067"/>
  <anchor x="300" y="-245" name="bottom"/>
  <anchor x="300" y="553" name="top"/>
  <anchor x="580" y="553" name="topright"/>
  <outline>
    <contour>
      <point x="250" y="-245" type="curve" smooth="yes"/>
      <point x="467" y="-245"/>
      <point x="555" y="-153"/>
      <point x="555" y="25" type="curve" smooth="yes"/>
      <point x="555" y="552" type="line"/>
      <point x="430" y="552" type="line"/>
      <point x="390" y="482" type="line"/>
      <point x="387" y="482" type="line"/>
      <point x="348" y="537"/>
      <point x="298" y="563"/>
      <point x="236" y="563" type="curve" smooth="yes"/>
      <point x="116" y="563"/>
      <point x="30" y="466"/>
      <point x="30" y="275" type="curve" smooth="yes"/>
      <point x="30" y="94"/>
      <point x="106" y="-10"/>
      <point x="238" y="-10" type="curve" smooth="yes"/>
      <point x="296" y="-10"/>
      <point x="345" y="6"/>
      <point x="384" y="67" type="curve"/>
      <point x="388" y="67" type="line"/>
      <point x="388" y="44"/>
      <point x="388" y="28"/>
      <point x="388" y="3" type="curve" smooth="yes"/>
      <point x="388" y="-2" type="line" smooth="yes"/>
      <point x="388" y="-77"/>
      <point x="339" y="-107"/>
      <point x="250" y="-107" type="curve" smooth="yes"/>
      <point x="196" y="-107"/>
      <point x="139" y="-96"/>
      <point x="63" y="-68" type="curve"/>
      <point x="63" y="-214" type="line"/>
      <point x="132" y="-239"/>
      <point x="195" y="-245"/>
    </contour>
    <contour>
      <point x="302" y="130" type="curve" smooth="yes"/>
      <point x="232" y="130"/>
      <point x="203" y="185"/>
      <point x="203" y="272" type="curve" smooth="yes"/>
      <point x="203" y="374"/>
      <point x="237" y="422"/>
      <point x="300" y="422" type="curve" smooth="yes"/>
      <point x="370" y="422"/>
      <point x="396" y="370"/>
      <point x="396" y="273" type="curve" smooth="yes"/>
      <point x="396" y="257" type="line" smooth="yes"/>
      <point x="396" y="176"/>
      <point x="367" y="130"/>
    </contour>
  </outline>
</glyph>
<glyph name="g.serif" format="2">
  <advance width="576"/>
  <unicode hex="0067"/>
  <anchor x="272" y="-233" name="bottom"/>
  <anchor x="262" y="536" name="top"/>
  <anchor x="586" y="536" name="topright"/>
  <outline>
    <contour>
      <point x="239" y="-233" type="curve" smooth="yes"/>
      <point x="448" y="-233"/>
      <point x="548" y="-159"/>
      <point x="548" y="-37" type="curve" smooth="yes"/>
      <point x="548" y="66"/>
      <point x="479" y="119"/>
      <point x="336" y="119" type="curve" smooth="yes"/>
      <point x="216" y="119" type="line" smooth="yes"/>
      <point x="193" y="119"/>
      <point x="173" y="126"/>
      <point x="173" y="146" type="curve" smooth="yes"/>
      <point x="173" y="166"/>
      <point x="190" y="187"/>
      <point x="204" y="191" type="curve"/>
      <point x="215" y="188"/>
      <point x="248" y="187"/>
      <point x="262" y="187" type="curve" smooth="yes"/>
      <point x="422" y="187"/>
      <point x="493" y="261"/>
      <point x="493" y="371" type="curve" smooth="yes"/>
      <point x="493" y="430"/>
      <point x="466" y="470"/>
      <point x="432" y="497" type="curve"/>
      <point x="440" y="500"/>
      <point x="450" y="505"/>
      <point x="465" y="505" type="curve" smooth="yes"/>
      <point x="478" y="505"/>
      <point x="501" y="494"/>
      <point x="501" y="458" type="curve"/>
      <point x="560" y="458"/>
      <point x="579" y="489"/>
      <point x="579" y="524" type="curve" smooth="yes"/>
      <point x="579" y="558"/>
      <point x="553" y="587"/>
      <point x="507" y="587" type="curve" smooth="yes"/>
      <point x="453" y="587"/>
      <point x="423" y="563"/>
      <point x="390" y="527" type="curve"/>
      <point x="352" y="544"/>
      <point x="315" y="551"/>
      <point x="262" y="551" type="curve" smooth="yes"/>
      <point x="100" y="551"/>
      <point x="28" y="485"/>
      <point x="28" y="366" type="curve" smooth="yes"/>
      <point x="28" y="275"/>
      <point x="82" y="227"/>
      <point x="149" y="208" type="curve"/>
      <point x="85" y="176"/>
      <point x="42" y="145"/>
      <point x="42" y="98" type="curve" smooth="yes"/>
      <point x="42" y="48"/>
      <point x="86" y="25"/>
      <point x="128" y="10" type="curve"/>
      <point x="41" y="5"/>
      <point x="-14" y="-40"/>
      <point x="-14" y="-103" type="curve" smooth="yes"/>
      <point x="-14" y="-189"/>
      <point x="69" y="-233"/>
    </contour>
    <contour>
      <point x="242" y="-165" type="curve" smooth="yes"/>
      <point x="183" y="-165"/>
      <point x="132" y="-149"/>
      <point x="132" y="-104" type="curve" smooth="yes"/>
      <point x="132" y="-52"/>
      <point x="177" y="-36"/>
      <point x="206" y="-36" type="curve" smooth="yes"/>
      <point x="335" y="-36" type="line"/>
      <point x="380" y="-36"/>
      <point x="400" y="-59"/>
      <point x="400" y="-84" type="curve" smooth="yes"/>
      <point x="400" y="-137"/>
      <point x="340" y="-165"/>
    </contour>
    <contour>
      <point x="260" y="254" type="curve" smooth="yes"/>
      <point x="206" y="254"/>
      <point x="195" y="305"/>
      <point x="195" y="364" type="curve" smooth="yes"/>
      <point x="195" y="425"/>
      <point x="206" y="483"/>
      <point x="260" y="483" type="curve" smooth="yes"/>
      <point x="316" y="483"/>
      <point x="324" y="427"/>
      <point x="324" y="365" type="curve" smooth="yes"/>
      <point x="324" y="304"/>
      <point x="316" y="254"/>
    </contour>
  </outline>
</glyph>
<glyph name="h.mono" format="2">
  <advance width="600"/>
  <unicode hex="0068"/>
  <anchor x="300" y="0" name="bottom"/>
  <anchor x="300" y="277" name="center"/>
  <anchor x="131" y="760" name="top"/>
  <anchor x="580" y="760" name="topright"/>
  <outline>
    <contour>
      <point x="45" y="0" type="line"/>
      <point x="220" y="0" type="line"/>
      <point x="220" y="241" type="line" smooth="yes"/>
      <point x="220" y="381"/>
      <point x="249" y="422"/>
      <point x="308" y="422" type="curve" smooth="yes"/>
      <point x="368" y="422"/>
      <point x="385" y="379"/>
      <point x="385" y="301" type="curve" smooth="yes"/>
      <point x="385" y="0" type="line"/>
      <point x="560" y="0" type="line"/>
      <point x="560" y="359" type="line" smooth="yes"/>
      <point x="560" y="484"/>
      <point x="500" y="563"/>
      <point x="373" y="563" type="curve" smooth="yes"/>
      <point x="301" y="563"/>
      <point x="256" y="537"/>
      <point x="221" y="483" type="curve"/>
      <point x="211" y="483" type="line"/>
      <point x="214" y="537"/>
      <point x="220" y="590"/>
      <point x="220" y="645" type="curve" smooth="yes"/>
      <point x="220" y="760" type="line"/>
      <point x="45" y="760" type="line"/>
    </contour>
  </outline>
</glyph>
<glyph name="i.mono" format="2">
  <advance width="600"/>
  <unicode hex="0069"/>
  <anchor x="311" y="0" name="bottom"/>
  <anchor x="312" y="295" name="center"/>
  <anchor x="313" y="777" name="top"/>
  <anchor x="510" y="777" name="topright"/>
  <outline>
    <contour>
      <point x="40" y="0" type="line"/>
      <point x="560" y="0" type="line"/>
      <point x="560" y="124" type="line"/>
      <point x="401" y="140" type="line"/>
      <point x="401" y="553" type="line"/>
      <point x="83" y="553" type="line"/>
      <point x="83" y="427" type="line"/>
      <point x="226" y="413" type="line"/>
      <point x="226" y="140" type="line"/>
      <point x="40" y="124" type="line"/>
    </contour>
    <contour>
      <point x="313" y="601" type="curve" smooth="yes"/>
      <point x="385" y="601"/>
      <point x="416" y="635"/>
      <point x="416" y="690" type="curve" smooth="yes"/>
      <point x="416" y="746"/>
      <point x="384" y="777"/>
      <point x="313" y="777" type="curve" smooth="yes"/>
      <point x="242" y="777"/>
      <point x="208" y="746"/>
      <point x="208" y="690" type="curve" smooth="yes"/>
      <point x="208" y="631"/>
      <point x="245" y="601"/>
    </contour>
  </outline>
</glyph>
<glyph name="j.serif" format="2">
  <advance width="378"/>
  <unicode hex="006A"/>
  <anchor x="127" y="-240" name="bottom"/>
  <anchor x="189" y="777" name="top"/>
  <anchor x="358" y="777" name="topright"/>
  <outline>
    <contour>
      <point x="-26" y="-240" type="line"/>
      <point x="-3" y="-240" type="line"/>
      <point x="167" y="-240"/>
      <point x="289" y="-187"/>
      <point x="289" y="-8" type="curve" smooth="yes"/>
      <point x="289" y="536" type="line"/>
      <point x="13" y="536" type="line"/>
      <point x="13" y="475" type="line"/>
      <point x="17" y="475" type="line" smooth="yes"/>
      <point x="59" y="475"/>
      <point x="94" y="466"/>
      <point x="94" y="410" type="curve" smooth="yes"/>
      <point x="94" y="7" type="line" smooth="yes"/>
      <point x="94" y="-126"/>
      <point x="55" y="-167"/>
      <point x="-19" y="-167" type="curve" smooth="yes"/>
      <point x="-26" y="-167" type="line"/>
    </contour>
    <contour>
      <point x="188" y="619" type="curve" smooth="yes"/>
      <point x="245" y="619"/>
      <point x="295" y="647"/>
      <point x="295" y="698" type="curve" smooth="yes"/>
      <point x="295" y="752"/>
      <point x="245" y="777"/>
      <point x="188" y="777" type="curve" smooth="yes"/>
      <point x="128" y="777"/>
      <point x="82" y="752"/>
      <point x="82" y="698" type="curve" smooth="yes"/>
      <point x="82" y="647"/>
      <point x="128" y="619"/>
    </contour>
  </outline>
</glyph>
<glyph name="k.serif" format="2">
  <advance width="674"/>
  <unicode hex="006B"/>
  <anchor x="337" y="0" name="bottom"/>
  <anchor x="187" y="760" name="top"/>
  <anchor x="494" y="920" name="topright"/>
  <outline>
    <contour>
      <point x="16" y="0" type="line"/>
      <point x="370" y="0" type="line"/>
      <point x="370" y="61" type="line"/>
      <point x="351" y="61" type="line" smooth="yes"/>
      <point x="334" y="61"/>
      <point x="289" y="69"/>
      <point x="289" y="125" type="curve"/>
      <point x="289" y="199" type="line"/>
      <point x="316" y="225" type="line"/>
      <point x="388" y="107" type="line" smooth="yes"/>
      <point x="442" y="20"/>
      <point x="490" y="0"/>
      <point x="659" y="0" type="curve"/>
      <point x="673" y="0" type="line"/>
      <point x="673" y="61" type="line"/>
      <point x="669" y="61" type="line" smooth="yes"/>
      <point x="644" y="61"/>
      <point x="617" y="90"/>
      <point x="580" y="146" type="curve" smooth="yes"/>
      <point x="447" y="344" type="line"/>
      <point x="496" y="401" type="line"/>
      <point x="548" y="460"/>
      <point x="591" y="480"/>
      <point x="637" y="480" type="curve"/>
      <point x="637" y="536" type="line"/>
      <point x="362" y="536" type="line"/>
      <point x="362" y="480" type="line"/>
      <point x="395" y="480"/>
      <point x="416" y="465"/>
      <point x="416" y="448" type="curve"/>
      <point x="416" y="445"/>
      <point x="416" y="438"/>
      <point x="410" y="430" type="curve"/>
      <point x="283" y="286" type="line"/>
      <point x="286" y="304"/>
      <point x="289" y="345"/>
      <point x="289" y="379" type="curve" smooth="yes"/>
      <point x="289" y="760" type="line"/>
      <point x="16" y="760" type="line"/>
      <point x="16" y="699" type="line"/>
      <point x="31" y="699" type="line" smooth="yes"/>
      <point x="47" y="699"/>
      <point x="94" y="692"/>
      <point x="94" y="643" type="curve" smooth="yes"/>
      <point x="94" y="121" type="line" smooth="yes"/>
      <point x="94" y="68"/>
      <point x="48" y="61"/>
      <point x="31" y="61" type="curve" smooth="yes"/>
      <point x="16" y="61" type="line"/>
    </contour>
  </outline>
</glyph>
<glyph name="l.mono" format="2">
  <advance width="600"/>
  <unicode hex="006C"/>
  <anchor x="318" y="0" name="bottom"/>
  <anchor x="318" y="390" name="center"/>
  <anchor x="300" y="760" name="top"/>
  <anchor x="508" y="760" name="topright"/>
  <outline>
    <contour>
      <point x="40" y="0" type="line"/>
      <point x="560" y="0" type="line"/>
      <point x="560" y="122" type="line"/>
      <point x="401" y="140" type="line"/>
      <point x="401" y="760" type="line"/>
      <point x="79" y="760" type="line"/>
      <point x="79" y="633" type="line"/>
      <point x="226" y="620" type="line"/>
      <point x="226" y="140" type="line"/>
      <point x="40" y="122" type="line"/>
    </contour>
  </outline>
</glyph>
<glyph name="l.serif" format="2">
  <advance width="383"/>
  <unicode hex="006C"/>
  <anchor x="192" y="0" name="bottom"/>
  <anchor x="192" y="268" name="center"/>
  <anchor x="192" y="760" name="top"/>
  <anchor x="343" y="760" name="topright"/>
  <outline>
    <contour>
      <point x="20" y="0" type="line"/>
      <point x="363" y="0" type="line"/>
      <point x="363" y="61" type="line"/>
      <point x="352" y="61" type="line" smooth="yes"/>
      <point x="315" y="61"/>
      <point x="289" y="78"/>
      <point x="289" y="131" type="curve" smooth="yes"/>
      <point x="289" y="760" type="line"/>
      <point x="20" y="760" type="line"/>
      <point x="20" y="699" type="line"/>
      <point x="31" y="699" type="line" smooth="yes"/>
      <point x="47" y="699"/>
      <point x="94" y="692"/>
      <point x="94" y="643" type="curve" smooth="yes"/>
      <point x="94" y="131" type="line" smooth="yes"/>
      <point x="94" y="78"/>
      <point x="68" y="61"/>
      <point x="31" y="61" type="curve"/>
      <point x="20" y="61" type="line"/>
    </contour>
  </outline>
</glyph>
<glyph name="m.mono" format="2">
  <advance width="600"/>
  <unicode hex="006D"/>
  <anchor x="308" y="0" name="bottom"/>
  <anchor x="338" y="553" name="top"/>
  <anchor x="580" y="553" name="topright"/>
  <outline>
    <contour>
      <point x="20" y="0" type="line"/>
      <point x="167" y="0" type="line"/>
      <point x="167" y="355" type="line" smooth="yes"/>
      <point x="167" y="392"/>
      <point x="173" y="422"/>
      <point x="201" y="422" type="curve" smooth="yes"/>
      <point x="222" y="422"/>
      <point x="229" y="405"/>
      <point x="229" y="355" type="curve" smooth="yes"/>
      <point x="229" y="0" type="line"/>
      <point x="371" y="0" type="line"/>
      <point x="371" y="354" type="line" smooth="yes"/>
      <point x="371" y="392"/>
      <point x="376" y="422"/>
      <point x="404" y="422" type="curve" smooth="yes"/>
      <point x="425" y="422"/>
      <point x="433" y="405"/>
      <point x="433" y="355" type="curve" smooth="yes"/>
      <point x="433" y="0" type="line"/>
      <point x="580" y="0" type="line"/>
      <point x="580" y="358" type="line" smooth="yes"/>
      <point x="580" y="484"/>
      <point x="571" y="563"/>
      <point x="483" y="563" type="curve" smooth="yes"/>
      <point x="423" y="563"/>
      <point x="396" y="526"/>
      <point x="370" y="469" type="curve"/>
      <point x="364" y="469" type="line"/>
      <point x="357" y="526"/>
      <point x="333" y="563"/>
      <point x="270" y="563" type="curve" smooth="yes"/>
      <point x="215" y="563"/>
      <point x="184" y="535"/>
      <point x="166" y="481" type="curve"/>
      <point x="156" y="481" type="line"/>
      <point x="139" y="553" type="line"/>
      <point x="20" y="553" type="line"/>
    </contour>
  </outline>
</glyph>
<glyph name="m.serif" format="2">
  <advance width="1016"/>
  <unicode hex="006D"/>
  <anchor x="538" y="0" name="bottom"/>
  <anchor x="529" y="536" name="top"/>
  <anchor x="986" y="536" name="topright"/>
  <outline>
    <contour>
      <point x="14" y="0" type="line"/>
      <point x="349" y="0" type="line"/>
      <point x="349" y="61" type="line"/>
      <point x="345" y="61" type="line"/>
      <point x="301" y="61"/>
      <point x="281" y="71"/>
      <point x="281" y="125" type="curve" smooth="yes"/>
      <point x="281" y="301" type="line" smooth="yes"/>
      <point x="281" y="380"/>
      <point x="300" y="451"/>
      <point x="350" y="451" type="curve" smooth="yes"/>
      <point x="396" y="451"/>
      <point x="409" y="402"/>
      <point x="409" y="317" type="curve" smooth="yes"/>
      <point x="409" y="0" type="line"/>
      <point x="666" y="0" type="line"/>
      <point x="666" y="61" type="line"/>
      <point x="662" y="61" type="line" smooth="yes"/>
      <point x="617" y="61"/>
      <point x="603" y="70"/>
      <point x="603" y="131" type="curve" smooth="yes"/>
      <point x="603" y="312" type="line" smooth="yes"/>
      <point x="603" y="387"/>
      <point x="624" y="451"/>
      <point x="673" y="451" type="curve" smooth="yes"/>
      <point x="718" y="451"/>
      <point x="734" y="402"/>
      <point x="734" y="317" type="curve" smooth="yes"/>
      <point x="734" y="0" type="line"/>
      <point x="992" y="0" type="line"/>
      <point x="992" y="61" type="line"/>
      <point x="988" y="61" type="line" smooth="yes"/>
      <point x="943" y="61"/>
      <point x="929" y="70"/>
      <point x="929" y="131" type="curve" smooth="yes"/>
      <point x="929" y="360" type="line" smooth="yes"/>
      <point x="929" y="494"/>
      <point x="866" y="551"/>
      <point x="756" y="551" type="curve" smooth="yes"/>
      <point x="669" y="551"/>
      <point x="619" y="514"/>
      <point x="597" y="472" type="curve"/>
      <point x="592" y="472" type="line"/>
      <point x="569" y="525"/>
      <point x="522" y="551"/>
      <point x="447" y="551" type="curve" smooth="yes"/>
      <point x="350" y="551"/>
      <point x="308" y="514"/>
      <point x="282" y="472" type="curve"/>
      <point x="277" y="472" type="line"/>
      <point x="264" y="536" type="line"/>
      <point x="15" y="536" type="line"/>
      <point x="15" y="480" type="line"/>
      <point x="19" y="480" type="line" smooth="yes"/>
      <point x="63" y="480"/>
      <point x="87" y="471"/>
      <point x="87" y="417" type="curve" smooth="yes"/>
      <point x="87" y="128" type="line" smooth="yes"/>
      <point x="87" y="70"/>
      <point x="63" y="61"/>
      <point x="18" y="61" type="curve" smooth="yes"/>
      <point x="14" y="61" type="line"/>
    </contour>
  </outline>
</glyph>
<glyph name="n.mono" format="2">
  <advance width="600"/>
  <unicode hex="006E"/>
  <anchor x="307" y="0" name="bottom"/>
  <anchor x="314" y="553" name="top"/>
  <anchor x="580" y="553" name="topright"/>
  <outline>
    <contour>
      <point x="45" y="0" type="line"/>
      <point x="220" y="0" type="line"/>
      <point x="220" y="241" type="line" smooth="yes"/>
      <point x="220" y="356"/>
      <point x="241" y="422"/>
      <point x="311" y="422" type="curve" smooth="yes"/>
      <point x="362" y="422"/>
      <point x="385" y="388"/>
      <point x="385" y="301" type="curve" smooth="yes"/>
      <point x="385" y="0" type="line"/>
      <point x="560" y="0" type="line"/>
      <point x="560" y="359" type="line" smooth="yes"/>
      <point x="560" y="488"/>
      <point x="502" y="563"/>
      <point x="374" y="563" type="curve" smooth="yes"/>
      <point x="295" y="563"/>
      <point x="242" y="534"/>
      <point x="208" y="483" type="curve"/>
      <point x="198" y="483" type="line"/>
      <point x="175" y="553" type="line"/>
      <point x="45" y="553" type="line"/>
    </contour>
  </outline>
</glyph>
<glyph name="o.mono" format="2">
  <advance width="600"/>
  <unicode hex="006F"/>
  <anchor x="300" y="0" name="bottom"/>
  <anchor x="300" y="277" name="center"/>
  <anchor x="301" y="10" name="ogonek"/>
  <anchor x="300" y="553" name="top"/>
  <anchor x="580" y="553" name="topright"/>
  <outline>
    <contour>
      <point x="305" y="-10" type="curve" smooth="yes"/>
      <point x="483" y="-10"/>
      <point x="570" y="103"/>
      <point x="570" y="269" type="curve" smooth="yes"/>
      <point x="570" y="448"/>
      <point x="468" y="563"/>
      <point x="294" y="563" type="curve" smooth="yes"/>
      <point x="116" y="563"/>
      <point x="30" y="445"/>
      <point x="30" y="281" type="curve" smooth="yes"/>
      <point x="30" y="108"/>
      <point x="124" y="-10"/>
    </contour>
    <contour>
      <point x="300" y="130" type="curve" smooth="yes"/>
      <point x="231" y="130"/>
      <point x="200" y="187"/>
      <point x="200" y="275" type="curve" smooth="yes"/>
      <point x="200" y="358"/>
      <point x="228" y="422"/>
      <point x="300" y="422" type="curve" smooth="yes"/>
      <point x="370" y="422"/>
      <point x="401" y="363"/>
      <point x="401" y="275" type="curve" smooth="yes"/>
      <point x="401" y="189"/>
      <point x="371" y="130"/>
    </contour>
  </outline>
</glyph>
<glyph name="o.serif" format="2">
  <advance width="640"/>
  <unicode hex="006F"/>
  <anchor x="320" y="0" name="bottom"/>
  <anchor x="320" y="268" name="center"/>
  <anchor x="320" y="536" name="top"/>
  <anchor x="620" y="536" name="topright"/>
  <outline>
    <contour>
      <point x="318" y="-10" type="curve" smooth="yes"/>
      <point x="502" y="-10"/>
      <point x="598" y="83"/>
      <point x="598" y="271" type="curve" smooth="yes"/>
      <point x="598" y="459"/>
      <point x="493" y="551"/>
      <point x="321" y="551" type="curve" smooth="yes"/>
      <point x="137" y="551"/>
      <point x="41" y="459"/>
      <point x="41" y="271" type="curve" smooth="yes"/>
      <point x="41" y="83"/>
      <point x="146" y="-10"/>
    </contour>
    <contour>
      <point x="320" y="61" type="curve" smooth="yes"/>
      <point x="260" y="61"/>
      <point x="239" y="134"/>
      <point x="239" y="271" type="curve" smooth="yes"/>
      <point x="239" y="409"/>
      <point x="259" y="479"/>
      <point x="319" y="479" type="curve" smooth="yes"/>
      <point x="379" y="479"/>
      <point x="401" y="409"/>
      <point x="401" y="271" type="curve" smooth="yes"/>
      <point x="401" y="134"/>
      <point x="380" y="61"/>
    </contour>
  </outline>
</glyph>
<glyph name="p.serif" format="2">
  <advance width="668"/>
  <unicode hex="0070"/>
  <anchor x="181" y="-221" name="bottom"/>
  <anchor x="334" y="536" name="top"/>
  <anchor x="648" y="536" name="topright"/>
  <outline>
    <contour>
      <point x="9" y="-221" type="line"/>
      <point x="380" y="-221" type="line"/>
      <point x="380" y="-160" type="line"/>
      <point x="344" y="-160" type="line" smooth="yes"/>
      <point x="327" y="-160"/>
      <point x="282" y="-152"/>
      <point x="282" y="-96" type="curve"/>
      <point x="282" y="-66" type="line" smooth="yes"/>
      <point x="282" y="-26"/>
      <point x="280" y="10"/>
      <point x="278" y="44" type="curve"/>
      <point x="284" y="44" type="line"/>
      <point x="313" y="7"/>
      <point x="352" y="-13"/>
      <point x="418" y="-13" type="curve" smooth="yes"/>
      <point x="556" y="-13"/>
      <point x="626" y="71"/>
      <point x="626" y="264" type="curve"/>
      <point x="626" y="459"/>
      <point x="554" y="546"/>
      <point x="421" y="546" type="curve" smooth="yes"/>
      <point x="344" y="546"/>
      <point x="296" y="512"/>
      <point x="268" y="467" type="curve"/>
      <point x="264" y="467" type="line"/>
      <point x="240" y="536" type="line"/>
      <point x="28" y="536" type="line"/>
      <point x="28" y="475" type="line"/>
      <point x="33" y="475" type="line" smooth="yes"/>
      <point x="66" y="475"/>
      <point x="87" y="466"/>
      <point x="87" y="403" type="curve"/>
      <point x="87" y="-100" type="line" smooth="yes"/>
      <point x="87" y="-153"/>
      <point x="41" y="-160"/>
      <point x="24" y="-160" type="curve" smooth="yes"/>
      <point x="9" y="-160" type="line"/>
    </contour>
    <contour>
      <point x="358" y="68" type="curve" smooth="yes"/>
      <point x="298" y="68"/>
      <point x="282" y="127"/>
      <point x="282" y="264" type="curve" smooth="yes"/>
      <point x="282" y="387"/>
      <point x="298" y="463"/>
      <point x="361" y="463" type="curve" smooth="yes"/>
      <point x="410" y="463"/>
      <point x="431" y="388"/>
      <point x="431" y="261" type="curve" smooth="yes"/>
      <point x="431" y="128"/>
      <point x="410" y="68"/>
    </contour>
  </outline>
</glyph>
<glyph name="q.mono" format="2">
  <advance width="600"/>
  <unicode hex="0071"/>
  <anchor x="270" y="-240" name="bottom"/>
  <anchor x="270" y="553" name="top"/>
  <anchor x="580" y="553" name="topright"/>
  <outline>
    <contour>
      <point x="383" y="-11" type="curve" smooth="yes"/>
      <point x="383" y="-240" type="line"/>
      <point x="555" y="-240" type="line"/>
      <point x="555" y="553" type="line"/>
      <point x="430" y="553" type="line"/>
      <point x="396" y="483" type="line"/>
      <point x="392" y="483" type="line"/>
      <point x="348" y="545"/>
      <point x="289" y="563"/>
      <point x="234" y="563" type="curve" smooth="yes"/>
      <point x="77" y="563"/>
      <point x="30" y="417"/>
      <point x="30" y="276" type="curve" smooth="yes"/>
      <point x="30" y="130"/>
      <point x="80" y="-10"/>
      <point x="228" y="-10" type="curve" smooth="yes"/>
      <point x="288" y="-10"/>
      <point x="350" y="13"/>
      <point x="383" y="70" type="curve"/>
      <point x="389" y="70" type="line"/>
      <point x="383" y="16"/>
      <point x="383" y="7"/>
    </contour>
    <contour>
      <point x="297" y="130" type="curve" smooth="yes"/>
      <point x="233" y="130"/>
      <point x="205" y="178"/>
      <point x="205" y="273" type="curve" smooth="yes"/>
      <point x="205" y="374"/>
      <point x="237" y="422"/>
      <point x="299" y="422" type="curve" smooth="yes"/>
      <point x="363" y="422"/>
      <point x="396" y="376"/>
      <point x="396" y="273" type="curve" smooth="yes"/>
      <point x="396" y="256" type="line" smooth="yes"/>
      <point x="396" y="186"/>
      <point x="369" y="130"/>
    </contour>
  </outline>
</glyph>
<glyph name="q.serif" format="2">
  <advance width="673"/>
  <unicode hex="0071"/>
  <anchor x="493" y="-221" name="bottom"/>
  <anchor x="337" y="536" name="top"/>
  <anchor x="673" y="536" name="topright"/>
  <outline>
    <contour>
      <point x="278" y="-221" type="line"/>
      <point x="663" y="-221" type="line"/>
      <point x="663" y="-160" type="line"/>
      <point x="659" y="-160" type="line" smooth="yes"/>
      <point x="615" y="-160"/>
      <point x="579" y="-154"/>
      <point x="579" y="-102" type="curve" smooth="yes"/>
      <point x="579" y="406" type="line" smooth="yes"/>
      <point x="579" y="466"/>
      <point x="616" y="475"/>
      <point x="659" y="475" type="curve" smooth="yes"/>
      <point x="663" y="475" type="line"/>
      <point x="663" y="536" type="line"/>
      <point x="430" y="536" type="line"/>
      <point x="409" y="458" type="line"/>
      <point x="403" y="458" type="line"/>
      <point x="372" y="513"/>
      <point x="322" y="546"/>
      <point x="253" y="546" type="curve" smooth="yes"/>
      <point x="113" y="546"/>
      <point x="39" y="462"/>
      <point x="39" y="270" type="curve" smooth="yes"/>
      <point x="39" y="77"/>
      <point x="113" y="-10"/>
      <point x="240" y="-10" type="curve" smooth="yes"/>
      <point x="312" y="-10"/>
      <point x="356" y="18"/>
      <point x="383" y="53" type="curve"/>
      <point x="390" y="53" type="line"/>
      <point x="387" y="23"/>
      <point x="384" y="-20"/>
      <point x="384" y="-56" type="curve" smooth="yes"/>
      <point x="384" y="-105" type="line" smooth="yes"/>
      <point x="384" y="-154"/>
      <point x="347" y="-160"/>
      <point x="304" y="-160" type="curve"/>
      <point x="278" y="-160" type="line"/>
    </contour>
    <contour>
      <point x="305" y="71" type="curve" smooth="yes"/>
      <point x="254" y="71"/>
      <point x="235" y="143"/>
      <point x="235" y="269" type="curve" smooth="yes"/>
      <point x="235" y="403"/>
      <point x="254" y="463"/>
      <point x="306" y="463" type="curve" smooth="yes"/>
      <point x="366" y="463"/>
      <point x="384" y="404"/>
      <point x="384" y="267" type="curve" smooth="yes"/>
      <point x="384" y="144"/>
      <point x="366" y="71"/>
    </contour>
  </outline>
</glyph>
<glyph name="r.mono" format="2">
  <advance width="600"/>
  <unicode hex="0072"/>
  <anchor x="270" y="0" name="bottom"/>
  <anchor x="314" y="553" name="top"/>
  <anchor x="580" y="553" name="topright"/>
  <outline>
    <contour>
      <point x="30" y="0" type="line"/>
      <point x="490" y="0" type="line"/>
      <point x="490" y="124" type="line"/>
      <point x="336" y="140" type="line"/>
      <point x="336" y="246" type="line" smooth="yes"/>
      <point x="336" y="351"/>
      <point x="387" y="397"/>
      <point x="462" y="397" type="curve" smooth="yes"/>
      <point x="482" y="397"/>
      <point x="522" y="393"/>
      <point x="545" y="383" type="curve"/>
      <point x="586" y="548" type="line"/>
      <point x="534" y="563"/>
      <point x="498" y="563"/>
      <point x="480" y="563" type="curve" smooth="yes"/>
      <point x="406" y="563"/>
      <point x="353" y="520"/>
      <point x="331" y="463" type="curve"/>
      <point x="323" y="463" type="line"/>
      <point x="296" y="553" type="line"/>
      <point x="53" y="553" type="line"/>
      <point x="53" y="427" type="line"/>
      <point x="176" y="413" type="line"/>
      <point x="176" y="140" type="line"/>
      <point x="30" y="124" type="line"/>
    </contour>
  </outline>
</glyph>
<glyph name="s.mono" format="2">
  <advance width="600"/>
  <unicode hex="0073"/>
  <anchor x="305" y="0" name="bottom"/>
  <anchor x="305" y="553" name="top"/>
  <anchor x="580" y="553" name="topright"/>
  <outline>
    <contour>
      <point x="263" y="-10" type="curve" smooth="yes"/>
      <point x="449" y="-10"/>
      <point x="524" y="65"/>
      <point x="524" y="171" type="curve" smooth="yes"/>
      <point x="524" y="259"/>
      <point x="472" y="293"/>
      <point x="371" y="332" type="curve" smooth="yes"/>
      <point x="280" y="367"/>
      <point x="250" y="371"/>
      <point x="250" y="396" type="curve" smooth="yes"/>
      <point x="250" y="418"/>
      <point x="276" y="428"/>
      <point x="318" y="428" type="curve" smooth="yes"/>
      <point x="359" y="428"/>
      <point x="411" y="418"/>
      <point x="465" y="390" type="curve"/>
      <point x="520" y="521" type="line"/>
      <point x="445" y="552"/>
      <point x="379" y="563"/>
      <point x="313" y="563" type="curve" smooth="yes"/>
      <point x="168" y="563"/>
      <point x="80" y="509"/>
      <point x="80" y="396" type="curve" smooth="yes"/>
      <point x="80" y="314"/>
      <point x="127" y="273"/>
      <point x="221" y="233" type="curve" smooth="yes"/>
      <point x="298" y="200"/>
      <point x="353" y="193"/>
      <point x="353" y="160" type="curve" smooth="yes"/>
      <point x="353" y="133"/>
      <point x="314" y="125"/>
      <point x="272" y="125" type="curve" smooth="yes"/>
      <point x="212" y="125"/>
      <point x="142" y="141"/>
      <point x="70" y="175" type="curve"/>
      <point x="70" y="21" type="line"/>
      <point x="133" y="-1"/>
      <point x="199" y="-10"/>
    </contour>
  </outline>
</glyph>
<glyph name="s.serif" format="2">
  <advance width="502"/>
  <unicode hex="0073"/>
  <anchor x="251" y="0" name="bottom"/>
  <anchor x="251" y="536" name="top"/>
  <anchor x="482" y="536" name="topright"/>
  <outline>
    <contour>
      <point x="243" y="-10" type="curve" smooth="yes"/>
      <point x="399" y="-10"/>
      <point x="478" y="64"/>
      <point x="478" y="174" type="curve" smooth="yes"/>
      <point x="478" y="279"/>
      <point x="405" y="318"/>
      <point x="297" y="350" type="curve" smooth="yes"/>
      <point x="204" y="378"/>
      <point x="178" y="395"/>
      <point x="178" y="432" type="curve" smooth="yes"/>
      <point x="178" y="465"/>
      <point x="208" y="481"/>
      <point x="249" y="481" type="curve" smooth="yes"/>
      <point x="303" y="481"/>
      <point x="346" y="446"/>
      <point x="346" y="381" type="curve"/>
      <point x="422" y="381"/>
      <point x="455" y="405"/>
      <point x="455" y="453" type="curve" smooth="yes"/>
      <point x="455" y="500"/>
      <point x="403" y="550"/>
      <point x="266" y="550" type="curve" smooth="yes"/>
      <point x="125" y="550"/>
      <point x="31" y="497"/>
      <point x="31" y="378" type="curve" smooth="yes"/>
      <point x="31" y="276"/>
      <point x="91" y="232"/>
      <point x="213" y="197" type="curve" smooth="yes"/>
      <point x="295" y="174"/>
      <point x="333" y="155"/>
      <point x="333" y="117" type="curve" smooth="yes"/>
      <point x="333" y="88"/>
      <point x="310" y="61"/>
      <point x="246" y="61" type="curve" smooth="yes"/>
      <point x="178" y="61"/>
      <point x="130" y="96"/>
      <point x="130" y="188" type="curve"/>
      <point x="72" y="188"/>
      <point x="25" y="167"/>
      <point x="25" y="109" type="curve" smooth="yes"/>
      <point x="25" y="44"/>
      <point x="75" y="-10"/>
    </contour>
  </outline>
</glyph>
